<?xml version="1.0" encoding="UTF-8" standalone="no"?>
<svg
   xmlns:dc="http://purl.org/dc/elements/1.1/"
   xmlns:cc="http://creativecommons.org/ns#"
   xmlns:rdf="http://www.w3.org/1999/02/22-rdf-syntax-ns#"
   xmlns:svg="http://www.w3.org/2000/svg"
   xmlns="http://www.w3.org/2000/svg"
   viewBox="0 0 83.826668 110.012"
   height="110.012"
   width="83.826668"
   xml:space="preserve"
   id="svg2"
   version="1.1"><metadata
     id="metadata8"><rdf:RDF><cc:Work
         rdf:about=""><dc:format>image/svg+xml</dc:format><dc:type
           rdf:resource="http://purl.org/dc/dcmitype/StillImage" /></cc:Work></rdf:RDF></metadata><defs
     id="defs6"><clipPath
       id="clipPath32"
       clipPathUnits="userSpaceOnUse"><path
         id="path30"
         d="m -27.87833,-30.92381 c 12.49448,-12.49448 43.73066,-6.24724 56.22513,6.24724 0,43.73065 -62.47236,43.73065 -56.22513,-6.24724 z" /></clipPath><clipPath
       id="clipPath46"
       clipPathUnits="userSpaceOnUse"><path
         id="path44"
         d="M 0,0 H 100 V 100 H 0 Z" /></clipPath><linearGradient
       id="linearGradient58"
       gradientUnits="userSpaceOnUse"
       y2="100.00128"
       x2="0"
       y1="0"
       x1="0"><stop
         id="stop48"
         offset="0"
         style="stop-opacity:1;stop-color:#818181" /><stop
         id="stop50"
         offset="25.00032"
         style="stop-opacity:1;stop-color:#818181" /><stop
         id="stop52"
         offset="50.00064"
         style="stop-opacity:1;stop-color:#a1a1a1" /><stop
         id="stop54"
         offset="75.00096"
         style="stop-opacity:1;stop-color:#c0c0c0" /><stop
         id="stop56"
         offset="100.00128"
         style="stop-opacity:1;stop-color:#c0c0c0" /></linearGradient><clipPath
       id="clipPath70"
       clipPathUnits="userSpaceOnUse"><path
         id="path68"
         d="M -14.75908,12.80684 C -9.86165,-0.6485 0.40105,-18.70558 9.60509,-29.67438 c 2.16578,12.28353 1.54103,30.1977 -0.62477,42.48122" /></clipPath><clipPath
       id="clipPath80"
       clipPathUnits="userSpaceOnUse"><path
         id="path78"
         d="M -14.75908,12.80684 C -9.86165,-0.6485 0.40105,-18.70558 9.60509,-29.67438 c 2.16578,12.28353 1.54103,30.1977 -0.62477,42.48122" /></clipPath><clipPath
       id="clipPath94"
       clipPathUnits="userSpaceOnUse"><path
         id="path92"
         d="M 0,0 H 100 V 100 H 0 Z" /></clipPath><linearGradient
       id="linearGradient106"
       gradientUnits="userSpaceOnUse"
       y2="100.00128"
       x2="0"
       y1="0"
       x1="0"><stop
         id="stop96"
         offset="0"
         style="stop-opacity:1;stop-color:#ebebeb" /><stop
         id="stop98"
         offset="25.00032"
         style="stop-opacity:1;stop-color:#ebebeb" /><stop
         id="stop100"
         offset="50.00064"
         style="stop-opacity:1;stop-color:#f0f0f0" /><stop
         id="stop102"
         offset="75.00096"
         style="stop-opacity:1;stop-color:#f5f5f5" /><stop
         id="stop104"
         offset="100.00128"
         style="stop-opacity:1;stop-color:#f5f5f5" /></linearGradient><clipPath
       id="clipPath120"
       clipPathUnits="userSpaceOnUse"><path
         id="path118"
         d="M -10.54599,2.63449 C -4.66461,-7.55234 9.40643,-6.85332 9.40643,4.90942 Z" /></clipPath><clipPath
       id="clipPath134"
       clipPathUnits="userSpaceOnUse"><path
         id="path132"
         d="M 0,0 H 100 V 100 H 0 Z" /></clipPath><linearGradient
       id="linearGradient146"
       gradientUnits="userSpaceOnUse"
       y2="100.00128"
       x2="0"
       y1="0"
       x1="0"><stop
         id="stop136"
         offset="0"
         style="stop-opacity:1;stop-color:#dea964" /><stop
         id="stop138"
         offset="25.00032"
         style="stop-opacity:1;stop-color:#dea964" /><stop
         id="stop140"
         offset="50.00064"
         style="stop-opacity:1;stop-color:#e7bf8b" /><stop
         id="stop142"
         offset="75.00096"
         style="stop-opacity:1;stop-color:#efd4b1" /><stop
         id="stop144"
         offset="100.00128"
         style="stop-opacity:1;stop-color:#efd4b1" /></linearGradient><clipPath
       id="clipPath164"
       clipPathUnits="userSpaceOnUse"><path
         id="path162"
         d="m 15.85233,19.05408 c 0,10.35089 -8.39083,18.74171 -18.7417,18.74171 -10.35089,0 -18.74172,-8.39082 -18.74172,-18.74171 0,-10.35089 8.39083,-18.74172 18.74172,-18.74172 10.35087,0 18.7417,8.39083 18.7417,18.74172 z" /></clipPath><clipPath
       id="clipPath178"
       clipPathUnits="userSpaceOnUse"><path
         id="path176"
         d="M 0,0 H 100 V 100 H 0 Z" /></clipPath><linearGradient
       id="linearGradient190"
       gradientUnits="userSpaceOnUse"
       y2="100.00128"
       x2="0"
       y1="0"
       x1="0"><stop
         id="stop180"
         offset="0"
         style="stop-opacity:1;stop-color:#dea964" /><stop
         id="stop182"
         offset="25.00032"
         style="stop-opacity:1;stop-color:#dea964" /><stop
         id="stop184"
         offset="50.00064"
         style="stop-opacity:1;stop-color:#e7bf8b" /><stop
         id="stop186"
         offset="75.00096"
         style="stop-opacity:1;stop-color:#efd4b1" /><stop
         id="stop188"
         offset="100.00128"
         style="stop-opacity:1;stop-color:#efd4b1" /></linearGradient><clipPath
       id="clipPath204"
       clipPathUnits="userSpaceOnUse"><path
         id="path202"
         d="m 14.66255,27.2387 c -2.9237,6.26992 -8.97229,10.50495 -15.864,11.10787 -3.95839,0.34632 -7.92991,-0.53392 -11.37115,-2.52069 L -0.39052,23.38222 c 5.24697,3.02934 9.08629,4.90849 15.05307,3.85648 z" /></clipPath><clipPath
       id="clipPath218"
       clipPathUnits="userSpaceOnUse"><path
         id="path216"
         d="M 0,0 H 100 V 100 H 0 Z" /></clipPath><linearGradient
       id="linearGradient230"
       gradientUnits="userSpaceOnUse"
       y2="100.00128"
       x2="0"
       y1="0"
       x1="0"><stop
         id="stop220"
         offset="0"
         style="stop-opacity:1;stop-color:#8f6433" /><stop
         id="stop222"
         offset="25.00032"
         style="stop-opacity:1;stop-color:#8f6433" /><stop
         id="stop224"
         offset="50.00064"
         style="stop-opacity:1;stop-color:#ab8b66" /><stop
         id="stop226"
         offset="75.00096"
         style="stop-opacity:1;stop-color:#c7b199" /><stop
         id="stop228"
         offset="100.00128"
         style="stop-opacity:1;stop-color:#c7b199" /></linearGradient><clipPath
       id="clipPath244"
       clipPathUnits="userSpaceOnUse"><path
         id="path242"
         d="m -12.5726,35.82588 c -7.04968,-4.0701 -10.80264,-12.11802 -9.38916,-20.13467 0.43306,-1.87592 3.04822,-9.64675 4.71554,-8.68415 0.19322,0.11153 0.3124,0.31783 0.3124,0.54097 0,0.16558 -0.06598,0.32467 -0.18303,0.44173 -4.50745,4.50748 -1.91338,10.50324 3.60719,7.31595 0,9.00489 4.11426,8.07651 13.11914,8.07651 z" /></clipPath><clipPath
       id="clipPath258"
       clipPathUnits="userSpaceOnUse"><path
         id="path256"
         d="M 0,0 H 100 V 100 H 0 Z" /></clipPath><linearGradient
       id="linearGradient270"
       gradientUnits="userSpaceOnUse"
       y2="100.00128"
       x2="0"
       y1="0"
       x1="0"><stop
         id="stop260"
         offset="0"
         style="stop-opacity:1;stop-color:#8f6433" /><stop
         id="stop262"
         offset="25.00032"
         style="stop-opacity:1;stop-color:#8f6433" /><stop
         id="stop264"
         offset="50.00064"
         style="stop-opacity:1;stop-color:#ab8b66" /><stop
         id="stop266"
         offset="75.00096"
         style="stop-opacity:1;stop-color:#c7b199" /><stop
         id="stop268"
         offset="100.00128"
         style="stop-opacity:1;stop-color:#c7b199" /></linearGradient></defs><g
     transform="matrix(1.3333333,0,0,-1.3333333,0,110.012)"
     id="g10"><g
       transform="translate(34.324,43.617)"
       id="g12"><g
         id="g14"><g
           id="g16"><g
             id="g18"><g
               id="g20"><g
                 id="g22"><g
                   id="g24"><g
                     id="g26"><g
                       clip-path="url(#clipPath32)"
                       id="g28"><g
                         transform="matrix(0.88358509,0.88358509,-0.88358509,0.88358509,-2.88937,-12.1821)"
                         id="g34"><g
                           id="g36"><g
                             transform="translate(-50,-50)"
                             id="g38"><g
                               id="g40"><g
                                 clip-path="url(#clipPath46)"
                                 id="g42"><path
                                   id="path60"
                                   style="fill:url(#linearGradient58);stroke:none"
                                   d="M 0,0 H 100 V 100 H 0 Z" /></g></g></g></g></g></g></g><path
                     id="path62"
                     style="fill:none;stroke:#818181;stroke-width:0.3985;stroke-linecap:butt;stroke-linejoin:miter;stroke-miterlimit:10;stroke-dasharray:none;stroke-opacity:1"
                     d="m -27.87833,-30.92381 c 12.49448,-12.49448 43.73066,-6.24724 56.22513,6.24724 0,43.73065 -62.47236,43.73065 -56.22513,-6.24724 z" /></g><g
                   id="g64"><g
                     clip-path="url(#clipPath70)"
                     id="g66"><g
                       id="g72"><g
                         id="g74"><g
                           clip-path="url(#clipPath80)"
                           id="g76"><g
                             transform="matrix(0.37522261,0.60083701,-0.37522261,0.60083701,-1.49411,-8.43376)"
                             id="g82"><g
                               id="g84"><g
                                 transform="translate(-50,-50)"
                                 id="g86"><g
                                   id="g88"><g
                                   clip-path="url(#clipPath94)"
                                   id="g90"><path
                                   id="path108"
                                   style="fill:url(#linearGradient106);stroke:none"
                                   d="M 0,0 H 100 V 100 H 0 Z" /></g></g></g></g></g></g></g><path
                         id="path110"
                         style="fill:none;stroke:#ebebeb;stroke-width:0.3985;stroke-linecap:butt;stroke-linejoin:miter;stroke-miterlimit:10;stroke-dasharray:none;stroke-opacity:1"
                         d="M -14.75908,12.80684 C -9.86165,-0.6485 0.40105,-18.70558 9.60509,-29.67438 c 2.16578,12.28353 1.54103,30.1977 -0.62477,42.48122" /></g><g
                       id="g112"><g
                         id="g114"><g
                           clip-path="url(#clipPath120)"
                           id="g116"><g
                             transform="matrix(0.28220361,0.17624468,-0.28220361,0.17624468,-0.56976,-1.32146)"
                             id="g122"><g
                               id="g124"><g
                                 transform="translate(-50,-50)"
                                 id="g126"><g
                                   id="g128"><g
                                   clip-path="url(#clipPath134)"
                                   id="g130"><path
                                   id="path148"
                                   style="fill:url(#linearGradient146);stroke:none"
                                   d="M 0,0 H 100 V 100 H 0 Z" /></g></g></g></g></g></g></g><path
                         id="path150"
                         style="fill:none;stroke:#dea964;stroke-width:0.3985;stroke-linecap:butt;stroke-linejoin:miter;stroke-miterlimit:10;stroke-dasharray:none;stroke-opacity:1"
                         d="M -10.54599,2.63449 C -4.66461,-7.55234 9.40643,-6.85332 9.40643,4.90942 Z" /></g><g
                       id="g152"><path
                         id="path154"
                         style="fill:none;stroke:#818181;stroke-width:0.3985;stroke-linecap:butt;stroke-linejoin:miter;stroke-miterlimit:10;stroke-dasharray:none;stroke-opacity:1"
                         d="M -14.75908,12.80684 C -9.86165,-0.6485 0.40105,-18.70558 9.60509,-29.67438 c 2.16578,12.28353 1.54103,30.1977 -0.62477,42.48122" /></g></g></g><g
                   id="g156"><g
                     id="g158"><g
                       clip-path="url(#clipPath164)"
                       id="g160"><g
                         transform="matrix(0.5301553,0.5301553,-0.5301553,0.5301553,-2.88937,19.05408)"
                         id="g166"><g
                           id="g168"><g
                             transform="translate(-50,-50)"
                             id="g170"><g
                               id="g172"><g
                                 clip-path="url(#clipPath178)"
                                 id="g174"><path
                                   id="path192"
                                   style="fill:url(#linearGradient190);stroke:none"
                                   d="M 0,0 H 100 V 100 H 0 Z" /></g></g></g></g></g></g></g><path
                     id="path194"
                     style="fill:none;stroke:#dea964;stroke-width:0.3985;stroke-linecap:butt;stroke-linejoin:miter;stroke-miterlimit:10;stroke-dasharray:none;stroke-opacity:1"
                     d="m 15.85233,19.05408 c 0,10.35089 -8.39083,18.74171 -18.7417,18.74171 -10.35089,0 -18.74172,-8.39082 -18.74172,-18.74171 0,-10.35089 8.39083,-18.74172 18.74172,-18.74172 10.35087,0 18.7417,8.39083 18.7417,18.74172 z" /></g><g
                   id="g196"><g
                     id="g198"><g
                       clip-path="url(#clipPath204)"
                       id="g200"><g
                         transform="matrix(0.38520687,-0.2165423,0.38520687,0.2165423,1.04497,31.03755)"
                         id="g206"><g
                           id="g208"><g
                             transform="translate(-50,-50)"
                             id="g210"><g
                               id="g212"><g
                                 clip-path="url(#clipPath218)"
                                 id="g214"><path
                                   id="path232"
                                   style="fill:url(#linearGradient230);stroke:none"
                                   d="M 0,0 H 100 V 100 H 0 Z" /></g></g></g></g></g></g></g><path
                     id="path234"
                     style="fill:none;stroke:#8f6433;stroke-width:0.3985;stroke-linecap:butt;stroke-linejoin:miter;stroke-miterlimit:10;stroke-dasharray:none;stroke-opacity:1"
                     d="m 14.66255,27.2387 c -2.9237,6.26992 -8.97229,10.50495 -15.864,11.10787 -3.95839,0.34632 -7.92991,-0.53392 -11.37115,-2.52069 L -0.39052,23.38222 c 5.24697,3.02934 9.08629,4.90849 15.05307,3.85648 z" /></g><g
                   id="g236"><g
                     id="g238"><g
                       clip-path="url(#clipPath244)"
                       id="g240"><g
                         transform="matrix(0,0.59569,-0.45975,0,-11.88286,20.93517)"
                         id="g246"><g
                           id="g248"><g
                             transform="translate(-50,-50)"
                             id="g250"><g
                               id="g252"><g
                                 clip-path="url(#clipPath258)"
                                 id="g254"><path
                                   id="path272"
                                   style="fill:url(#linearGradient270);stroke:none"
                                   d="M 0,0 H 100 V 100 H 0 Z" /></g></g></g></g></g></g></g><path
                     id="path274"
                     style="fill:none;stroke:#8f6433;stroke-width:0.3985;stroke-linecap:butt;stroke-linejoin:bevel;stroke-miterlimit:10;stroke-dasharray:none;stroke-opacity:1"
                     d="m -12.5726,35.82588 c -7.04968,-4.0701 -10.80264,-12.11802 -9.38916,-20.13467 0.43306,-1.87592 3.04822,-9.64675 4.71554,-8.68415 0.19322,0.11153 0.3124,0.31783 0.3124,0.54097 0,0.16558 -0.06598,0.32467 -0.18303,0.44173 -4.50745,4.50748 -1.91338,10.50324 3.60719,7.31595 0,9.00489 4.11426,8.07651 13.11914,8.07651 z" /></g></g></g><g
               transform="translate(0,-40.919)"
               id="g276"><g
                 id="g278" /><g
                 transform="translate(0,40.919)"
                 id="g280" /></g></g></g></g></g></g></svg>