<?xml version="1.0" encoding="UTF-8" standalone="no"?>
<svg
   xmlns:dc="http://purl.org/dc/elements/1.1/"
   xmlns:cc="http://creativecommons.org/ns#"
   xmlns:rdf="http://www.w3.org/1999/02/22-rdf-syntax-ns#"
   xmlns:svg="http://www.w3.org/2000/svg"
   xmlns="http://www.w3.org/2000/svg"
   viewBox="0 0 108.59867 111.536"
   height="111.536"
   width="108.59867"
   xml:space="preserve"
   id="svg2"
   version="1.1"><metadata
     id="metadata8"><rdf:RDF><cc:Work
         rdf:about=""><dc:format>image/svg+xml</dc:format><dc:type
           rdf:resource="http://purl.org/dc/dcmitype/StillImage" /></cc:Work></rdf:RDF></metadata><defs
     id="defs6"><clipPath
       id="clipPath44"
       clipPathUnits="userSpaceOnUse"><path
         id="path42"
         d="m -37.02054,28.40327 c -1.668,-1.98779 -3.02931,-3.84771 -2.14172,-6.28607 -2.66429,4.6147 -3.20041,8.6246 -1.37801,13.63178 5.24755,-0.92534 8.45215,-3.39463 11.11644,-8.00933 -0.88759,2.43837 -3.95929,1.73891 -6.51475,1.28829" /></clipPath><clipPath
       id="clipPath58"
       clipPathUnits="userSpaceOnUse"><path
         id="path56"
         d="M 0,0 H 100 V 100 H 0 Z" /></clipPath><linearGradient
       id="linearGradient70"
       gradientUnits="userSpaceOnUse"
       y2="100.00128"
       x2="0"
       y1="0"
       x1="0"><stop
         id="stop60"
         offset="0"
         style="stop-opacity:1;stop-color:#e05d51" /><stop
         id="stop62"
         offset="25.00032"
         style="stop-opacity:1;stop-color:#e05d51" /><stop
         id="stop64"
         offset="50.00064"
         style="stop-opacity:1;stop-color:#e67b72" /><stop
         id="stop66"
         offset="75.00096"
         style="stop-opacity:1;stop-color:#eb9a93" /><stop
         id="stop68"
         offset="100.00128"
         style="stop-opacity:1;stop-color:#eb9a93" /></linearGradient><clipPath
       id="clipPath84"
       clipPathUnits="userSpaceOnUse"><path
         id="path82"
         d="m -27.87833,-30.92381 c 12.49448,-12.49448 43.73066,-6.24724 56.22513,6.24724 0,43.73065 -62.47236,43.73065 -56.22513,-6.24724 z" /></clipPath><clipPath
       id="clipPath98"
       clipPathUnits="userSpaceOnUse"><path
         id="path96"
         d="M 0,0 H 100 V 100 H 0 Z" /></clipPath><linearGradient
       id="linearGradient110"
       gradientUnits="userSpaceOnUse"
       y2="100.00128"
       x2="0"
       y1="0"
       x1="0"><stop
         id="stop100"
         offset="0"
         style="stop-opacity:1;stop-color:#333333" /><stop
         id="stop102"
         offset="25.00032"
         style="stop-opacity:1;stop-color:#333333" /><stop
         id="stop104"
         offset="50.00064"
         style="stop-opacity:1;stop-color:#666666" /><stop
         id="stop106"
         offset="75.00096"
         style="stop-opacity:1;stop-color:#999999" /><stop
         id="stop108"
         offset="100.00128"
         style="stop-opacity:1;stop-color:#999999" /></linearGradient><clipPath
       id="clipPath122"
       clipPathUnits="userSpaceOnUse"><path
         id="path120"
         d="m -27.87833,-30.92381 c 12.49448,-12.49448 43.73066,-6.24724 56.22513,6.24724 0,43.73065 -62.47236,43.73065 -56.22513,-6.24724 z" /></clipPath><clipPath
       id="clipPath132"
       clipPathUnits="userSpaceOnUse"><path
         id="path130"
         d="m -14.75908,12.80684 c 6.85931,-18.8457 7.85547,-31.47676 4.37305,-51.22731 l 35.60921,1.24942 C 14.83139,-19.1719 10.71513,-7.6611 7.10622,12.80684" /></clipPath><clipPath
       id="clipPath146"
       clipPathUnits="userSpaceOnUse"><path
         id="path144"
         d="M 0,0 H 100 V 100 H 0 Z" /></clipPath><linearGradient
       id="linearGradient158"
       gradientUnits="userSpaceOnUse"
       y2="100.00128"
       x2="0"
       y1="0"
       x1="0"><stop
         id="stop148"
         offset="0"
         style="stop-opacity:1;stop-color:#e05d51" /><stop
         id="stop150"
         offset="25.00032"
         style="stop-opacity:1;stop-color:#e05d51" /><stop
         id="stop152"
         offset="50.00064"
         style="stop-opacity:1;stop-color:#e67b72" /><stop
         id="stop154"
         offset="75.00096"
         style="stop-opacity:1;stop-color:#eb9a93" /><stop
         id="stop156"
         offset="100.00128"
         style="stop-opacity:1;stop-color:#eb9a93" /></linearGradient><clipPath
       id="clipPath176"
       clipPathUnits="userSpaceOnUse"><path
         id="path174"
         d="m 9.0746,29.09325 c 6.06287,0 11.252,4.35409 12.30476,10.32489 0,0.13792 0.11193,0.24983 0.24985,0.24983 0.13793,0 0.24985,-0.11191 0.24985,-0.24983 C 20.59656,32.14453 16.1602,25.8091 9.76398,22.1162 8.82628,24.69266 8.13689,26.5168 9.0746,29.09325 Z" /></clipPath><clipPath
       id="clipPath190"
       clipPathUnits="userSpaceOnUse"><path
         id="path188"
         d="M 0,0 H 100 V 100 H 0 Z" /></clipPath><linearGradient
       id="linearGradient202"
       gradientUnits="userSpaceOnUse"
       y2="100.00128"
       x2="0"
       y1="0"
       x1="0"><stop
         id="stop192"
         offset="0"
         style="stop-opacity:1;stop-color:#e05d51" /><stop
         id="stop194"
         offset="25.00032"
         style="stop-opacity:1;stop-color:#e05d51" /><stop
         id="stop196"
         offset="50.00064"
         style="stop-opacity:1;stop-color:#e67b72" /><stop
         id="stop198"
         offset="75.00096"
         style="stop-opacity:1;stop-color:#eb9a93" /><stop
         id="stop200"
         offset="100.00128"
         style="stop-opacity:1;stop-color:#eb9a93" /></linearGradient><clipPath
       id="clipPath216"
       clipPathUnits="userSpaceOnUse"><path
         id="path214"
         d="m 15.85233,19.05408 c 0,10.35089 -8.39083,18.74171 -18.7417,18.74171 -10.35089,0 -18.74172,-8.39082 -18.74172,-18.74171 0,-10.35089 8.39083,-18.74172 18.74172,-18.74172 10.35087,0 18.7417,8.39083 18.7417,18.74172 z" /></clipPath><clipPath
       id="clipPath230"
       clipPathUnits="userSpaceOnUse"><path
         id="path228"
         d="M 0,0 H 100 V 100 H 0 Z" /></clipPath><linearGradient
       id="linearGradient242"
       gradientUnits="userSpaceOnUse"
       y2="100.00128"
       x2="0"
       y1="0"
       x1="0"><stop
         id="stop232"
         offset="0"
         style="stop-opacity:1;stop-color:#e05d51" /><stop
         id="stop234"
         offset="25.00032"
         style="stop-opacity:1;stop-color:#e05d51" /><stop
         id="stop236"
         offset="50.00064"
         style="stop-opacity:1;stop-color:#e67b72" /><stop
         id="stop238"
         offset="75.00096"
         style="stop-opacity:1;stop-color:#eb9a93" /><stop
         id="stop240"
         offset="100.00128"
         style="stop-opacity:1;stop-color:#eb9a93" /></linearGradient><clipPath
       id="clipPath256"
       clipPathUnits="userSpaceOnUse"><path
         id="path254"
         d="M 15.21373,23.90479 C 12.53482,33.90297 2.25809,39.83612 -7.74008,37.1572 -14.20685,35.42448 -19.25978,30.37155 -20.9925,23.90479 -22.2787,19.1045 -21.60504,13.98706 -19.12021,9.68323 h 1.87419 l 0.62476,3.12361 c 0.80313,-0.95706 0.80313,-0.95706 1.24943,-3.74837 h 2.49886 c 0,6.24724 0,6.24724 -0.63669,12.49446 11.07402,-1.95256 18.98516,-3.27051 28.72339,2.35186 z" /></clipPath><clipPath
       id="clipPath270"
       clipPathUnits="userSpaceOnUse"><path
         id="path268"
         d="M 0,0 H 100 V 100 H 0 Z" /></clipPath><linearGradient
       id="linearGradient282"
       gradientUnits="userSpaceOnUse"
       y2="100.00128"
       x2="0"
       y1="0"
       x1="0"><stop
         id="stop272"
         offset="0"
         style="stop-opacity:1;stop-color:#333333" /><stop
         id="stop274"
         offset="25.00032"
         style="stop-opacity:1;stop-color:#333333" /><stop
         id="stop276"
         offset="50.00064"
         style="stop-opacity:1;stop-color:#666666" /><stop
         id="stop278"
         offset="75.00096"
         style="stop-opacity:1;stop-color:#999999" /><stop
         id="stop280"
         offset="100.00128"
         style="stop-opacity:1;stop-color:#999999" /></linearGradient><clipPath
       id="clipPath296"
       clipPathUnits="userSpaceOnUse"><path
         id="path294"
         d="m 0.84972,8.78085 6.2234,0.5445 C 8.96352,9.49072 10.61789,8.23161 10.76823,6.5131 L 11.04051,3.4014 C 11.19086,1.68289 9.78026,0.15562 7.88986,-0.00974 l -6.2234,-0.5445 c -1.89038,-0.16538 -3.54474,1.0937 -3.6951,2.81221 l -0.27225,3.11172 c -0.15034,1.71852 1.26024,3.24577 3.15062,3.41116 M 2.17998,7.0159 C 0.63333,6.88058 -0.54738,5.93495 -0.45718,4.90385 -0.36697,3.87277 0.96002,3.14653 2.50667,3.28185 L 6.24074,3.60852 C 7.78737,3.74384 8.96811,4.68947 8.8779,5.72055 8.78769,6.75165 7.46068,7.47789 5.91405,7.34258 L 2.17998,7.0159" /></clipPath><clipPath
       id="clipPath310"
       clipPathUnits="userSpaceOnUse"><path
         id="path308"
         d="M 0,0 H 100 V 100 H 0 Z" /></clipPath><linearGradient
       id="linearGradient322"
       gradientUnits="userSpaceOnUse"
       y2="100.00128"
       x2="0"
       y1="0"
       x1="0"><stop
         id="stop312"
         offset="0"
         style="stop-opacity:1;stop-color:#333333" /><stop
         id="stop314"
         offset="25.00032"
         style="stop-opacity:1;stop-color:#333333" /><stop
         id="stop316"
         offset="50.00064"
         style="stop-opacity:1;stop-color:#666666" /><stop
         id="stop318"
         offset="75.00096"
         style="stop-opacity:1;stop-color:#999999" /><stop
         id="stop320"
         offset="100.00128"
         style="stop-opacity:1;stop-color:#999999" /></linearGradient><clipPath
       id="clipPath336"
       clipPathUnits="userSpaceOnUse"><path
         id="path334"
         d="m -14.85336,29.09325 c -6.06287,0 -11.252,4.35409 -12.30477,10.32489 0,0.13792 -0.11192,0.24983 -0.24984,0.24983 -0.13793,0 -0.24985,-0.11191 -0.24985,-0.24983 1.2825,-7.27361 5.71887,-13.60904 12.11508,-17.30194 0.9377,2.57646 1.62711,4.4006 0.68938,6.97705 z" /></clipPath><clipPath
       id="clipPath350"
       clipPathUnits="userSpaceOnUse"><path
         id="path348"
         d="M 0,0 H 100 V 100 H 0 Z" /></clipPath><linearGradient
       id="linearGradient362"
       gradientUnits="userSpaceOnUse"
       y2="100.00128"
       x2="0"
       y1="0"
       x1="0"><stop
         id="stop352"
         offset="0"
         style="stop-opacity:1;stop-color:#e05d51" /><stop
         id="stop354"
         offset="25.00032"
         style="stop-opacity:1;stop-color:#e05d51" /><stop
         id="stop356"
         offset="50.00064"
         style="stop-opacity:1;stop-color:#e67b72" /><stop
         id="stop358"
         offset="75.00096"
         style="stop-opacity:1;stop-color:#eb9a93" /><stop
         id="stop360"
         offset="100.00128"
         style="stop-opacity:1;stop-color:#eb9a93" /></linearGradient></defs><g
     transform="matrix(1.3333333,0,0,-1.3333333,0,111.536)"
     id="g10"><g
       transform="translate(52.904,43.617)"
       id="g12"><g
         id="g14"><g
           id="g16"><g
             id="g18"><g
               id="g20"><g
                 id="g22"><g
                   id="g24"><g
                     id="g26"><path
                       id="path28"
                       style="fill:none;stroke:#e05d51;stroke-width:3.29585004;stroke-linecap:butt;stroke-linejoin:miter;stroke-miterlimit:10;stroke-dasharray:none;stroke-opacity:1"
                       d="m -17.84637,-22.03949 c 1.47953,8.39129 -5.66358,18.22916 -14.05488,16.7496 -17.99378,-3.17271 -19.35502,12.38581 -1.36123,15.55852 14.39993,2.53899 4.05656,5.79416 -3.2544,18.45714" /><g
                       id="g30"><path
                         id="path32"
                         style="fill:none;stroke:#e47167;stroke-width:2.49885988;stroke-linecap:butt;stroke-linejoin:miter;stroke-miterlimit:10;stroke-dasharray:none;stroke-opacity:1"
                         d="m -17.84637,-22.03949 c 1.47953,8.39129 -5.66358,18.22916 -14.05488,16.7496 -17.99378,-3.17271 -19.35502,12.38581 -1.36123,15.55852 14.39993,2.53899 4.05656,5.79416 -3.2544,18.45714" /></g></g><g
                     id="g34" /></g><g
                   id="g36"><g
                     id="g38"><g
                       clip-path="url(#clipPath44)"
                       id="g40"><g
                         transform="matrix(0.2588,0,0,0.27266,-35.89325,28.93307)"
                         id="g46"><g
                           id="g48"><g
                             transform="translate(-50,-50)"
                             id="g50"><g
                               id="g52"><g
                                 clip-path="url(#clipPath58)"
                                 id="g54"><path
                                   id="path72"
                                   style="fill:url(#linearGradient70);stroke:none"
                                   d="M 0,0 H 100 V 100 H 0 Z" /></g></g></g></g></g></g></g><path
                     id="path74"
                     style="fill:none;stroke:#e05d51;stroke-width:0.3985;stroke-linecap:butt;stroke-linejoin:miter;stroke-miterlimit:10;stroke-dasharray:none;stroke-opacity:1"
                     d="m -37.02054,28.40327 c -1.668,-1.98779 -3.02931,-3.84771 -2.14172,-6.28607 -2.66429,4.6147 -3.20041,8.6246 -1.37801,13.63178 5.24755,-0.92534 8.45215,-3.39463 11.11644,-8.00933 -0.88759,2.43837 -3.95929,1.73891 -6.51475,1.28829" /></g><g
                   id="g76"><g
                     id="g78"><g
                       clip-path="url(#clipPath84)"
                       id="g80"><g
                         transform="matrix(0.88358509,0.88358509,-0.88358509,0.88358509,-2.88937,-12.1821)"
                         id="g86"><g
                           id="g88"><g
                             transform="translate(-50,-50)"
                             id="g90"><g
                               id="g92"><g
                                 clip-path="url(#clipPath98)"
                                 id="g94"><path
                                   id="path112"
                                   style="fill:url(#linearGradient110);stroke:none"
                                   d="M 0,0 H 100 V 100 H 0 Z" /></g></g></g></g></g></g></g><path
                     id="path114"
                     style="fill:none;stroke:#333333;stroke-width:0.3985;stroke-linecap:butt;stroke-linejoin:miter;stroke-miterlimit:10;stroke-dasharray:none;stroke-opacity:1"
                     d="m -27.87833,-30.92381 c 12.49448,-12.49448 43.73066,-6.24724 56.22513,6.24724 0,43.73065 -62.47236,43.73065 -56.22513,-6.24724 z" /></g><g
                   id="g116"><g
                     clip-path="url(#clipPath122)"
                     id="g118"><g
                       id="g124"><g
                         id="g126"><g
                           clip-path="url(#clipPath132)"
                           id="g128"><g
                             transform="matrix(0.79973,0,0,1.02466,5.23204,-12.80681)"
                             id="g134"><g
                               id="g136"><g
                                 transform="translate(-50,-50)"
                                 id="g138"><g
                                   id="g140"><g
                                   clip-path="url(#clipPath146)"
                                   id="g142"><path
                                   id="path160"
                                   style="fill:url(#linearGradient158);stroke:none"
                                   d="M 0,0 H 100 V 100 H 0 Z" /></g></g></g></g></g></g></g><path
                         id="path162"
                         style="fill:none;stroke:#e05d51;stroke-width:0.3985;stroke-linecap:butt;stroke-linejoin:miter;stroke-miterlimit:10;stroke-dasharray:none;stroke-opacity:1"
                         d="m -14.75908,12.80684 c 6.85931,-18.8457 7.85547,-31.47676 4.37305,-51.22731 l 35.60921,1.24942 C 14.83139,-19.1719 10.71513,-7.6611 7.10622,12.80684" /></g><g
                       id="g164"><path
                         id="path166"
                         style="fill:none;stroke:#333333;stroke-width:0.3985;stroke-linecap:butt;stroke-linejoin:miter;stroke-miterlimit:10;stroke-dasharray:none;stroke-opacity:1"
                         d="m -27.87833,-30.92381 c 12.49448,-12.49448 43.73066,-6.24724 56.22513,6.24724 0,43.73065 -62.47236,43.73065 -56.22513,-6.24724 z" /></g></g></g><g
                   id="g168"><g
                     id="g170"><g
                       clip-path="url(#clipPath176)"
                       id="g172"><g
                         transform="matrix(0.27487,0,0,0.35107,15.00797,30.89209)"
                         id="g178"><g
                           id="g180"><g
                             transform="translate(-50,-50)"
                             id="g182"><g
                               id="g184"><g
                                 clip-path="url(#clipPath190)"
                                 id="g186"><path
                                   id="path204"
                                   style="fill:url(#linearGradient202);stroke:none"
                                   d="M 0,0 H 100 V 100 H 0 Z" /></g></g></g></g></g></g></g><path
                     id="path206"
                     style="fill:none;stroke:#e05d51;stroke-width:0.3985;stroke-linecap:butt;stroke-linejoin:miter;stroke-miterlimit:10;stroke-dasharray:none;stroke-opacity:1"
                     d="m 9.0746,29.09325 c 6.06287,0 11.252,4.35409 12.30476,10.32489 0,0.13792 0.11193,0.24983 0.24985,0.24983 0.13793,0 0.24985,-0.11191 0.24985,-0.24983 C 20.59656,32.14453 16.1602,25.8091 9.76398,22.1162 8.82628,24.69266 8.13689,26.5168 9.0746,29.09325 Z" /></g><g
                   id="g208"><g
                     id="g210"><g
                       clip-path="url(#clipPath216)"
                       id="g212"><g
                         transform="matrix(0.74976,0,0,0.74976,-2.88937,19.05408)"
                         id="g218"><g
                           id="g220"><g
                             transform="translate(-50,-50)"
                             id="g222"><g
                               id="g224"><g
                                 clip-path="url(#clipPath230)"
                                 id="g226"><path
                                   id="path244"
                                   style="fill:url(#linearGradient242);stroke:none"
                                   d="M 0,0 H 100 V 100 H 0 Z" /></g></g></g></g></g></g></g><path
                     id="path246"
                     style="fill:none;stroke:#e05d51;stroke-width:0.3985;stroke-linecap:butt;stroke-linejoin:miter;stroke-miterlimit:10;stroke-dasharray:none;stroke-opacity:1"
                     d="m 15.85233,19.05408 c 0,10.35089 -8.39083,18.74171 -18.7417,18.74171 -10.35089,0 -18.74172,-8.39082 -18.74172,-18.74171 0,-10.35089 8.39083,-18.74172 18.74172,-18.74172 10.35087,0 18.7417,8.39083 18.7417,18.74172 z" /></g><g
                   id="g248"><g
                     id="g250"><g
                       clip-path="url(#clipPath256)"
                       id="g252"><g
                         transform="matrix(0.53028257,0.4353049,-0.53028257,0.4353049,-3.53247,24.44728)"
                         id="g258"><g
                           id="g260"><g
                             transform="translate(-50,-50)"
                             id="g262"><g
                               id="g264"><g
                                 clip-path="url(#clipPath270)"
                                 id="g266"><path
                                   id="path284"
                                   style="fill:url(#linearGradient282);stroke:none"
                                   d="M 0,0 H 100 V 100 H 0 Z" /></g></g></g></g></g></g></g><path
                     id="path286"
                     style="fill:none;stroke:#333333;stroke-width:0.3985;stroke-linecap:butt;stroke-linejoin:miter;stroke-miterlimit:10;stroke-dasharray:none;stroke-opacity:1"
                     d="M 15.21373,23.90479 C 12.53482,33.90297 2.25809,39.83612 -7.74008,37.1572 -14.20685,35.42448 -19.25978,30.37155 -20.9925,23.90479 -22.2787,19.1045 -21.60504,13.98706 -19.12021,9.68323 h 1.87419 l 0.62476,3.12361 c 0.80313,-0.95706 0.80313,-0.95706 1.24943,-3.74837 h 2.49886 c 0,6.24724 0,6.24724 -0.63669,12.49446 11.07402,-1.95256 18.98516,-3.27051 28.72339,2.35186 z" /></g><g
                   id="g288"><g
                     id="g290"><g
                       clip-path="url(#clipPath296)"
                       id="g292"><g
                         transform="matrix(0.19294638,0.14440396,-0.19294638,0.14440396,4.3698,4.38553)"
                         id="g298"><g
                           id="g300"><g
                             transform="translate(-50,-50)"
                             id="g302"><g
                               id="g304"><g
                                 clip-path="url(#clipPath310)"
                                 id="g306"><path
                                   id="path324"
                                   style="fill:url(#linearGradient322);stroke:none"
                                   d="M 0,0 H 100 V 100 H 0 Z" /></g></g></g></g></g></g></g><path
                     id="path326"
                     style="fill:none;stroke:#333333;stroke-width:0.3985;stroke-linecap:butt;stroke-linejoin:miter;stroke-miterlimit:10;stroke-dasharray:none;stroke-opacity:1"
                     d="m 0.84972,8.78085 6.2234,0.5445 C 8.96352,9.49072 10.61789,8.23161 10.76823,6.5131 L 11.04051,3.4014 C 11.19086,1.68289 9.78026,0.15562 7.88986,-0.00974 l -6.2234,-0.5445 c -1.89038,-0.16538 -3.54474,1.0937 -3.6951,2.81221 l -0.27225,3.11172 c -0.15034,1.71852 1.26024,3.24577 3.15062,3.41116 M 2.17998,7.0159 C 0.63333,6.88058 -0.54738,5.93495 -0.45718,4.90385 -0.36697,3.87277 0.96002,3.14653 2.50667,3.28185 L 6.24074,3.60852 C 7.78737,3.74384 8.96811,4.68947 8.8779,5.72055 8.78769,6.75165 7.46068,7.47789 5.91405,7.34258 L 2.17998,7.0159" /></g><g
                   id="g328"><g
                     id="g330"><g
                       clip-path="url(#clipPath336)"
                       id="g332"><g
                         transform="matrix(0.27487,0,0,0.35107,-20.78673,30.89209)"
                         id="g338"><g
                           id="g340"><g
                             transform="translate(-50,-50)"
                             id="g342"><g
                               id="g344"><g
                                 clip-path="url(#clipPath350)"
                                 id="g346"><path
                                   id="path364"
                                   style="fill:url(#linearGradient362);stroke:none"
                                   d="M 0,0 H 100 V 100 H 0 Z" /></g></g></g></g></g></g></g><path
                     id="path366"
                     style="fill:none;stroke:#e05d51;stroke-width:0.3985;stroke-linecap:butt;stroke-linejoin:miter;stroke-miterlimit:10;stroke-dasharray:none;stroke-opacity:1"
                     d="m -14.85336,29.09325 c -6.06287,0 -11.252,4.35409 -12.30477,10.32489 0,0.13792 -0.11192,0.24983 -0.24984,0.24983 -0.13793,0 -0.24985,-0.11191 -0.24985,-0.24983 1.2825,-7.27361 5.71887,-13.60904 12.11508,-17.30194 0.9377,2.57646 1.62711,4.4006 0.68938,6.97705 z" /></g></g></g><g
               transform="translate(0,-40.919)"
               id="g368"><g
                 id="g370" /><g
                 transform="translate(0,40.919)"
                 id="g372" /></g></g></g></g></g></g></svg>