<?xml version="1.0" encoding="UTF-8" standalone="no"?>
<svg
   xmlns:dc="http://purl.org/dc/elements/1.1/"
   xmlns:cc="http://creativecommons.org/ns#"
   xmlns:rdf="http://www.w3.org/1999/02/22-rdf-syntax-ns#"
   xmlns:svg="http://www.w3.org/2000/svg"
   xmlns="http://www.w3.org/2000/svg"
   viewBox="0 0 83.826668 112.30667"
   height="112.30667"
   width="83.826668"
   xml:space="preserve"
   id="svg2"
   version="1.1"><metadata
     id="metadata8"><rdf:RDF><cc:Work
         rdf:about=""><dc:format>image/svg+xml</dc:format><dc:type
           rdf:resource="http://purl.org/dc/dcmitype/StillImage" /></cc:Work></rdf:RDF></metadata><defs
     id="defs6"><clipPath
       id="clipPath32"
       clipPathUnits="userSpaceOnUse"><path
         id="path30"
         d="m -27.87833,-30.92381 c 12.49448,-12.49448 43.73066,-6.24724 56.22513,6.24724 0,43.73065 -62.47236,43.73065 -56.22513,-6.24724 z" /></clipPath><clipPath
       id="clipPath46"
       clipPathUnits="userSpaceOnUse"><path
         id="path44"
         d="M 0,0 H 100 V 100 H 0 Z" /></clipPath><linearGradient
       id="linearGradient58"
       gradientUnits="userSpaceOnUse"
       y2="100.00128"
       x2="0"
       y1="0"
       x1="0"><stop
         id="stop48"
         offset="0"
         style="stop-opacity:1;stop-color:#fdb933" /><stop
         id="stop50"
         offset="25.00032"
         style="stop-opacity:1;stop-color:#fdb933" /><stop
         id="stop52"
         offset="50.00064"
         style="stop-opacity:1;stop-color:#fdca66" /><stop
         id="stop54"
         offset="75.00096"
         style="stop-opacity:1;stop-color:#fedc99" /><stop
         id="stop56"
         offset="100.00128"
         style="stop-opacity:1;stop-color:#fedc99" /></linearGradient><clipPath
       id="clipPath70"
       clipPathUnits="userSpaceOnUse"><path
         id="path68"
         d="m -27.87833,-30.92381 c 12.49448,-12.49448 43.73066,-6.24724 56.22513,6.24724 0,43.73065 -62.47236,43.73065 -56.22513,-6.24724" /></clipPath><clipPath
       id="clipPath92"
       clipPathUnits="userSpaceOnUse"><path
         id="path90"
         d="m 15.85233,19.05408 c 0,10.35089 -8.39083,18.74171 -18.7417,18.74171 -10.35089,0 -18.74172,-8.39082 -18.74172,-18.74171 0,-10.35089 8.39083,-18.74172 18.74172,-18.74172 10.35087,0 18.7417,8.39083 18.7417,18.74172 z" /></clipPath><clipPath
       id="clipPath106"
       clipPathUnits="userSpaceOnUse"><path
         id="path104"
         d="M 0,0 H 100 V 100 H 0 Z" /></clipPath><linearGradient
       id="linearGradient118"
       gradientUnits="userSpaceOnUse"
       y2="100.00128"
       x2="0"
       y1="0"
       x1="0"><stop
         id="stop108"
         offset="0"
         style="stop-opacity:1;stop-color:#fdb933" /><stop
         id="stop110"
         offset="25.00032"
         style="stop-opacity:1;stop-color:#fdb933" /><stop
         id="stop112"
         offset="50.00064"
         style="stop-opacity:1;stop-color:#fdca66" /><stop
         id="stop114"
         offset="75.00096"
         style="stop-opacity:1;stop-color:#fedc99" /><stop
         id="stop116"
         offset="100.00128"
         style="stop-opacity:1;stop-color:#fedc99" /></linearGradient><clipPath
       id="clipPath150"
       clipPathUnits="userSpaceOnUse"><path
         id="path148"
         d="M -4.10706,8.38663 C 4.30461,1.32825 13.12791,8.36316 23.942,10.26985" /></clipPath><clipPath
       id="clipPath164"
       clipPathUnits="userSpaceOnUse"><path
         id="path162"
         d="M 0,0 H 100 V 100 H 0 Z" /></clipPath><linearGradient
       id="linearGradient176"
       gradientUnits="userSpaceOnUse"
       y2="100.00128"
       x2="0"
       y1="0"
       x1="0"><stop
         id="stop166"
         offset="0"
         style="stop-opacity:1;stop-color:#f97142" /><stop
         id="stop168"
         offset="25.00032"
         style="stop-opacity:1;stop-color:#f97142" /><stop
         id="stop170"
         offset="50.00064"
         style="stop-opacity:1;stop-color:#fa8c66" /><stop
         id="stop172"
         offset="75.00096"
         style="stop-opacity:1;stop-color:#fba789" /><stop
         id="stop174"
         offset="100.00128"
         style="stop-opacity:1;stop-color:#fba789" /></linearGradient><clipPath
       id="clipPath190"
       clipPathUnits="userSpaceOnUse"><path
         id="path188"
         d="M 13.37854,7.17435 C 17.75462,7.55719 20.34357,8.49966 23.942,11.01932 19.61584,11.7821 17.70467,7.93716 13.37854,7.17435 Z" /></clipPath><clipPath
       id="clipPath204"
       clipPathUnits="userSpaceOnUse"><path
         id="path202"
         d="M 0,0 H 100 V 100 H 0 Z" /></clipPath><radialGradient
       id="radialGradient212"
       gradientUnits="userSpaceOnUse"
       r="50.000641"
       cy="50.000641"
       cx="50.000641"
       fy="50.000641"
       fx="50.000641"><stop
         id="stop206"
         offset="0"
         style="stop-opacity:1;stop-color:#f8513b" /><stop
         id="stop208"
         offset="25.00032"
         style="stop-opacity:1;stop-color:#f86b41" /><stop
         id="stop210"
         offset="50.00064"
         style="stop-opacity:1;stop-color:#f86b41" /></radialGradient><clipPath
       id="clipPath226"
       clipPathUnits="userSpaceOnUse"><path
         id="path224"
         d="m -4.10706,9.13606 c 6.4576,-2.35034 10.71787,-3.15498 17.4856,-1.96171 4.37608,0.38284 6.96503,1.32531 10.56346,3.84497 0.29198,0 0.29198,-0.74947 0,-0.74947 C 20.56319,7.4347 17.78934,6.2377 13.37854,6.2377 6.61081,5.04442 2.35054,6.03627 -4.10706,8.38663 c -0.27434,0.09979 -0.27434,0.84924 0,0.74943 z" /></clipPath><clipPath
       id="clipPath240"
       clipPathUnits="userSpaceOnUse"><path
         id="path238"
         d="M 0,0 H 100 V 100 H 0 Z" /></clipPath><linearGradient
       id="linearGradient252"
       gradientUnits="userSpaceOnUse"
       y2="100.00128"
       x2="0"
       y1="0"
       x1="0"><stop
         id="stop242"
         offset="0"
         style="stop-opacity:1;stop-color:#f97142" /><stop
         id="stop244"
         offset="25.00032"
         style="stop-opacity:1;stop-color:#f97142" /><stop
         id="stop246"
         offset="50.00064"
         style="stop-opacity:1;stop-color:#fa8c66" /><stop
         id="stop248"
         offset="75.00096"
         style="stop-opacity:1;stop-color:#fba789" /><stop
         id="stop250"
         offset="100.00128"
         style="stop-opacity:1;stop-color:#fba789" /></linearGradient><clipPath
       id="clipPath266"
       clipPathUnits="userSpaceOnUse"><path
         id="path264"
         d="m -4.10706,9.13606 c 6.4576,-2.35034 10.71787,-3.15498 17.4856,-1.96171 4.39287,0 6.17059,3.84497 10.56346,3.84497 0.29198,0 0.29198,0.74934 0,0.74934 C 19.61584,12.53145 17.70467,8.6866 13.37854,7.92381 6.61081,6.73053 2.35054,7.53506 -4.10706,9.8854 c -0.27434,0.09981 -0.27434,-0.64953 0,-0.74934 z" /></clipPath><clipPath
       id="clipPath280"
       clipPathUnits="userSpaceOnUse"><path
         id="path278"
         d="M 0,0 H 100 V 100 H 0 Z" /></clipPath><linearGradient
       id="linearGradient292"
       gradientUnits="userSpaceOnUse"
       y2="100.00128"
       x2="0"
       y1="0"
       x1="0"><stop
         id="stop282"
         offset="0"
         style="stop-opacity:1;stop-color:#f97142" /><stop
         id="stop284"
         offset="25.00032"
         style="stop-opacity:1;stop-color:#f97142" /><stop
         id="stop286"
         offset="50.00064"
         style="stop-opacity:1;stop-color:#fa8c66" /><stop
         id="stop288"
         offset="75.00096"
         style="stop-opacity:1;stop-color:#fba789" /><stop
         id="stop290"
         offset="100.00128"
         style="stop-opacity:1;stop-color:#fba789" /></linearGradient><clipPath
       id="clipPath306"
       clipPathUnits="userSpaceOnUse"><path
         id="path304"
         d="m -4.10706,9.8854 c 6.4576,-2.35034 10.71787,-3.15487 17.4856,-1.96159 4.32613,0.76279 6.2373,4.60764 10.56346,3.84485 -3.40463,1.23923 -6.08214,-0.93628 -9.21986,0.87528 -3.179,0 -4.65654,2.26054 -7.83554,2.26054 -4.70812,0 -5.34403,-5.01908 -10.99366,-5.01908 z" /></clipPath><clipPath
       id="clipPath320"
       clipPathUnits="userSpaceOnUse"><path
         id="path318"
         d="M 0,0 H 100 V 100 H 0 Z" /></clipPath><linearGradient
       id="linearGradient332"
       gradientUnits="userSpaceOnUse"
       y2="100.00128"
       x2="0"
       y1="0"
       x1="0"><stop
         id="stop322"
         offset="0"
         style="stop-opacity:1;stop-color:#f97142" /><stop
         id="stop324"
         offset="25.00032"
         style="stop-opacity:1;stop-color:#f97142" /><stop
         id="stop326"
         offset="50.00064"
         style="stop-opacity:1;stop-color:#fa8c66" /><stop
         id="stop328"
         offset="75.00096"
         style="stop-opacity:1;stop-color:#fba789" /><stop
         id="stop330"
         offset="100.00128"
         style="stop-opacity:1;stop-color:#fba789" /></linearGradient><clipPath
       id="clipPath346"
       clipPathUnits="userSpaceOnUse"><path
         id="path344"
         d="M 14.09642,26.97475 C 9.72194,36.3558 -1.429,40.41437 -10.81004,36.03989 -16.87769,33.21045 -20.9761,27.35698 -21.55959,20.68756 c -0.33515,-3.83082 0.51668,-7.67406 2.43938,-11.00433 l -0.01201,6.24724 5.62256,-3.12363 v 11.24504 c 10.68471,-1.88393 18.21025,-2.50182 27.60608,2.92287 z" /></clipPath><clipPath
       id="clipPath360"
       clipPathUnits="userSpaceOnUse"><path
         id="path358"
         d="M 0,0 H 100 V 100 H 0 Z" /></clipPath><linearGradient
       id="linearGradient372"
       gradientUnits="userSpaceOnUse"
       y2="100.00128"
       x2="0"
       y1="0"
       x1="0"><stop
         id="stop362"
         offset="0"
         style="stop-opacity:1;stop-color:#333333" /><stop
         id="stop364"
         offset="25.00032"
         style="stop-opacity:1;stop-color:#333333" /><stop
         id="stop366"
         offset="50.00064"
         style="stop-opacity:1;stop-color:#666666" /><stop
         id="stop368"
         offset="75.00096"
         style="stop-opacity:1;stop-color:#999999" /><stop
         id="stop370"
         offset="100.00128"
         style="stop-opacity:1;stop-color:#999999" /></linearGradient></defs><g
     transform="matrix(1.3333333,0,0,-1.3333333,0,112.30667)"
     id="g10"><g
       transform="translate(34.324,43.617)"
       id="g12"><g
         id="g14"><g
           id="g16"><g
             id="g18"><g
               id="g20"><g
                 id="g22"><g
                   id="g24"><g
                     id="g26"><g
                       clip-path="url(#clipPath32)"
                       id="g28"><g
                         transform="matrix(0.88358509,0.88358509,-0.88358509,0.88358509,-2.88937,-12.1821)"
                         id="g34"><g
                           id="g36"><g
                             transform="translate(-50,-50)"
                             id="g38"><g
                               id="g40"><g
                                 clip-path="url(#clipPath46)"
                                 id="g42"><path
                                   id="path60"
                                   style="fill:url(#linearGradient58);stroke:none"
                                   d="M 0,0 H 100 V 100 H 0 Z" /></g></g></g></g></g></g></g><path
                     id="path62"
                     style="fill:none;stroke:#fdb933;stroke-width:0.3985;stroke-linecap:butt;stroke-linejoin:miter;stroke-miterlimit:10;stroke-dasharray:none;stroke-opacity:1"
                     d="m -27.87833,-30.92381 c 12.49448,-12.49448 43.73066,-6.24724 56.22513,6.24724 0,43.73065 -62.47236,43.73065 -56.22513,-6.24724 z" /></g><g
                   id="g64"><g
                     clip-path="url(#clipPath70)"
                     id="g66"><g
                       id="g72"><path
                         id="path74"
                         style="fill:none;stroke:#fdb933;stroke-width:0.31235999;stroke-linecap:butt;stroke-linejoin:miter;stroke-miterlimit:10;stroke-dasharray:none;stroke-opacity:1"
                         d="m -24.7547,-7.18428 1.99912,-0.06249 -0.44465,-3.78779 4.0104,1.12676 0.77059,-3.77955 3.52675,2.12587 1.59867,-3.56523 3.04748,2.71306 2.1444,-3.29635 2.64825,3.07534 2.52329,-3.03534 2.30722,3.32634 2.81016,-2.78607 1.99294,3.51929 3.04483,-2.53362 1.68028,3.67978 3.25308,-2.25494 1.33704,3.82565 3.45408,-1.91525 0.8971,3.95918 3.66264,-1.41896 0.21538,4.09715 1.8284,-0.35068 0.42105,0.46152" /></g><g
                       id="g76"><path
                         id="path78"
                         style="fill:none;stroke:#fdb933;stroke-width:0.31235999;stroke-linecap:butt;stroke-linejoin:miter;stroke-miterlimit:10;stroke-dasharray:none;stroke-opacity:1"
                         d="m -29.12775,-16.55515 1.98401,0.31664 0.07445,-3.88101 3.86031,1.42001 0.89514,-3.80511 3.50096,2.11621 1.52835,-3.61721 3.13066,2.59881 2.00499,-3.39063 2.78841,2.94434 2.37027,-3.15898 2.47279,3.20266 2.66057,-2.92798 2.17724,3.40761 2.90072,-2.69551 1.88729,3.57295 3.1142,-2.45145 1.58646,3.71644 3.30795,-2.18194 1.25865,3.8504 3.4894,-1.86974 0.86633,3.96237 3.66534,-1.45895 0.35289,4.06147 3.82489,-0.88183 -0.14682,2.10098 0.04491,0.04726" /></g><g
                       id="g80"><path
                         id="path82"
                         style="fill:none;stroke:#fdb933;stroke-width:0.31235999;stroke-linecap:butt;stroke-linejoin:miter;stroke-miterlimit:10;stroke-dasharray:none;stroke-opacity:1"
                         d="m -29.7525,-25.926 1.97694,0.36042 0.1398,-3.89442 3.83739,1.46652 0.91852,-3.79943 3.4928,2.11968 1.53187,-3.61743 3.1324,2.59617 2.00072,-3.39441 2.79324,2.9401 2.36469,-3.16336 2.47821,3.19844 2.65535,-2.93219 2.18341,3.40306 2.89761,-2.70284 1.8947,3.5681 3.10521,-2.46109 1.6077,3.70758 3.29362,-2.20988 1.2986,3.83093 3.46364,-1.9248 0.95593,3.93219 3.62456,-1.58481 0.54811,4.01611 3.76669,-1.15463 0.03136,4.07106 1.88988,-0.33765 0.21638,0.21384" /></g></g></g><g
                   id="g84"><g
                     id="g86"><g
                       clip-path="url(#clipPath92)"
                       id="g88"><g
                         transform="matrix(0.5301553,0.5301553,-0.5301553,0.5301553,-2.88937,19.05408)"
                         id="g94"><g
                           id="g96"><g
                             transform="translate(-50,-50)"
                             id="g98"><g
                               id="g100"><g
                                 clip-path="url(#clipPath106)"
                                 id="g102"><path
                                   id="path120"
                                   style="fill:url(#linearGradient118);stroke:none"
                                   d="M 0,0 H 100 V 100 H 0 Z" /></g></g></g></g></g></g></g><path
                     id="path122"
                     style="fill:none;stroke:#fdb933;stroke-width:0.3985;stroke-linecap:butt;stroke-linejoin:miter;stroke-miterlimit:10;stroke-dasharray:none;stroke-opacity:1"
                     d="m 15.85233,19.05408 c 0,10.35089 -8.39083,18.74171 -18.7417,18.74171 -10.35089,0 -18.74172,-8.39082 -18.74172,-18.74171 0,-10.35089 8.39083,-18.74172 18.74172,-18.74172 10.35087,0 18.7417,8.39083 18.7417,18.74172 z" /></g><g
                   id="g124" /><g
                   id="g126" /><g
                   id="g128" /><g
                   id="g130" /><g
                   id="g132" /><g
                   id="g134" /><g
                   id="g136" /><g
                   id="g138" /><g
                   id="g140" /><g
                   id="g142"><g
                     id="g144"><g
                       clip-path="url(#clipPath150)"
                       id="g146"><g
                         transform="matrix(0.39671138,0.12646484,-0.39671138,0.12646484,9.91747,5.79904)"
                         id="g152"><g
                           id="g154"><g
                             transform="translate(-50,-50)"
                             id="g156"><g
                               id="g158"><g
                                 clip-path="url(#clipPath164)"
                                 id="g160"><path
                                   id="path178"
                                   style="fill:url(#linearGradient176);stroke:none"
                                   d="M 0,0 H 100 V 100 H 0 Z" /></g></g></g></g></g></g></g><path
                     id="path180"
                     style="fill:none;stroke:#f97142;stroke-width:0.3985;stroke-linecap:butt;stroke-linejoin:miter;stroke-miterlimit:10;stroke-dasharray:none;stroke-opacity:1"
                     d="M -4.10706,8.38663 C 4.30461,1.32825 13.12791,8.36316 23.942,10.26985" /></g><g
                   id="g182"><g
                     id="g184"><g
                       clip-path="url(#clipPath190)"
                       id="g186"><g
                         transform="matrix(0.21129,0,0,0.09216,18.66025,9.47823)"
                         id="g192"><g
                           id="g194"><g
                             transform="translate(-50,-50)"
                             id="g196"><g
                               id="g198"><g
                                 clip-path="url(#clipPath204)"
                                 id="g200"><path
                                   id="path214"
                                   style="fill:url(#radialGradient212);stroke:none"
                                   d="M 0,0 H 100 V 100 H 0 Z" /></g></g></g></g></g></g></g><path
                     id="path216"
                     style="fill:none;stroke:#f8513b;stroke-width:0.3985;stroke-linecap:butt;stroke-linejoin:miter;stroke-miterlimit:10;stroke-dasharray:none;stroke-opacity:1"
                     d="M 13.37854,7.17435 C 17.75462,7.55719 20.34357,8.49966 23.942,11.01932 19.61584,11.7821 17.70467,7.93716 13.37854,7.17435 Z" /></g><g
                   id="g218"><g
                     id="g220"><g
                       clip-path="url(#clipPath226)"
                       id="g222"><g
                         transform="matrix(0.40472283,0.08449845,-0.40472283,0.08449845,9.92628,8.03185)"
                         id="g228"><g
                           id="g230"><g
                             transform="translate(-50,-50)"
                             id="g232"><g
                               id="g234"><g
                                 clip-path="url(#clipPath240)"
                                 id="g236"><path
                                   id="path254"
                                   style="fill:url(#linearGradient252);stroke:none"
                                   d="M 0,0 H 100 V 100 H 0 Z" /></g></g></g></g></g></g></g><path
                     id="path256"
                     style="fill:none;stroke:#f97142;stroke-width:0.3985;stroke-linecap:butt;stroke-linejoin:miter;stroke-miterlimit:10;stroke-dasharray:none;stroke-opacity:1"
                     d="m -4.10706,9.13606 c 6.4576,-2.35034 10.71787,-3.15498 17.4856,-1.96171 4.37608,0.38284 6.96503,1.32531 10.56346,3.84497 0.29198,0 0.29198,-0.74947 0,-0.74947 C 20.56319,7.4347 17.78934,6.2377 13.37854,6.2377 6.61081,5.04442 2.35054,6.03627 -4.10706,8.38663 c -0.27434,0.09979 -0.27434,0.84924 0,0.74943 z" /></g><g
                   id="g258"><g
                     id="g260"><g
                       clip-path="url(#clipPath266)"
                       id="g262"><g
                         transform="matrix(0.40472283,0.09263717,-0.40472283,0.09263717,9.92628,9.25626)"
                         id="g268"><g
                           id="g270"><g
                             transform="translate(-50,-50)"
                             id="g272"><g
                               id="g274"><g
                                 clip-path="url(#clipPath280)"
                                 id="g276"><path
                                   id="path294"
                                   style="fill:url(#linearGradient292);stroke:none"
                                   d="M 0,0 H 100 V 100 H 0 Z" /></g></g></g></g></g></g></g><path
                     id="path296"
                     style="fill:none;stroke:#f97142;stroke-width:0.3985;stroke-linecap:butt;stroke-linejoin:miter;stroke-miterlimit:10;stroke-dasharray:none;stroke-opacity:1"
                     d="m -4.10706,9.13606 c 6.4576,-2.35034 10.71787,-3.15498 17.4856,-1.96171 4.39287,0 6.17059,3.84497 10.56346,3.84497 0.29198,0 0.29198,0.74934 0,0.74934 C 19.61584,12.53145 17.70467,8.6866 13.37854,7.92381 6.61081,6.73053 2.35054,7.53506 -4.10706,9.8854 c -0.27434,0.09981 -0.27434,-0.64953 0,-0.74934 z" /></g><g
                   id="g298"><g
                     id="g300"><g
                       clip-path="url(#clipPath306)"
                       id="g302"><g
                         transform="matrix(0.39671138,0.11561085,-0.39671138,0.11561085,9.91747,10.81749)"
                         id="g308"><g
                           id="g310"><g
                             transform="translate(-50,-50)"
                             id="g312"><g
                               id="g314"><g
                                 clip-path="url(#clipPath320)"
                                 id="g316"><path
                                   id="path334"
                                   style="fill:url(#linearGradient332);stroke:none"
                                   d="M 0,0 H 100 V 100 H 0 Z" /></g></g></g></g></g></g></g><path
                     id="path336"
                     style="fill:none;stroke:#f97142;stroke-width:0.3985;stroke-linecap:butt;stroke-linejoin:bevel;stroke-miterlimit:10;stroke-dasharray:none;stroke-opacity:1"
                     d="m -4.10706,9.8854 c 6.4576,-2.35034 10.71787,-3.15487 17.4856,-1.96159 4.32613,0.76279 6.2373,4.60764 10.56346,3.84485 -3.40463,1.23923 -6.08214,-0.93628 -9.21986,0.87528 -3.179,0 -4.65654,2.26054 -7.83554,2.26054 -4.70812,0 -5.34403,-5.01908 -10.99366,-5.01908 z" /></g><g
                   id="g338"><g
                     id="g340"><g
                       clip-path="url(#clipPath346)"
                       id="g342"><g
                         transform="matrix(0.50904836,0.4346473,-0.50904836,0.4346473,-3.89915,25.0488)"
                         id="g348"><g
                           id="g350"><g
                             transform="translate(-50,-50)"
                             id="g352"><g
                               id="g354"><g
                                 clip-path="url(#clipPath360)"
                                 id="g356"><path
                                   id="path374"
                                   style="fill:url(#linearGradient372);stroke:none"
                                   d="M 0,0 H 100 V 100 H 0 Z" /></g></g></g></g></g></g></g><path
                     id="path376"
                     style="fill:none;stroke:#333333;stroke-width:0.3985;stroke-linecap:butt;stroke-linejoin:miter;stroke-miterlimit:10;stroke-dasharray:none;stroke-opacity:1"
                     d="M 14.09642,26.97475 C 9.72194,36.3558 -1.429,40.41437 -10.81004,36.03989 -16.87769,33.21045 -20.9761,27.35698 -21.55959,20.68756 c -0.33515,-3.83082 0.51668,-7.67406 2.43938,-11.00433 l -0.01201,6.24724 5.62256,-3.12363 v 11.24504 c 10.68471,-1.88393 18.21025,-2.50182 27.60608,2.92287 z" /></g></g></g><g
               transform="translate(0,-40.919)"
               id="g378"><g
                 id="g380" /><g
                 transform="translate(0,40.919)"
                 id="g382" /></g></g></g></g></g></g></svg>