<?xml version="1.0" encoding="UTF-8" standalone="no"?>
<svg
   xmlns:dc="http://purl.org/dc/elements/1.1/"
   xmlns:cc="http://creativecommons.org/ns#"
   xmlns:rdf="http://www.w3.org/1999/02/22-rdf-syntax-ns#"
   xmlns:svg="http://www.w3.org/2000/svg"
   xmlns="http://www.w3.org/2000/svg"
   viewBox="0 0 83.826668 154.08"
   height="154.08"
   width="83.826668"
   xml:space="preserve"
   id="svg2"
   version="1.1"><metadata
     id="metadata8"><rdf:RDF><cc:Work
         rdf:about=""><dc:format>image/svg+xml</dc:format><dc:type
           rdf:resource="http://purl.org/dc/dcmitype/StillImage" /></cc:Work></rdf:RDF></metadata><defs
     id="defs6"><clipPath
       id="clipPath32"
       clipPathUnits="userSpaceOnUse"><path
         id="path30"
         d="m -27.87833,-30.92381 c 12.49448,-12.49448 43.73066,-6.24724 56.22513,6.24724 0,43.73065 -62.47236,43.73065 -56.22513,-6.24724 z" /></clipPath><clipPath
       id="clipPath46"
       clipPathUnits="userSpaceOnUse"><path
         id="path44"
         d="M 0,0 H 100 V 100 H 0 Z" /></clipPath><linearGradient
       id="linearGradient58"
       gradientUnits="userSpaceOnUse"
       y2="100.00128"
       x2="0"
       y1="0"
       x1="0"><stop
         id="stop48"
         offset="0"
         style="stop-opacity:1;stop-color:#b14733" /><stop
         id="stop50"
         offset="25.00032"
         style="stop-opacity:1;stop-color:#b14733" /><stop
         id="stop52"
         offset="50.00064"
         style="stop-opacity:1;stop-color:#c57566" /><stop
         id="stop54"
         offset="75.00096"
         style="stop-opacity:1;stop-color:#d8a399" /><stop
         id="stop56"
         offset="100.00128"
         style="stop-opacity:1;stop-color:#d8a399" /></linearGradient><clipPath
       id="clipPath72"
       clipPathUnits="userSpaceOnUse"><path
         id="path70"
         d="m 15.85233,19.05408 c 0,10.35089 -8.39083,18.74171 -18.7417,18.74171 -10.35089,0 -18.74172,-8.39082 -18.74172,-18.74171 0,-10.35089 8.39083,-18.74172 18.74172,-18.74172 10.35087,0 18.7417,8.39083 18.7417,18.74172 z" /></clipPath><clipPath
       id="clipPath86"
       clipPathUnits="userSpaceOnUse"><path
         id="path84"
         d="M 0,0 H 100 V 100 H 0 Z" /></clipPath><linearGradient
       id="linearGradient98"
       gradientUnits="userSpaceOnUse"
       y2="100.00128"
       x2="0"
       y1="0"
       x1="0"><stop
         id="stop88"
         offset="0"
         style="stop-opacity:1;stop-color:#dea964" /><stop
         id="stop90"
         offset="25.00032"
         style="stop-opacity:1;stop-color:#dea964" /><stop
         id="stop92"
         offset="50.00064"
         style="stop-opacity:1;stop-color:#e7bf8b" /><stop
         id="stop94"
         offset="75.00096"
         style="stop-opacity:1;stop-color:#efd4b1" /><stop
         id="stop96"
         offset="100.00128"
         style="stop-opacity:1;stop-color:#efd4b1" /></linearGradient><clipPath
       id="clipPath112"
       clipPathUnits="userSpaceOnUse"><path
         id="path110"
         d="m -16.51659,2.67807 c 4.8918,-3.94492 12.02413,-5.48614 18.7065,-4.04225 3.83817,0.82931 7.26885,2.59198 9.82299,5.04669 L 11.63808,7.4309 C 7.33463,3.15717 0.62012,1.12045 -5.97314,2.08914 -9.76021,2.64555 -13.252,4.16058 -15.97115,6.42645 Z" /></clipPath><clipPath
       id="clipPath126"
       clipPathUnits="userSpaceOnUse"><path
         id="path124"
         d="M 0,0 H 100 V 100 H 0 Z" /></clipPath><linearGradient
       id="linearGradient138"
       gradientUnits="userSpaceOnUse"
       y2="100.00128"
       x2="0"
       y1="0"
       x1="0"><stop
         id="stop128"
         offset="0"
         style="stop-opacity:1;stop-color:#6e6e6e" /><stop
         id="stop130"
         offset="25.00032"
         style="stop-opacity:1;stop-color:#6e6e6e" /><stop
         id="stop132"
         offset="50.00064"
         style="stop-opacity:1;stop-color:#929292" /><stop
         id="stop134"
         offset="75.00096"
         style="stop-opacity:1;stop-color:#b7b7b7" /><stop
         id="stop136"
         offset="100.00128"
         style="stop-opacity:1;stop-color:#b7b7b7" /></linearGradient><clipPath
       id="clipPath154"
       clipPathUnits="userSpaceOnUse"><path
         id="path152"
         d="m -27.87833,-30.92381 c 12.49448,-12.49448 43.73066,-6.24724 56.22513,6.24724 0,43.73065 -62.47236,43.73065 -56.22513,-6.24724 m 7.43702,41.79326 c 4.52021,-9.6937 16.04286,-13.88752 25.73655,-9.36731 4.12595,1.92393 7.44338,5.24136 9.36731,9.36731 -12.86375,-4.682 -22.24011,-4.682 -35.10386,0 z" /></clipPath><clipPath
       id="clipPath190"
       clipPathUnits="userSpaceOnUse"><path
         id="path188"
         d="m 13.33162,-31.10283 c 0,0.69003 -0.55939,1.24942 -1.24942,1.24942 -0.69003,0 -1.24942,-0.55939 -1.24942,-1.24942 0,-0.69003 0.55939,-1.24942 1.24942,-1.24942 0.69003,0 1.24942,0.55939 1.24942,1.24942 z" /></clipPath><clipPath
       id="clipPath204"
       clipPathUnits="userSpaceOnUse"><path
         id="path202"
         d="M 0,0 H 100 V 100 H 0 Z" /></clipPath><linearGradient
       id="linearGradient216"
       gradientUnits="userSpaceOnUse"
       y2="100.00128"
       x2="0"
       y1="0"
       x1="0"><stop
         id="stop206"
         offset="0"
         style="stop-opacity:1;stop-color:#ffda33" /><stop
         id="stop208"
         offset="25.00032"
         style="stop-opacity:1;stop-color:#ffda33" /><stop
         id="stop210"
         offset="50.00064"
         style="stop-opacity:1;stop-color:#ffe366" /><stop
         id="stop212"
         offset="75.00096"
         style="stop-opacity:1;stop-color:#ffed99" /><stop
         id="stop214"
         offset="100.00128"
         style="stop-opacity:1;stop-color:#ffed99" /></linearGradient><clipPath
       id="clipPath230"
       clipPathUnits="userSpaceOnUse"><path
         id="path228"
         d="m 13.20493,-25.62944 c 0,0.69004 -0.55939,1.24942 -1.24943,1.24942 -0.69003,0 -1.24941,-0.55938 -1.24941,-1.24942 0,-0.69003 0.55938,-1.24942 1.24941,-1.24942 0.69004,0 1.24943,0.55939 1.24943,1.24942 z" /></clipPath><clipPath
       id="clipPath244"
       clipPathUnits="userSpaceOnUse"><path
         id="path242"
         d="M 0,0 H 100 V 100 H 0 Z" /></clipPath><linearGradient
       id="linearGradient256"
       gradientUnits="userSpaceOnUse"
       y2="100.00128"
       x2="0"
       y1="0"
       x1="0"><stop
         id="stop246"
         offset="0"
         style="stop-opacity:1;stop-color:#ffda33" /><stop
         id="stop248"
         offset="25.00032"
         style="stop-opacity:1;stop-color:#ffda33" /><stop
         id="stop250"
         offset="50.00064"
         style="stop-opacity:1;stop-color:#ffe366" /><stop
         id="stop252"
         offset="75.00096"
         style="stop-opacity:1;stop-color:#ffed99" /><stop
         id="stop254"
         offset="100.00128"
         style="stop-opacity:1;stop-color:#ffed99" /></linearGradient><clipPath
       id="clipPath270"
       clipPathUnits="userSpaceOnUse"><path
         id="path268"
         d="m 12.00612,-14.13664 c 0,0.69003 -0.55939,1.24942 -1.24942,1.24942 -0.69003,0 -1.24942,-0.55939 -1.24942,-1.24942 0,-0.69004 0.55939,-1.24942 1.24942,-1.24942 0.69003,0 1.24942,0.55938 1.24942,1.24942 z" /></clipPath><clipPath
       id="clipPath284"
       clipPathUnits="userSpaceOnUse"><path
         id="path282"
         d="M 0,0 H 100 V 100 H 0 Z" /></clipPath><linearGradient
       id="linearGradient296"
       gradientUnits="userSpaceOnUse"
       y2="100.00128"
       x2="0"
       y1="0"
       x1="0"><stop
         id="stop286"
         offset="0"
         style="stop-opacity:1;stop-color:#ffda33" /><stop
         id="stop288"
         offset="25.00032"
         style="stop-opacity:1;stop-color:#ffda33" /><stop
         id="stop290"
         offset="50.00064"
         style="stop-opacity:1;stop-color:#ffe366" /><stop
         id="stop292"
         offset="75.00096"
         style="stop-opacity:1;stop-color:#ffed99" /><stop
         id="stop294"
         offset="100.00128"
         style="stop-opacity:1;stop-color:#ffed99" /></linearGradient><clipPath
       id="clipPath310"
       clipPathUnits="userSpaceOnUse"><path
         id="path308"
         d="m 10.88214,-9.09393 c 0,0.69003 -0.55939,1.24942 -1.24942,1.24942 -0.69003,0 -1.24942,-0.55939 -1.24942,-1.24942 0,-0.69004 0.55939,-1.24942 1.24942,-1.24942 0.69003,0 1.24942,0.55938 1.24942,1.24942 z" /></clipPath><clipPath
       id="clipPath324"
       clipPathUnits="userSpaceOnUse"><path
         id="path322"
         d="M 0,0 H 100 V 100 H 0 Z" /></clipPath><linearGradient
       id="linearGradient336"
       gradientUnits="userSpaceOnUse"
       y2="100.00128"
       x2="0"
       y1="0"
       x1="0"><stop
         id="stop326"
         offset="0"
         style="stop-opacity:1;stop-color:#ffda33" /><stop
         id="stop328"
         offset="25.00032"
         style="stop-opacity:1;stop-color:#ffda33" /><stop
         id="stop330"
         offset="50.00064"
         style="stop-opacity:1;stop-color:#ffe366" /><stop
         id="stop332"
         offset="75.00096"
         style="stop-opacity:1;stop-color:#ffed99" /><stop
         id="stop334"
         offset="100.00128"
         style="stop-opacity:1;stop-color:#ffed99" /></linearGradient><clipPath
       id="clipPath350"
       clipPathUnits="userSpaceOnUse"><path
         id="path348"
         d="m 9.28964,-3.76163 c 0,0.69003 -0.55938,1.24943 -1.24942,1.24943 -0.69003,0 -1.24942,-0.5594 -1.24942,-1.24943 0,-0.69003 0.55939,-1.24942 1.24942,-1.24942 0.69004,0 1.24942,0.55939 1.24942,1.24942 z" /></clipPath><clipPath
       id="clipPath364"
       clipPathUnits="userSpaceOnUse"><path
         id="path362"
         d="M 0,0 H 100 V 100 H 0 Z" /></clipPath><linearGradient
       id="linearGradient376"
       gradientUnits="userSpaceOnUse"
       y2="100.00128"
       x2="0"
       y1="0"
       x1="0"><stop
         id="stop366"
         offset="0"
         style="stop-opacity:1;stop-color:#ffda33" /><stop
         id="stop368"
         offset="25.00032"
         style="stop-opacity:1;stop-color:#ffda33" /><stop
         id="stop370"
         offset="50.00064"
         style="stop-opacity:1;stop-color:#ffe366" /><stop
         id="stop372"
         offset="75.00096"
         style="stop-opacity:1;stop-color:#ffed99" /><stop
         id="stop374"
         offset="100.00128"
         style="stop-opacity:1;stop-color:#ffed99" /></linearGradient><clipPath
       id="clipPath392"
       clipPathUnits="userSpaceOnUse"><path
         id="path390"
         d="m -16.14194,5.80165 c -4.54704,7.09956 -1.51378,16.37102 6.77512,20.70835 5.36124,2.80543 11.88662,2.94767 17.11418,0.37359 4.32518,-2.12974 7.26855,-5.88122 8.03803,-10.24531 2.85853,6.21258 2.85853,6.21258 -3.32639,30.49665 -4.33919,24.6095 -43.71434,17.66683 -39.37514,-6.94268 2.49346,-24.93495 3.57825,-31.08733 10.7742,-34.3906" /></clipPath><clipPath
       id="clipPath406"
       clipPathUnits="userSpaceOnUse"><path
         id="path404"
         d="M 0,0 H 100 V 100 H 0 Z" /></clipPath><linearGradient
       id="linearGradient418"
       gradientUnits="userSpaceOnUse"
       y2="100.00128"
       x2="0"
       y1="0"
       x1="0"><stop
         id="stop408"
         offset="0"
         style="stop-opacity:1;stop-color:#333333" /><stop
         id="stop410"
         offset="25.00032"
         style="stop-opacity:1;stop-color:#333333" /><stop
         id="stop412"
         offset="50.00064"
         style="stop-opacity:1;stop-color:#666666" /><stop
         id="stop414"
         offset="75.00096"
         style="stop-opacity:1;stop-color:#999999" /><stop
         id="stop416"
         offset="100.00128"
         style="stop-opacity:1;stop-color:#999999" /></linearGradient><clipPath
       id="clipPath430"
       clipPathUnits="userSpaceOnUse"><path
         id="path428"
         d="M 15.56775,22.30847 C 13.77039,32.50218 4.04994,39.30856 -6.14377,37.51122 -16.33748,35.71385 -23.14386,25.9934 -21.3465,15.79968 -19.54915,5.60597 -9.82869,-1.20041 0.365,0.59694 10.55873,2.3943 17.36511,12.11475 15.56775,22.30847 Z" /></clipPath></defs><g
     transform="matrix(1.3333333,0,0,-1.3333333,0,154.08)"
     id="g10"><g
       transform="translate(34.324,43.617)"
       id="g12"><g
         id="g14"><g
           id="g16"><g
             id="g18"><g
               id="g20"><g
                 id="g22"><g
                   id="g24"><g
                     id="g26"><g
                       clip-path="url(#clipPath32)"
                       id="g28"><g
                         transform="matrix(0.88358509,0.88358509,-0.88358509,0.88358509,-2.88937,-12.1821)"
                         id="g34"><g
                           id="g36"><g
                             transform="translate(-50,-50)"
                             id="g38"><g
                               id="g40"><g
                                 clip-path="url(#clipPath46)"
                                 id="g42"><path
                                   id="path60"
                                   style="fill:url(#linearGradient58);stroke:none"
                                   d="M 0,0 H 100 V 100 H 0 Z" /></g></g></g></g></g></g></g><path
                     id="path62"
                     style="fill:none;stroke:#b14733;stroke-width:0.3985;stroke-linecap:butt;stroke-linejoin:miter;stroke-miterlimit:10;stroke-dasharray:none;stroke-opacity:1"
                     d="m -27.87833,-30.92381 c 12.49448,-12.49448 43.73066,-6.24724 56.22513,6.24724 0,43.73065 -62.47236,43.73065 -56.22513,-6.24724 z" /></g><g
                   id="g64"><g
                     id="g66"><g
                       clip-path="url(#clipPath72)"
                       id="g68"><g
                         transform="matrix(0.5301553,0.5301553,-0.5301553,0.5301553,-2.88937,19.05408)"
                         id="g74"><g
                           id="g76"><g
                             transform="translate(-50,-50)"
                             id="g78"><g
                               id="g80"><g
                                 clip-path="url(#clipPath86)"
                                 id="g82"><path
                                   id="path100"
                                   style="fill:url(#linearGradient98);stroke:none"
                                   d="M 0,0 H 100 V 100 H 0 Z" /></g></g></g></g></g></g></g><path
                     id="path102"
                     style="fill:none;stroke:#dea964;stroke-width:0.3985;stroke-linecap:butt;stroke-linejoin:miter;stroke-miterlimit:10;stroke-dasharray:none;stroke-opacity:1"
                     d="m 15.85233,19.05408 c 0,10.35089 -8.39083,18.74171 -18.7417,18.74171 -10.35089,0 -18.74172,-8.39082 -18.74172,-18.74171 0,-10.35089 8.39083,-18.74172 18.74172,-18.74172 10.35087,0 18.7417,8.39083 18.7417,18.74172 z" /></g><g
                   id="g104"><g
                     id="g106"><g
                       clip-path="url(#clipPath112)"
                       id="g108"><g
                         transform="matrix(0.40350662,0.14481408,-0.40350662,0.14481408,-2.25183,2.31139)"
                         id="g114"><g
                           id="g116"><g
                             transform="translate(-50,-50)"
                             id="g118"><g
                               id="g120"><g
                                 clip-path="url(#clipPath126)"
                                 id="g122"><path
                                   id="path140"
                                   style="fill:url(#linearGradient138);stroke:none"
                                   d="M 0,0 H 100 V 100 H 0 Z" /></g></g></g></g></g></g></g><path
                     id="path142"
                     style="fill:none;stroke:#6e6e6e;stroke-width:0.3985;stroke-linecap:butt;stroke-linejoin:miter;stroke-miterlimit:10;stroke-dasharray:none;stroke-opacity:1"
                     d="m -16.51659,2.67807 c 4.8918,-3.94492 12.02413,-5.48614 18.7065,-4.04225 3.83817,0.82931 7.26885,2.59198 9.82299,5.04669 L 11.63808,7.4309 C 7.33463,3.15717 0.62012,1.12045 -5.97314,2.08914 -9.76021,2.64555 -13.252,4.16058 -15.97115,6.42645 Z" /></g><g
                   id="g144"><path
                     id="path146"
                     style="fill:none;stroke:#e6e6e6;stroke-width:0.3985;stroke-linecap:butt;stroke-linejoin:miter;stroke-miterlimit:10;stroke-dasharray:none;stroke-opacity:1"
                     d="m -16.51659,2.67807 c 4.8918,-3.94492 12.02413,-5.48614 18.7065,-4.04225 3.83817,0.82931 7.26885,2.59198 9.82299,5.04669" /></g><g
                   id="g148"><g
                     clip-path="url(#clipPath154)"
                     id="g150"><g
                       id="g156"><path
                         id="path158"
                         style="fill:none;stroke:#e6e6e6;stroke-width:0.3985;stroke-linecap:butt;stroke-linejoin:miter;stroke-miterlimit:10;stroke-dasharray:none;stroke-opacity:1"
                         d="m 9.60509,-35.29686 c 0,13.10648 -0.31964,20.90112 -4.80231,33.21715 L 7.7309,0.65916 6.95161,4.32556" /><g
                         id="g160"><g
                           id="g162"><g
                             id="g164" /></g><g
                           id="g166"><g
                             id="g168" /></g><g
                           id="g170"><g
                             id="g172" /></g><g
                           id="g174"><g
                             id="g176" /></g><g
                           id="g178"><g
                             id="g180" /></g></g></g><g
                       id="g182"><g
                         id="g184"><g
                           clip-path="url(#clipPath190)"
                           id="g186"><g
                             transform="matrix(0.03533379,0.03533379,-0.03533379,0.03533379,12.08218,-31.10281)"
                             id="g192"><g
                               id="g194"><g
                                 transform="translate(-50,-50)"
                                 id="g196"><g
                                   id="g198"><g
                                   clip-path="url(#clipPath204)"
                                   id="g200"><path
                                   id="path218"
                                   style="fill:url(#linearGradient216);stroke:none"
                                   d="M 0,0 H 100 V 100 H 0 Z" /></g></g></g></g></g></g></g><path
                         id="path220"
                         style="fill:none;stroke:#ffda33;stroke-width:0.3985;stroke-linecap:butt;stroke-linejoin:miter;stroke-miterlimit:10;stroke-dasharray:none;stroke-opacity:1"
                         d="m 13.33162,-31.10283 c 0,0.69003 -0.55939,1.24942 -1.24942,1.24942 -0.69003,0 -1.24942,-0.55939 -1.24942,-1.24942 0,-0.69003 0.55939,-1.24942 1.24942,-1.24942 0.69003,0 1.24942,0.55939 1.24942,1.24942 z" /></g><g
                       id="g222"><g
                         id="g224"><g
                           clip-path="url(#clipPath230)"
                           id="g226"><g
                             transform="matrix(0.03533379,0.03533379,-0.03533379,0.03533379,11.95549,-25.62944)"
                             id="g232"><g
                               id="g234"><g
                                 transform="translate(-50,-50)"
                                 id="g236"><g
                                   id="g238"><g
                                   clip-path="url(#clipPath244)"
                                   id="g240"><path
                                   id="path258"
                                   style="fill:url(#linearGradient256);stroke:none"
                                   d="M 0,0 H 100 V 100 H 0 Z" /></g></g></g></g></g></g></g><path
                         id="path260"
                         style="fill:none;stroke:#ffda33;stroke-width:0.3985;stroke-linecap:butt;stroke-linejoin:miter;stroke-miterlimit:10;stroke-dasharray:none;stroke-opacity:1"
                         d="m 13.20493,-25.62944 c 0,0.69004 -0.55939,1.24942 -1.24943,1.24942 -0.69003,0 -1.24941,-0.55938 -1.24941,-1.24942 0,-0.69003 0.55938,-1.24942 1.24941,-1.24942 0.69004,0 1.24943,0.55939 1.24943,1.24942 z" /></g><g
                       id="g262"><g
                         id="g264"><g
                           clip-path="url(#clipPath270)"
                           id="g266"><g
                             transform="matrix(0.03533379,0.03533379,-0.03533379,0.03533379,10.7567,-14.13664)"
                             id="g272"><g
                               id="g274"><g
                                 transform="translate(-50,-50)"
                                 id="g276"><g
                                   id="g278"><g
                                   clip-path="url(#clipPath284)"
                                   id="g280"><path
                                   id="path298"
                                   style="fill:url(#linearGradient296);stroke:none"
                                   d="M 0,0 H 100 V 100 H 0 Z" /></g></g></g></g></g></g></g><path
                         id="path300"
                         style="fill:none;stroke:#ffda33;stroke-width:0.3985;stroke-linecap:butt;stroke-linejoin:miter;stroke-miterlimit:10;stroke-dasharray:none;stroke-opacity:1"
                         d="m 12.00612,-14.13664 c 0,0.69003 -0.55939,1.24942 -1.24942,1.24942 -0.69003,0 -1.24942,-0.55939 -1.24942,-1.24942 0,-0.69004 0.55939,-1.24942 1.24942,-1.24942 0.69003,0 1.24942,0.55938 1.24942,1.24942 z" /></g><g
                       id="g302"><g
                         id="g304"><g
                           clip-path="url(#clipPath310)"
                           id="g306"><g
                             transform="matrix(0.03533379,0.03533379,-0.03533379,0.03533379,9.63272,-9.09393)"
                             id="g312"><g
                               id="g314"><g
                                 transform="translate(-50,-50)"
                                 id="g316"><g
                                   id="g318"><g
                                   clip-path="url(#clipPath324)"
                                   id="g320"><path
                                   id="path338"
                                   style="fill:url(#linearGradient336);stroke:none"
                                   d="M 0,0 H 100 V 100 H 0 Z" /></g></g></g></g></g></g></g><path
                         id="path340"
                         style="fill:none;stroke:#ffda33;stroke-width:0.3985;stroke-linecap:butt;stroke-linejoin:miter;stroke-miterlimit:10;stroke-dasharray:none;stroke-opacity:1"
                         d="m 10.88214,-9.09393 c 0,0.69003 -0.55939,1.24942 -1.24942,1.24942 -0.69003,0 -1.24942,-0.55939 -1.24942,-1.24942 0,-0.69004 0.55939,-1.24942 1.24942,-1.24942 0.69003,0 1.24942,0.55938 1.24942,1.24942 z" /></g><g
                       id="g342"><g
                         id="g344"><g
                           clip-path="url(#clipPath350)"
                           id="g346"><g
                             transform="matrix(0.03533379,0.03533379,-0.03533379,0.03533379,8.04022,-3.76163)"
                             id="g352"><g
                               id="g354"><g
                                 transform="translate(-50,-50)"
                                 id="g356"><g
                                   id="g358"><g
                                   clip-path="url(#clipPath364)"
                                   id="g360"><path
                                   id="path378"
                                   style="fill:url(#linearGradient376);stroke:none"
                                   d="M 0,0 H 100 V 100 H 0 Z" /></g></g></g></g></g></g></g><path
                         id="path380"
                         style="fill:none;stroke:#ffda33;stroke-width:0.3985;stroke-linecap:butt;stroke-linejoin:miter;stroke-miterlimit:10;stroke-dasharray:none;stroke-opacity:1"
                         d="m 9.28964,-3.76163 c 0,0.69003 -0.55938,1.24943 -1.24942,1.24943 -0.69003,0 -1.24942,-0.5594 -1.24942,-1.24943 0,-0.69003 0.55939,-1.24942 1.24942,-1.24942 0.69004,0 1.24942,0.55939 1.24942,1.24942 z" /></g></g></g><g
                   id="g382"><g
                     id="g384"><g
                       id="g386"><g
                         clip-path="url(#clipPath392)"
                         id="g388"><g
                           transform="matrix(0.70575651,0.93267904,-0.70575651,0.93267904,-6.3057,38.77304)"
                           id="g394"><g
                             id="g396"><g
                               transform="translate(-50,-50)"
                               id="g398"><g
                                 id="g400"><g
                                   clip-path="url(#clipPath406)"
                                   id="g402"><path
                                   id="path420"
                                   style="fill:url(#linearGradient418);stroke:none"
                                   d="M 0,0 H 100 V 100 H 0 Z" /></g></g></g></g></g></g></g><path
                       id="path422"
                       style="fill:none;stroke:#333333;stroke-width:0.3985;stroke-linecap:butt;stroke-linejoin:miter;stroke-miterlimit:10;stroke-dasharray:none;stroke-opacity:1"
                       d="m -16.14194,5.80165 c -4.54704,7.09956 -1.51378,16.37102 6.77512,20.70835 5.36124,2.80543 11.88662,2.94767 17.11418,0.37359 4.32518,-2.12974 7.26855,-5.88122 8.03803,-10.24531 2.85853,6.21258 2.85853,6.21258 -3.32639,30.49665 -4.33919,24.6095 -43.71434,17.66683 -39.37514,-6.94268 2.49346,-24.93495 3.57825,-31.08733 10.7742,-34.3906" /></g><g
                     id="g424"><g
                       clip-path="url(#clipPath430)"
                       id="g426"><g
                         id="g432"><path
                           id="path434"
                           style="fill:none;stroke:#ffd100;stroke-width:1.24942005;stroke-linecap:round;stroke-linejoin:miter;stroke-miterlimit:10;stroke-dasharray:2.49886, 1.43683;stroke-dashoffset:0;stroke-opacity:1"
                           d="M -17.21834,9.02092 C -6.3405,2.74045 8.44173,1.7661 14.72218,12.6439" /></g></g></g></g></g></g><g
               transform="translate(0,-40.919)"
               id="g436"><g
                 id="g438" /><g
                 transform="translate(0,40.919)"
                 id="g440" /></g></g></g></g></g></g></svg>