<?xml version="1.0" encoding="UTF-8" standalone="no"?>
<svg
   xmlns:dc="http://purl.org/dc/elements/1.1/"
   xmlns:cc="http://creativecommons.org/ns#"
   xmlns:rdf="http://www.w3.org/1999/02/22-rdf-syntax-ns#"
   xmlns:svg="http://www.w3.org/2000/svg"
   xmlns="http://www.w3.org/2000/svg"
   viewBox="0 0 83.826668 113.32"
   height="113.32"
   width="83.826668"
   xml:space="preserve"
   id="svg2"
   version="1.1"><metadata
     id="metadata8"><rdf:RDF><cc:Work
         rdf:about=""><dc:format>image/svg+xml</dc:format><dc:type
           rdf:resource="http://purl.org/dc/dcmitype/StillImage" /></cc:Work></rdf:RDF></metadata><defs
     id="defs6"><clipPath
       id="clipPath32"
       clipPathUnits="userSpaceOnUse"><path
         id="path30"
         d="M 12.39783,26.18259 C 16.85295,23.61043 19.5131,10.44487 17.7265,0.31236 H 9.60509" /></clipPath><clipPath
       id="clipPath46"
       clipPathUnits="userSpaceOnUse"><path
         id="path44"
         d="M 0,0 H 100 V 100 H 0 Z" /></clipPath><linearGradient
       id="linearGradient58"
       gradientUnits="userSpaceOnUse"
       y2="100.00128"
       x2="0"
       y1="0"
       x1="0"><stop
         id="stop48"
         offset="0"
         style="stop-opacity:1;stop-color:#d6b489" /><stop
         id="stop50"
         offset="25.00032"
         style="stop-opacity:1;stop-color:#d6b489" /><stop
         id="stop52"
         offset="50.00064"
         style="stop-opacity:1;stop-color:#e0c7a6" /><stop
         id="stop54"
         offset="75.00096"
         style="stop-opacity:1;stop-color:#ebd9c4" /><stop
         id="stop56"
         offset="100.00128"
         style="stop-opacity:1;stop-color:#ebd9c4" /></linearGradient><clipPath
       id="clipPath134"
       clipPathUnits="userSpaceOnUse"><path
         id="path132"
         d="m -27.87833,-30.92381 c 12.49448,-12.49448 43.73066,-6.24724 56.22513,6.24724 0,43.73065 -62.47236,43.73065 -56.22513,-6.24724 z" /></clipPath><clipPath
       id="clipPath148"
       clipPathUnits="userSpaceOnUse"><path
         id="path146"
         d="M 0,0 H 100 V 100 H 0 Z" /></clipPath><linearGradient
       id="linearGradient160"
       gradientUnits="userSpaceOnUse"
       y2="100.00128"
       x2="0"
       y1="0"
       x1="0"><stop
         id="stop150"
         offset="0"
         style="stop-opacity:1;stop-color:#333333" /><stop
         id="stop152"
         offset="25.00032"
         style="stop-opacity:1;stop-color:#333333" /><stop
         id="stop154"
         offset="50.00064"
         style="stop-opacity:1;stop-color:#666666" /><stop
         id="stop156"
         offset="75.00096"
         style="stop-opacity:1;stop-color:#999999" /><stop
         id="stop158"
         offset="100.00128"
         style="stop-opacity:1;stop-color:#999999" /></linearGradient><clipPath
       id="clipPath176"
       clipPathUnits="userSpaceOnUse"><path
         id="path174"
         d="m 11.46745,7.00706 c 11.99384,-10.06414 14.03465,-26.45408 3.59662,-26.45408 1.41101,-3.87678 -4.22014,-7.53338 -6.87199,-4.37305 -1.42178,-3.90634 -5.4182,-4.84949 -7.49668,-1.24943 -3.23559,-2.71506 -6.7632,-2.28562 -7.49662,1.87419 -3.15622,-2.64842 -7.58744,-0.93399 -6.87201,3.12362 -9.12987,-1.60975 -7.71277,14.54131 0.03404,23.77344" /></clipPath><clipPath
       id="clipPath190"
       clipPathUnits="userSpaceOnUse"><path
         id="path188"
         d="M 0,0 H 100 V 100 H 0 Z" /></clipPath><linearGradient
       id="linearGradient202"
       gradientUnits="userSpaceOnUse"
       y2="100.00128"
       x2="0"
       y1="0"
       x1="0"><stop
         id="stop192"
         offset="0"
         style="stop-opacity:1;stop-color:#ebebeb" /><stop
         id="stop194"
         offset="25.00032"
         style="stop-opacity:1;stop-color:#ebebeb" /><stop
         id="stop196"
         offset="50.00064"
         style="stop-opacity:1;stop-color:#f0f0f0" /><stop
         id="stop198"
         offset="75.00096"
         style="stop-opacity:1;stop-color:#f5f5f5" /><stop
         id="stop200"
         offset="100.00128"
         style="stop-opacity:1;stop-color:#f5f5f5" /></linearGradient><clipPath
       id="clipPath216"
       clipPathUnits="userSpaceOnUse"><path
         id="path214"
         d="m 15.85233,19.05408 c 0,10.35089 -8.39083,18.74171 -18.7417,18.74171 -10.35089,0 -18.74172,-8.39082 -18.74172,-18.74171 0,-10.35089 8.39083,-18.74172 18.74172,-18.74172 10.35087,0 18.7417,8.39083 18.7417,18.74172 z" /></clipPath><clipPath
       id="clipPath230"
       clipPathUnits="userSpaceOnUse"><path
         id="path228"
         d="M 0,0 H 100 V 100 H 0 Z" /></clipPath><linearGradient
       id="linearGradient242"
       gradientUnits="userSpaceOnUse"
       y2="100.00128"
       x2="0"
       y1="0"
       x1="0"><stop
         id="stop232"
         offset="0"
         style="stop-opacity:1;stop-color:#dea964" /><stop
         id="stop234"
         offset="25.00032"
         style="stop-opacity:1;stop-color:#dea964" /><stop
         id="stop236"
         offset="50.00064"
         style="stop-opacity:1;stop-color:#e7bf8b" /><stop
         id="stop238"
         offset="75.00096"
         style="stop-opacity:1;stop-color:#efd4b1" /><stop
         id="stop240"
         offset="100.00128"
         style="stop-opacity:1;stop-color:#efd4b1" /></linearGradient><clipPath
       id="clipPath280"
       clipPathUnits="userSpaceOnUse"><path
         id="path278"
         d="m 15.56778,22.30847 c 0,2.59801 -0.38637,4.17896 -1.68535,6.42883 -5.34795,9.26285 -17.1922,12.43653 -26.45503,7.08858 -2.94325,-1.69926 -5.38931,-4.14531 -7.08858,-7.08858 -1.93806,-0.34164 -2.54672,-3.68498 -1.03924,-4.94995 -1.64273,0.94847 -3.01705,-3.22142 -1.67571,-4.56274 -1.7214,0.80264 -2.75967,-3.47926 -1.30473,-4.70011 -1.78821,0.6508 -2.5062,-3.69364 -0.94744,-4.78514 -1.82652,0.48942 -2.1597,-3.86628 -0.52209,-4.81172 -2.0004,0.35269 -1.72548,-3.38957 -0.70989,-5.14869 3.99164,-6.91376 10.26206,-7.52584 17.76386,-10.25623 -2.26225,12.83037 -3.30244,20.44934 -1.04019,33.27972 1.22522,6.94893 7.13356,6.7215 11.86969,4.99773 6.6803,5.6055 12.62555,0.50006 12.8347,-5.4917 z" /></clipPath><clipPath
       id="clipPath294"
       clipPathUnits="userSpaceOnUse"><path
         id="path292"
         d="M 0,0 H 100 V 100 H 0 Z" /></clipPath><linearGradient
       id="linearGradient306"
       gradientUnits="userSpaceOnUse"
       y2="100.00128"
       x2="0"
       y1="0"
       x1="0"><stop
         id="stop296"
         offset="0"
         style="stop-opacity:1;stop-color:#d6b489" /><stop
         id="stop298"
         offset="25.00032"
         style="stop-opacity:1;stop-color:#d6b489" /><stop
         id="stop300"
         offset="50.00064"
         style="stop-opacity:1;stop-color:#e0c7a6" /><stop
         id="stop302"
         offset="75.00096"
         style="stop-opacity:1;stop-color:#ebd9c4" /><stop
         id="stop304"
         offset="100.00128"
         style="stop-opacity:1;stop-color:#ebd9c4" /></linearGradient></defs><g
     transform="matrix(1.3333333,0,0,-1.3333333,0,113.32)"
     id="g10"><g
       transform="translate(34.324,43.617)"
       id="g12"><g
         id="g14"><g
           id="g16"><g
             id="g18"><g
               id="g20"><g
                 id="g22"><g
                   id="g24"><g
                     id="g26"><g
                       clip-path="url(#clipPath32)"
                       id="g28"><g
                         transform="matrix(0.14013308,0.36589597,-0.14013308,0.36589597,14.5591,13.24747)"
                         id="g34"><g
                           id="g36"><g
                             transform="translate(-50,-50)"
                             id="g38"><g
                               id="g40"><g
                                 clip-path="url(#clipPath46)"
                                 id="g42"><path
                                   id="path60"
                                   style="fill:url(#linearGradient58);stroke:none"
                                   d="M 0,0 H 100 V 100 H 0 Z" /></g></g></g></g></g></g></g><path
                     id="path62"
                     style="fill:none;stroke:#d6b489;stroke-width:0.3985;stroke-linecap:butt;stroke-linejoin:bevel;stroke-miterlimit:10;stroke-dasharray:none;stroke-opacity:1"
                     d="M 12.39783,26.18259 C 16.85295,23.61043 19.5131,10.44487 17.7265,0.31236 H 9.60509" /></g><g
                   id="g64"><g
                     id="g66"><g
                       id="g68"><path
                         id="path70"
                         style="fill:#ba8937;fill-opacity:1;fill-rule:nonzero;stroke:none"
                         d="m 16.01892,21.75824 c 0.74004,0.67989 0.59877,2.03781 -0.31555,3.033 -0.91434,0.9952 -2.25543,1.25078 -2.99547,0.5709 -0.74004,-0.67989 -0.59875,-2.03781 0.31557,-3.03301 0.91432,-0.99519 2.25543,-1.25079 2.99545,-0.57089 z" /></g><g
                       id="g72"><path
                         id="path74"
                         style="fill:#e6d0b5;fill-opacity:1;fill-rule:nonzero;stroke:#ba8937;stroke-width:0.3985;stroke-linecap:butt;stroke-linejoin:miter;stroke-miterlimit:10;stroke-dasharray:none;stroke-opacity:1"
                         d="m 16.29613,22.01291 c 0.74003,0.6799 0.59877,2.03781 -0.31555,3.033 -0.91433,0.99521 -2.25544,1.25079 -2.99548,0.57091 -0.74001,-0.6799 -0.59875,-2.03781 0.31557,-3.03302 0.91433,-0.99519 2.25543,-1.25078 2.99546,-0.57089 z" /></g></g><g
                     id="g76"><g
                       id="g78"><path
                         id="path80"
                         style="fill:#ba8937;fill-opacity:1;fill-rule:nonzero;stroke:none"
                         d="m 16.98158,16.92207 c 0.98616,0.42006 1.35721,1.7663 0.82877,3.00693 -0.52846,1.24062 -1.75629,1.90578 -2.74246,1.48572 -0.98616,-0.42006 -1.35721,-1.76632 -0.82877,-3.00693 0.52846,-1.24061 1.75628,-1.90578 2.74246,-1.48572 z" /></g><g
                       id="g82"><path
                         id="path84"
                         style="fill:#e6d0b5;fill-opacity:1;fill-rule:nonzero;stroke:#ba8937;stroke-width:0.3985;stroke-linecap:butt;stroke-linejoin:miter;stroke-miterlimit:10;stroke-dasharray:none;stroke-opacity:1"
                         d="m 17.32715,17.06927 c 0.98616,0.42006 1.35721,1.7663 0.82876,3.00693 -0.52845,1.24062 -1.75628,1.90578 -2.74244,1.48572 -0.98618,-0.42006 -1.35723,-1.76631 -0.82877,-3.00692 0.52844,-1.24062 1.75627,-1.90578 2.74245,-1.48573 z" /></g></g><g
                     id="g86"><g
                       id="g88"><path
                         id="path90"
                         style="fill:#ba8937;fill-opacity:1;fill-rule:nonzero;stroke:none"
                         d="m 17.75874,12.24051 c 1.10466,0.28323 1.72878,1.5711 1.39405,2.87651 -0.33474,1.3054 -1.50156,2.13403 -2.60622,1.85078 -1.10464,-0.28324 -1.72877,-1.5711 -1.39404,-2.87652 0.33473,-1.30541 1.50157,-2.13402 2.60621,-1.85077 z" /></g><g
                       id="g92"><path
                         id="path94"
                         style="fill:#e6d0b5;fill-opacity:1;fill-rule:nonzero;stroke:#ba8937;stroke-width:0.3985;stroke-linecap:butt;stroke-linejoin:miter;stroke-miterlimit:10;stroke-dasharray:none;stroke-opacity:1"
                         d="m 18.12236,12.33374 c 1.10466,0.28323 1.72878,1.57111 1.39404,2.87651 -0.33473,1.30542 -1.50157,2.13403 -2.60621,1.85079 -1.10465,-0.28325 -1.72878,-1.57111 -1.39405,-2.87652 0.33474,-1.30542 1.50158,-2.13403 2.60622,-1.85078 z" /></g></g><g
                     id="g96"><g
                       id="g98"><path
                         id="path100"
                         style="fill:#ba8937;fill-opacity:1;fill-rule:nonzero;stroke:none"
                         d="m 18.11922,7.52092 c 1.19758,0.16611 2.01835,1.38248 1.83326,2.71684 -0.18508,1.33437 -1.30597,2.28139 -2.50355,2.11528 -1.19759,-0.1661 -2.01836,-1.38247 -1.83327,-2.71686 0.18509,-1.33436 1.30597,-2.28138 2.50356,-2.11526 z" /></g><g
                       id="g102"><path
                         id="path104"
                         style="fill:#e6d0b5;fill-opacity:1;fill-rule:nonzero;stroke:#ba8937;stroke-width:0.3985;stroke-linecap:butt;stroke-linejoin:miter;stroke-miterlimit:10;stroke-dasharray:none;stroke-opacity:1"
                         d="m 18.4909,7.57246 c 1.19759,0.16611 2.01836,1.38248 1.83327,2.71686 -0.18509,1.33437 -1.30597,2.28139 -2.50355,2.11527 -1.19759,-0.16611 -2.01836,-1.38248 -1.83327,-2.71685 0.18509,-1.33436 1.30597,-2.28138 2.50355,-2.11528 z" /></g></g><g
                     id="g106"><g
                       id="g108"><path
                         id="path110"
                         style="fill:#ba8937;fill-opacity:1;fill-rule:nonzero;stroke:none"
                         d="m 17.98691,2.79341 c 1.27644,0.03742 2.2792,1.15834 2.23977,2.50366 C 20.18724,6.64241 19.12054,7.70267 17.8441,7.66525 16.56767,7.62784 15.5649,6.50693 15.60434,5.16159 15.64377,3.81627 16.71048,2.75601 17.98691,2.79341 Z" /></g><g
                       id="g112"><path
                         id="path114"
                         style="fill:#e6d0b5;fill-opacity:1;fill-rule:nonzero;stroke:#ba8937;stroke-width:0.3985;stroke-linecap:butt;stroke-linejoin:miter;stroke-miterlimit:10;stroke-dasharray:none;stroke-opacity:1"
                         d="m 18.36166,2.8044 c 1.27643,0.03741 2.27919,1.15832 2.23977,2.50364 C 20.562,6.65338 19.49529,7.71364 18.21884,7.67622 16.94241,7.63882 15.93965,6.5179 15.97908,5.17258 16.01851,3.82724 17.08522,2.76698 18.36166,2.8044 Z" /></g></g><g
                     id="g116"><g
                       id="g118"><path
                         id="path120"
                         style="fill:#ba8937;fill-opacity:1;fill-rule:nonzero;stroke:none"
                         d="m 17.25015,-1.88446 c 1.34027,-0.12514 2.52825,0.8598 2.65337,2.19998 0.12512,1.3402 -0.85992,2.52806 -2.2002,2.6532 -1.34028,0.12515 -2.52824,-0.8598 -2.65336,-2.2 -0.12514,-1.34018 0.85991,-2.52804 2.20019,-2.65318 z" /></g><g
                       id="g122"><path
                         id="path124"
                         style="fill:#e6d0b5;fill-opacity:1;fill-rule:nonzero;stroke:#ba8937;stroke-width:0.3985;stroke-linecap:butt;stroke-linejoin:miter;stroke-miterlimit:10;stroke-dasharray:none;stroke-opacity:1"
                         d="m 17.62344,-1.91931 c 1.34029,-0.12515 2.52825,0.8598 2.65337,2.19998 0.12514,1.34019 -0.85991,2.52806 -2.2002,2.6532 -1.34027,0.12513 -2.52822,-0.8598 -2.65336,-2.2 -0.12512,-1.34018 0.85992,-2.52804 2.20019,-2.65318 z" /></g></g></g><g
                   id="g126"><g
                     id="g128"><g
                       clip-path="url(#clipPath134)"
                       id="g130"><g
                         transform="matrix(0.88358509,0.88358509,-0.88358509,0.88358509,-2.88937,-12.1821)"
                         id="g136"><g
                           id="g138"><g
                             transform="translate(-50,-50)"
                             id="g140"><g
                               id="g142"><g
                                 clip-path="url(#clipPath148)"
                                 id="g144"><path
                                   id="path162"
                                   style="fill:url(#linearGradient160);stroke:none"
                                   d="M 0,0 H 100 V 100 H 0 Z" /></g></g></g></g></g></g></g><path
                     id="path164"
                     style="fill:none;stroke:#333333;stroke-width:0.3985;stroke-linecap:butt;stroke-linejoin:miter;stroke-miterlimit:10;stroke-dasharray:none;stroke-opacity:1"
                     d="m -27.87833,-30.92381 c 12.49448,-12.49448 43.73066,-6.24724 56.22513,6.24724 0,43.73065 -62.47236,43.73065 -56.22513,-6.24724 z" /></g><g
                   id="g166"><g
                     id="g168"><g
                       id="g170"><g
                         clip-path="url(#clipPath176)"
                         id="g172"><g
                           transform="matrix(0.68321416,0.50459363,-0.68321416,0.50459363,1.3495,-10.83124)"
                           id="g178"><g
                             id="g180"><g
                               transform="translate(-50,-50)"
                               id="g182"><g
                                 id="g184"><g
                                   clip-path="url(#clipPath190)"
                                   id="g186"><path
                                   id="path204"
                                   style="fill:url(#linearGradient202);stroke:none"
                                   d="M 0,0 H 100 V 100 H 0 Z" /></g></g></g></g></g></g></g><path
                       id="path206"
                       style="fill:none;stroke:#ebebeb;stroke-width:0.3985;stroke-linecap:butt;stroke-linejoin:miter;stroke-miterlimit:10;stroke-dasharray:none;stroke-opacity:1"
                       d="m 11.46745,7.00706 c 11.99384,-10.06414 14.03465,-26.45408 3.59662,-26.45408 1.41101,-3.87678 -4.22014,-7.53338 -6.87199,-4.37305 -1.42178,-3.90634 -5.4182,-4.84949 -7.49668,-1.24943 -3.23559,-2.71506 -6.7632,-2.28562 -7.49662,1.87419 -3.15622,-2.64842 -7.58744,-0.93399 -6.87201,3.12362 -9.12987,-1.60975 -7.71277,14.54131 0.03404,23.77344" /></g></g><g
                   id="g208"><g
                     id="g210"><g
                       clip-path="url(#clipPath216)"
                       id="g212"><g
                         transform="matrix(0.5301553,0.5301553,-0.5301553,0.5301553,-2.88937,19.05408)"
                         id="g218"><g
                           id="g220"><g
                             transform="translate(-50,-50)"
                             id="g222"><g
                               id="g224"><g
                                 clip-path="url(#clipPath230)"
                                 id="g226"><path
                                   id="path244"
                                   style="fill:url(#linearGradient242);stroke:none"
                                   d="M 0,0 H 100 V 100 H 0 Z" /></g></g></g></g></g></g></g><path
                     id="path246"
                     style="fill:none;stroke:#dea964;stroke-width:0.3985;stroke-linecap:butt;stroke-linejoin:miter;stroke-miterlimit:10;stroke-dasharray:none;stroke-opacity:1"
                     d="m 15.85233,19.05408 c 0,10.35089 -8.39083,18.74171 -18.7417,18.74171 -10.35089,0 -18.74172,-8.39082 -18.74172,-18.74171 0,-10.35089 8.39083,-18.74172 18.74172,-18.74172 10.35087,0 18.7417,8.39083 18.7417,18.74172 z" /></g><g
                   id="g248"><path
                     id="path250"
                     style="fill:#ba8937;fill-opacity:1;fill-rule:nonzero;stroke:none"
                     d="M 15.87538,22.36272 C 14.04811,32.72618 4.16545,39.64613 -6.19801,37.81885 c -3.85018,-0.6788 -7.40021,-2.52709 -10.16463,-5.29151 l 7.22603,-10.97441 c 3.39845,5.88632 7.30752,5.40885 11.86969,3.74839 5.62744,4.72201 12.68502,2.28874 13.1423,-2.9386" /></g><g
                   id="g252"><g
                     id="g254" /></g><g
                   id="g256"><g
                     id="g258" /></g><g
                   id="g260"><g
                     id="g262" /></g><g
                   id="g264"><g
                     id="g266" /></g><g
                   id="g268"><g
                     id="g270" /></g><g
                   id="g272"><g
                     id="g274"><g
                       clip-path="url(#clipPath280)"
                       id="g276"><g
                         transform="matrix(0.60418867,-0.73053329,0.60418867,0.73053329,-5.7915,15.34827)"
                         id="g282"><g
                           id="g284"><g
                             transform="translate(-50,-50)"
                             id="g286"><g
                               id="g288"><g
                                 clip-path="url(#clipPath294)"
                                 id="g290"><path
                                   id="path308"
                                   style="fill:url(#linearGradient306);stroke:none"
                                   d="M 0,0 H 100 V 100 H 0 Z" /></g></g></g></g></g></g></g><path
                     id="path310"
                     style="fill:none;stroke:#d6b489;stroke-width:0.3985;stroke-linecap:butt;stroke-linejoin:bevel;stroke-miterlimit:10;stroke-dasharray:none;stroke-opacity:1"
                     d="m 15.56778,22.30847 c 0,2.59801 -0.38637,4.17896 -1.68535,6.42883 -5.34795,9.26285 -17.1922,12.43653 -26.45503,7.08858 -2.94325,-1.69926 -5.38931,-4.14531 -7.08858,-7.08858 -1.93806,-0.34164 -2.54672,-3.68498 -1.03924,-4.94995 -1.64273,0.94847 -3.01705,-3.22142 -1.67571,-4.56274 -1.7214,0.80264 -2.75967,-3.47926 -1.30473,-4.70011 -1.78821,0.6508 -2.5062,-3.69364 -0.94744,-4.78514 -1.82652,0.48942 -2.1597,-3.86628 -0.52209,-4.81172 -2.0004,0.35269 -1.72548,-3.38957 -0.70989,-5.14869 3.99164,-6.91376 10.26206,-7.52584 17.76386,-10.25623 -2.26225,12.83037 -3.30244,20.44934 -1.04019,33.27972 1.22522,6.94893 7.13356,6.7215 11.86969,4.99773 6.6803,5.6055 12.62555,0.50006 12.8347,-5.4917 z" /><g
                     id="g312"><g
                       id="g314"><g
                         id="g316"><path
                           id="path318"
                           style="fill:#ba8937;fill-opacity:1;fill-rule:nonzero;stroke:none"
                           d="m -8.13359,-10.26654 c -6.60429,1.16991 -15.14291,3.44461 -18.27747,11.22047 3.0707,-7.61735 11.68894,-9.397 18.15857,-10.543" /></g><g
                         id="g320"><path
                           id="path322"
                           style="fill:#ba8937;fill-opacity:1;fill-rule:nonzero;stroke:none"
                           d="m -9.01996,-5.21634 c -1.46261,-0.2567 -2.44017,-1.65045 -2.18347,-3.11306 0.2567,-1.4626 1.65045,-2.44016 3.11307,-2.18346 1.46261,0.2567 2.44016,1.65045 2.18346,3.11306 -0.2567,1.46262 -1.65046,2.44016 -3.11306,2.18346 z" /></g><g
                         id="g324"><path
                           id="path326"
                           style="fill:#e6d0b5;fill-opacity:1;fill-rule:nonzero;stroke:#ba8937;stroke-width:0.3985;stroke-linecap:butt;stroke-linejoin:bevel;stroke-miterlimit:10;stroke-dasharray:none;stroke-opacity:1"
                           d="m -8.77957,-5.68204 c -1.25853,-0.22088 -2.09969,-1.42016 -1.8788,-2.67869 0.22089,-1.25853 1.42017,-2.09969 2.67869,-1.8788 1.25853,0.22088 2.09969,1.42016 1.8788,2.67869 -0.22088,1.25854 -1.42018,2.09969 -2.67869,1.8788 z" /></g></g><g
                       id="g328"><g
                         id="g330"><path
                           id="path332"
                           style="fill:#ba8937;fill-opacity:1;fill-rule:nonzero;stroke:none"
                           d="m -9.01361,-5.09232 c -6.06401,1.17325 -14.01825,2.91378 -17.04099,10.01806 2.9483,-6.9293 11.01816,-8.19417 16.93277,-9.33847" /></g><g
                         id="g334"><path
                           id="path336"
                           style="fill:#ba8937;fill-opacity:1;fill-rule:nonzero;stroke:none"
                           d="m -9.82048,-0.02634 c -1.46718,-0.23367 -2.46709,-1.61247 -2.23342,-3.07965 0.23366,-1.46716 1.61248,-2.46708 3.07964,-2.23341 1.46718,0.23367 2.46709,1.61247 2.23342,3.07965 -0.23366,1.46718 -1.61248,2.46707 -3.07964,2.23341 z" /></g><g
                         id="g338"><path
                           id="path340"
                           style="fill:#e6d0b5;fill-opacity:1;fill-rule:nonzero;stroke:#ba8937;stroke-width:0.3985;stroke-linecap:butt;stroke-linejoin:bevel;stroke-miterlimit:10;stroke-dasharray:none;stroke-opacity:1"
                           d="m -9.58736,-0.49602 c -1.26245,-0.20108 -2.12286,-1.38749 -1.92178,-2.64995 0.20108,-1.26245 1.3875,-2.12284 2.64995,-1.92176 1.26245,0.20106 2.12285,1.38749 1.92178,2.64994 -0.20108,1.26244 -1.38751,2.12285 -2.64995,1.92177 z" /></g></g><g
                       id="g342"><g
                         id="g344"><path
                           id="path346"
                           style="fill:#ba8937;fill-opacity:1;fill-rule:nonzero;stroke:none"
                           d="m -9.76675,0.1021 c -5.48305,1.27603 -12.803,2.70894 -15.54107,9.19137 2.67254,-6.3273 10.10668,-7.26355 15.45855,-8.50907" /></g><g
                         id="g348"><path
                           id="path350"
                           style="fill:#ba8937;fill-opacity:1;fill-rule:nonzero;stroke:none"
                           d="m -10.38211,5.18826 c -1.47301,-0.17822 -2.52263,-1.5168 -2.34442,-2.9898 0.17822,-1.47301 1.5168,-2.52262 2.98981,-2.34441 1.473,0.17821 2.52262,1.51678 2.34442,2.98979 -0.17821,1.47301 -1.5168,2.52263 -2.98981,2.34442 z" /></g><g
                         id="g352"><path
                           id="path354"
                           style="fill:#e6d0b5;fill-opacity:1;fill-rule:nonzero;stroke:#ba8937;stroke-width:0.3985;stroke-linecap:butt;stroke-linejoin:bevel;stroke-miterlimit:10;stroke-dasharray:none;stroke-opacity:1"
                           d="m -10.16702,4.71078 c -1.26749,-0.15335 -2.17066,-1.30516 -2.01731,-2.57263 0.15334,-1.26748 1.30515,-2.17064 2.57263,-2.0173 1.26748,0.15334 2.17064,1.30515 2.0173,2.57263 -0.15334,1.26747 -1.30515,2.17064 -2.57262,2.0173 z" /></g></g><g
                       id="g356"><g
                         id="g358"><path
                           id="path360"
                           style="fill:#ba8937;fill-opacity:1;fill-rule:nonzero;stroke:none"
                           d="m -10.2666,5.32571 c -4.89714,1.47026 -11.53285,2.77224 -13.85336,8.72767 2.26629,-5.81621 9.03118,-6.60538 13.81394,-8.04134" /></g><g
                         id="g362"><path
                           id="path364"
                           style="fill:#ba8937;fill-opacity:1;fill-rule:nonzero;stroke:none"
                           d="m -10.56055,10.44196 c -1.48173,-0.08513 -2.61387,-1.35531 -2.52875,-2.83704 0.08513,-1.48174 1.3553,-2.61388 2.83704,-2.52875 1.48175,0.08513 2.61388,1.3553 2.52875,2.83704 -0.08513,1.48175 -1.3553,2.61387 -2.83704,2.52875 z" /></g><g
                         id="g366"><path
                           id="path368"
                           style="fill:#e6d0b5;fill-opacity:1;fill-rule:nonzero;stroke:#ba8937;stroke-width:0.3985;stroke-linecap:butt;stroke-linejoin:bevel;stroke-miterlimit:10;stroke-dasharray:none;stroke-opacity:1"
                           d="m -10.37592,9.95175 c -1.27498,-0.07324 -2.24914,-1.1662 -2.1759,-2.44118 0.07324,-1.27497 1.1662,-2.24914 2.44118,-2.1759 1.27496,0.07324 2.24914,1.1662 2.1759,2.44118 -0.07324,1.27498 -1.16621,2.24915 -2.44118,2.1759 z" /></g></g><g
                       id="g370"><g
                         id="g372"><path
                           id="path374"
                           style="fill:#ba8937;fill-opacity:1;fill-rule:nonzero;stroke:none"
                           d="m -10.39261,10.57144 c -4.27437,1.66261 -10.21933,2.93999 -12.06174,8.36886 1.79205,-5.28074 7.91909,-6.06455 12.07675,-7.6818" /></g><g
                         id="g376"><path
                           id="path378"
                           style="fill:#ba8937;fill-opacity:1;fill-rule:nonzero;stroke:none"
                           d="m -10.28047,15.69308 c -1.48328,0.03248 -2.71205,-1.14361 -2.74454,-2.6269 -0.03247,-1.48328 1.14361,-2.71205 2.62691,-2.74452 1.48329,-0.03248 2.71206,1.14361 2.74454,2.62689 0.03246,1.48329 -1.14362,2.71206 -2.62691,2.74453 z" /></g><g
                         id="g380"><path
                           id="path382"
                           style="fill:#e6d0b5;fill-opacity:1;fill-rule:nonzero;stroke:#ba8937;stroke-width:0.3985;stroke-linecap:butt;stroke-linejoin:bevel;stroke-miterlimit:10;stroke-dasharray:none;stroke-opacity:1"
                           d="m -10.1353,15.18999 c -1.27634,0.02794 -2.33365,-0.98404 -2.36159,-2.26036 -0.02794,-1.27634 0.98404,-2.33365 2.26038,-2.36159 1.27632,-0.02794 2.33363,0.98404 2.36157,2.26037 0.02794,1.27633 -0.98404,2.33364 -2.26036,2.36158 z" /></g></g><g
                       id="g384"><g
                         id="g386"><path
                           id="path388"
                           style="fill:#ba8937;fill-opacity:1;fill-rule:nonzero;stroke:none"
                           d="m -10.09996,15.8104 c -3.65857,1.75787 -8.93642,2.9871 -10.36351,7.8559 1.38911,-4.73927 6.87019,-5.46046 10.43137,-7.17149" /></g><g
                         id="g390"><path
                           id="path392"
                           style="fill:#ba8937;fill-opacity:1;fill-rule:nonzero;stroke:none"
                           d="m -9.59402,20.91241 c -1.4776,0.14652 -2.79421,-0.93252 -2.94074,-2.41012 -0.14651,-1.4776 0.93253,-2.79422 2.41013,-2.94074 1.4776,-0.14651 2.79422,0.93253 2.94073,2.41013 0.14652,1.4776 -0.93252,2.79422 -2.41012,2.94073 z" /></g><g
                         id="g394"><path
                           id="path396"
                           style="fill:#e6d0b5;fill-opacity:1;fill-rule:nonzero;stroke:#ba8937;stroke-width:0.3985;stroke-linecap:butt;stroke-linejoin:bevel;stroke-miterlimit:10;stroke-dasharray:none;stroke-opacity:1"
                           d="m -9.48788,20.39922 c -1.27143,0.12608 -2.40435,-0.8024 -2.53042,-2.07384 -0.12606,-1.27142 0.8024,-2.40434 2.07384,-2.53041 1.27144,-0.12607 2.40434,0.80241 2.53041,2.07383 0.12607,1.27144 -0.8024,2.40435 -2.07383,2.53042 z" /></g></g><g
                       id="g398"><g
                         id="g400"><path
                           id="path402"
                           style="fill:#ba8937;fill-opacity:1;fill-rule:nonzero;stroke:none"
                           d="m -9.43623,21.01634 c -3.07521,1.71896 -7.70186,2.81466 -8.8264,7.07245 1.09526,-4.14697 5.94123,-4.71966 8.93635,-6.39389" /></g><g
                         id="g404"><path
                           id="path406"
                           style="fill:#ba8937;fill-opacity:1;fill-rule:nonzero;stroke:none"
                           d="m -8.61655,26.07468 c -1.46495,0.23738 -2.84495,-0.75774 -3.08235,-2.22269 -0.2374,-1.46495 0.75772,-2.84496 2.22267,-3.08235 1.46497,-0.2374 2.84497,0.75772 3.08235,2.22267 0.2374,1.46497 -0.75772,2.84497 -2.22267,3.08237 z" /></g><g
                         id="g408"><path
                           id="path410"
                           style="fill:#e6d0b5;fill-opacity:1;fill-rule:nonzero;stroke:#ba8937;stroke-width:0.3985;stroke-linecap:butt;stroke-linejoin:bevel;stroke-miterlimit:10;stroke-dasharray:none;stroke-opacity:1"
                           d="m -8.54233,25.55618 c -1.26056,0.20427 -2.44801,-0.65199 -2.65228,-1.91253 -0.20427,-1.26055 0.65201,-2.44802 1.91255,-2.65229 1.26055,-0.20426 2.448,0.65201 2.65227,1.91256 0.20427,1.26054 -0.65199,2.44801 -1.91254,2.65226 z" /></g></g></g></g></g></g><g
               transform="translate(0,-40.919)"
               id="g412"><g
                 id="g414" /><g
                 transform="translate(0,40.919)"
                 id="g416" /></g></g></g></g></g></g></svg>