<?xml version="1.0" encoding="UTF-8" standalone="no"?>
<svg
   xmlns:dc="http://purl.org/dc/elements/1.1/"
   xmlns:cc="http://creativecommons.org/ns#"
   xmlns:rdf="http://www.w3.org/1999/02/22-rdf-syntax-ns#"
   xmlns:svg="http://www.w3.org/2000/svg"
   xmlns="http://www.w3.org/2000/svg"
   viewBox="0 0 83.826668 115.06267"
   height="115.06267"
   width="83.826668"
   xml:space="preserve"
   id="svg2"
   version="1.1"><metadata
     id="metadata8"><rdf:RDF><cc:Work
         rdf:about=""><dc:format>image/svg+xml</dc:format><dc:type
           rdf:resource="http://purl.org/dc/dcmitype/StillImage" /></cc:Work></rdf:RDF></metadata><defs
     id="defs6"><clipPath
       id="clipPath32"
       clipPathUnits="userSpaceOnUse"><path
         id="path30"
         d="m -27.87833,-30.92381 c 12.49448,-12.49448 43.73066,-6.24724 56.22513,6.24724 0,43.73065 -62.47236,43.73065 -56.22513,-6.24724 z" /></clipPath><clipPath
       id="clipPath46"
       clipPathUnits="userSpaceOnUse"><path
         id="path44"
         d="M 0,0 H 100 V 100 H 0 Z" /></clipPath><linearGradient
       id="linearGradient58"
       gradientUnits="userSpaceOnUse"
       y2="100.00128"
       x2="0"
       y1="0"
       x1="0"><stop
         id="stop48"
         offset="0"
         style="stop-opacity:1;stop-color:#ededed" /><stop
         id="stop50"
         offset="25.00032"
         style="stop-opacity:1;stop-color:#ededed" /><stop
         id="stop52"
         offset="50.00064"
         style="stop-opacity:1;stop-color:#f1f1f1" /><stop
         id="stop54"
         offset="75.00096"
         style="stop-opacity:1;stop-color:#f6f6f6" /><stop
         id="stop56"
         offset="100.00128"
         style="stop-opacity:1;stop-color:#f6f6f6" /></linearGradient><clipPath
       id="clipPath70"
       clipPathUnits="userSpaceOnUse"><path
         id="path68"
         d="M -14.16853,4.0861 6.48146,-21.55295 9.65121,5.1265 Z" /></clipPath><clipPath
       id="clipPath80"
       clipPathUnits="userSpaceOnUse"><path
         id="path78"
         d="M -14.5445,3.58717 6.48146,-21.55295 10.06921,4.66226 Z" /></clipPath><clipPath
       id="clipPath94"
       clipPathUnits="userSpaceOnUse"><path
         id="path92"
         d="M 0,0 H 100 V 100 H 0 Z" /></clipPath><linearGradient
       id="linearGradient106"
       gradientUnits="userSpaceOnUse"
       y2="100.00128"
       x2="0"
       y1="0"
       x1="0"><stop
         id="stop96"
         offset="0"
         style="stop-opacity:1;stop-color:#ebebf5" /><stop
         id="stop98"
         offset="25.00032"
         style="stop-opacity:1;stop-color:#ebebf5" /><stop
         id="stop100"
         offset="50.00064"
         style="stop-opacity:1;stop-color:#f0f0f7" /><stop
         id="stop102"
         offset="75.00096"
         style="stop-opacity:1;stop-color:#f5f5fa" /><stop
         id="stop104"
         offset="100.00128"
         style="stop-opacity:1;stop-color:#f5f5fa" /></linearGradient><clipPath
       id="clipPath124"
       clipPathUnits="userSpaceOnUse"><path
         id="path122"
         d="M -23.43616,11.57562 C -19.30591,0.22794 -6.75862,-5.62292 4.58907,-1.49269 9.4191,0.26529 13.47664,3.67003 16.04659,8.12141" /></clipPath><clipPath
       id="clipPath138"
       clipPathUnits="userSpaceOnUse"><path
         id="path136"
         d="M 0,0 H 100 V 100 H 0 Z" /></clipPath><linearGradient
       id="linearGradient150"
       gradientUnits="userSpaceOnUse"
       y2="100.00128"
       x2="0"
       y1="0"
       x1="0"><stop
         id="stop140"
         offset="0"
         style="stop-opacity:1;stop-color:#dea964" /><stop
         id="stop142"
         offset="25.00032"
         style="stop-opacity:1;stop-color:#dea964" /><stop
         id="stop144"
         offset="50.00064"
         style="stop-opacity:1;stop-color:#e7bf8b" /><stop
         id="stop146"
         offset="75.00096"
         style="stop-opacity:1;stop-color:#efd4b1" /><stop
         id="stop148"
         offset="100.00128"
         style="stop-opacity:1;stop-color:#efd4b1" /></linearGradient><clipPath
       id="clipPath162"
       clipPathUnits="userSpaceOnUse"><path
         id="path160"
         d="m -27.87833,-30.92381 c 12.49448,-12.49448 43.73066,-6.24724 56.22513,6.24724 0,43.73065 -62.47236,43.73065 -56.22513,-6.24724" /></clipPath><clipPath
       id="clipPath172"
       clipPathUnits="userSpaceOnUse"><path
         id="path170"
         d="M -14.16853,4.0861 6.48146,-21.55295 9.65121,5.1265 V 17.62097 L 18.97594,0.31236 c -1.87419,-6.24722 -8.12144,-18.7417 -12.49448,-21.86531 -12.49445,6.24724 -21.86531,16.24286 -33.11035,8.7461 v 12.49447 z" /></clipPath><clipPath
       id="clipPath186"
       clipPathUnits="userSpaceOnUse"><path
         id="path184"
         d="M 0,0 H 100 V 100 H 0 Z" /></clipPath><linearGradient
       id="linearGradient198"
       gradientUnits="userSpaceOnUse"
       y2="100.00128"
       x2="0"
       y1="0"
       x1="0"><stop
         id="stop188"
         offset="0"
         style="stop-opacity:1;stop-color:#3758a1" /><stop
         id="stop190"
         offset="25.00032"
         style="stop-opacity:1;stop-color:#3758a1" /><stop
         id="stop192"
         offset="50.00064"
         style="stop-opacity:1;stop-color:#6982b9" /><stop
         id="stop194"
         offset="75.00096"
         style="stop-opacity:1;stop-color:#9babd0" /><stop
         id="stop196"
         offset="100.00128"
         style="stop-opacity:1;stop-color:#9babd0" /></linearGradient><clipPath
       id="clipPath210"
       clipPathUnits="userSpaceOnUse"><path
         id="path208"
         d="M -14.16853,4.0861 6.48146,-21.55295 c -12.49445,6.24724 -21.86531,16.24286 -33.11035,8.7461 v 12.49447" /></clipPath><clipPath
       id="clipPath226"
       clipPathUnits="userSpaceOnUse"><path
         id="path224"
         d="M 6.48146,-21.55295 9.65121,5.1265 V 17.62097 L 18.97594,0.31236 C 17.10175,-5.93486 10.8545,-18.42934 6.48146,-21.55295" /></clipPath><clipPath
       id="clipPath244"
       clipPathUnits="userSpaceOnUse"><path
         id="path242"
         d="m 15.85233,19.05408 c 0,10.35089 -8.39083,18.74171 -18.7417,18.74171 -10.35089,0 -18.74172,-8.39082 -18.74172,-18.74171 0,-10.35089 8.39083,-18.74172 18.74172,-18.74172 10.35087,0 18.7417,8.39083 18.7417,18.74172 z" /></clipPath><clipPath
       id="clipPath258"
       clipPathUnits="userSpaceOnUse"><path
         id="path256"
         d="M 0,0 H 100 V 100 H 0 Z" /></clipPath><linearGradient
       id="linearGradient270"
       gradientUnits="userSpaceOnUse"
       y2="100.00128"
       x2="0"
       y1="0"
       x1="0"><stop
         id="stop260"
         offset="0"
         style="stop-opacity:1;stop-color:#dea964" /><stop
         id="stop262"
         offset="25.00032"
         style="stop-opacity:1;stop-color:#dea964" /><stop
         id="stop264"
         offset="50.00064"
         style="stop-opacity:1;stop-color:#e7bf8b" /><stop
         id="stop266"
         offset="75.00096"
         style="stop-opacity:1;stop-color:#efd4b1" /><stop
         id="stop268"
         offset="100.00128"
         style="stop-opacity:1;stop-color:#efd4b1" /></linearGradient><clipPath
       id="clipPath284"
       clipPathUnits="userSpaceOnUse"><path
         id="path282"
         d="M 14.09642,26.97475 C 9.72194,36.3558 -1.429,40.41437 -10.81004,36.03989 -16.87769,33.21045 -20.9761,27.35698 -21.55959,20.68756 c -0.33515,-3.83082 0.51668,-7.67406 2.43938,-11.00433 l -0.01201,6.24724 5.62256,-3.12363 v 11.24504 c 10.68471,-1.88393 18.21025,-2.50182 27.60608,2.92287 z" /></clipPath><clipPath
       id="clipPath298"
       clipPathUnits="userSpaceOnUse"><path
         id="path296"
         d="M 0,0 H 100 V 100 H 0 Z" /></clipPath><linearGradient
       id="linearGradient310"
       gradientUnits="userSpaceOnUse"
       y2="100.00128"
       x2="0"
       y1="0"
       x1="0"><stop
         id="stop300"
         offset="0"
         style="stop-opacity:1;stop-color:#8f6433" /><stop
         id="stop302"
         offset="25.00032"
         style="stop-opacity:1;stop-color:#8f6433" /><stop
         id="stop304"
         offset="50.00064"
         style="stop-opacity:1;stop-color:#ab8b66" /><stop
         id="stop306"
         offset="75.00096"
         style="stop-opacity:1;stop-color:#c7b199" /><stop
         id="stop308"
         offset="100.00128"
         style="stop-opacity:1;stop-color:#c7b199" /></linearGradient><clipPath
       id="clipPath324"
       clipPathUnits="userSpaceOnUse"><path
         id="path322"
         d="m -21.00632,37.17102 2.49887,-8.74609 c 10.98853,-3.99948 18.9982,-3.99948 29.98673,0 l 2.49885,8.74609" /></clipPath><clipPath
       id="clipPath338"
       clipPathUnits="userSpaceOnUse"><path
         id="path336"
         d="M 0,0 H 100 V 100 H 0 Z" /></clipPath><linearGradient
       id="linearGradient350"
       gradientUnits="userSpaceOnUse"
       y2="100.00128"
       x2="0"
       y1="0"
       x1="0"><stop
         id="stop340"
         offset="0"
         style="stop-opacity:1;stop-color:#ededed" /><stop
         id="stop342"
         offset="25.00032"
         style="stop-opacity:1;stop-color:#ededed" /><stop
         id="stop344"
         offset="50.00064"
         style="stop-opacity:1;stop-color:#f1f1f1" /><stop
         id="stop346"
         offset="75.00096"
         style="stop-opacity:1;stop-color:#f6f6f6" /><stop
         id="stop348"
         offset="100.00128"
         style="stop-opacity:1;stop-color:#f6f6f6" /></linearGradient><clipPath
       id="clipPath364"
       clipPathUnits="userSpaceOnUse"><path
         id="path362"
         d="m 13.97823,37.17102 c 0,2.76024 -7.83144,4.9978 -17.49227,4.9978 -9.66084,0 -17.49228,-2.23756 -17.49228,-4.9978 0,-2.76024 7.83144,-4.9978 17.49228,-4.9978 9.66083,0 17.49227,2.23756 17.49227,4.9978 z" /></clipPath><clipPath
       id="clipPath378"
       clipPathUnits="userSpaceOnUse"><path
         id="path376"
         d="M 0,0 H 100 V 100 H 0 Z" /></clipPath><linearGradient
       id="linearGradient390"
       gradientUnits="userSpaceOnUse"
       y2="100.00128"
       x2="0"
       y1="0"
       x1="0"><stop
         id="stop380"
         offset="0"
         style="stop-opacity:1;stop-color:#ededed" /><stop
         id="stop382"
         offset="25.00032"
         style="stop-opacity:1;stop-color:#ededed" /><stop
         id="stop384"
         offset="50.00064"
         style="stop-opacity:1;stop-color:#f1f1f1" /><stop
         id="stop386"
         offset="75.00096"
         style="stop-opacity:1;stop-color:#f6f6f6" /><stop
         id="stop388"
         offset="100.00128"
         style="stop-opacity:1;stop-color:#f6f6f6" /></linearGradient><clipPath
       id="clipPath402"
       clipPathUnits="userSpaceOnUse"><path
         id="path400"
         d="m 13.97823,37.17102 c 0,2.76024 -7.83144,4.9978 -17.49227,4.9978 -9.66084,0 -17.49228,-2.23756 -17.49228,-4.9978 0,-2.76024 7.83144,-4.9978 17.49228,-4.9978 9.66083,0 17.49227,2.23756 17.49227,4.9978 z" /></clipPath><clipPath
       id="clipPath412"
       clipPathUnits="userSpaceOnUse"><path
         id="path410"
         d="m 8.98042,34.04741 c 0,2.41518 -5.59388,4.37305 -12.49446,4.37305 -6.90059,0 -12.49447,-1.95787 -12.49447,-4.37305 0,-2.41519 5.59388,-4.37305 12.49447,-4.37305 6.90058,0 12.49446,1.95786 12.49446,4.37305 z" /></clipPath><clipPath
       id="clipPath426"
       clipPathUnits="userSpaceOnUse"><path
         id="path424"
         d="M 0,0 H 100 V 100 H 0 Z" /></clipPath><linearGradient
       id="linearGradient438"
       gradientUnits="userSpaceOnUse"
       y2="100.00128"
       x2="0"
       y1="0"
       x1="0"><stop
         id="stop428"
         offset="0"
         style="stop-opacity:1;stop-color:#ededed" /><stop
         id="stop430"
         offset="25.00032"
         style="stop-opacity:1;stop-color:#ededed" /><stop
         id="stop432"
         offset="50.00064"
         style="stop-opacity:1;stop-color:#f1f1f1" /><stop
         id="stop434"
         offset="75.00096"
         style="stop-opacity:1;stop-color:#f6f6f6" /><stop
         id="stop436"
         offset="100.00128"
         style="stop-opacity:1;stop-color:#f6f6f6" /></linearGradient><clipPath
       id="clipPath452"
       clipPathUnits="userSpaceOnUse"><path
         id="path450"
         d="m 1.48375,39.04521 c 0,1.89766 -2.23755,3.43599 -4.99779,3.43599 -2.76024,0 -4.9978,-1.53833 -4.9978,-3.43599 0,-1.89766 2.23756,-3.43601 4.9978,-3.43601 2.76024,0 4.99779,1.53835 4.99779,3.43601 z" /></clipPath><clipPath
       id="clipPath466"
       clipPathUnits="userSpaceOnUse"><path
         id="path464"
         d="M 0,0 H 100 V 100 H 0 Z" /></clipPath><linearGradient
       id="linearGradient478"
       gradientUnits="userSpaceOnUse"
       y2="100.00128"
       x2="0"
       y1="0"
       x1="0"><stop
         id="stop468"
         offset="0"
         style="stop-opacity:1;stop-color:#3758a1" /><stop
         id="stop470"
         offset="25.00032"
         style="stop-opacity:1;stop-color:#3758a1" /><stop
         id="stop472"
         offset="50.00064"
         style="stop-opacity:1;stop-color:#6982b9" /><stop
         id="stop474"
         offset="75.00096"
         style="stop-opacity:1;stop-color:#9babd0" /><stop
         id="stop476"
         offset="100.00128"
         style="stop-opacity:1;stop-color:#9babd0" /></linearGradient></defs><g
     transform="matrix(1.3333333,0,0,-1.3333333,0,115.06267)"
     id="g10"><g
       transform="translate(34.324,43.617)"
       id="g12"><g
         id="g14"><g
           id="g16"><g
             id="g18"><g
               id="g20"><g
                 id="g22"><g
                   id="g24"><g
                     id="g26"><g
                       clip-path="url(#clipPath32)"
                       id="g28"><g
                         transform="matrix(0.88358509,0.88358509,-0.88358509,0.88358509,-2.88937,-12.1821)"
                         id="g34"><g
                           id="g36"><g
                             transform="translate(-50,-50)"
                             id="g38"><g
                               id="g40"><g
                                 clip-path="url(#clipPath46)"
                                 id="g42"><path
                                   id="path60"
                                   style="fill:url(#linearGradient58);stroke:none"
                                   d="M 0,0 H 100 V 100 H 0 Z" /></g></g></g></g></g></g></g><path
                     id="path62"
                     style="fill:none;stroke:#ededed;stroke-width:0.3985;stroke-linecap:butt;stroke-linejoin:miter;stroke-miterlimit:10;stroke-dasharray:none;stroke-opacity:1"
                     d="m -27.87833,-30.92381 c 12.49448,-12.49448 43.73066,-6.24724 56.22513,6.24724 0,43.73065 -62.47236,43.73065 -56.22513,-6.24724 z" /></g><g
                   id="g64"><g
                     clip-path="url(#clipPath70)"
                     id="g66"><g
                       id="g72"><g
                         id="g74"><g
                           clip-path="url(#clipPath80)"
                           id="g76"><g
                             transform="matrix(0.34811947,0.37078203,-0.34811947,0.37078203,-2.23763,-8.44533)"
                             id="g82"><g
                               id="g84"><g
                                 transform="translate(-50,-50)"
                                 id="g86"><g
                                   id="g88"><g
                                   clip-path="url(#clipPath94)"
                                   id="g90"><path
                                   id="path108"
                                   style="fill:url(#linearGradient106);stroke:none"
                                   d="M 0,0 H 100 V 100 H 0 Z" /></g></g></g></g></g></g></g><path
                         id="path110"
                         style="fill:none;stroke:#ebebf5;stroke-width:0.3985;stroke-linecap:butt;stroke-linejoin:miter;stroke-miterlimit:10;stroke-dasharray:none;stroke-opacity:1"
                         d="M -14.5445,3.58717 6.48146,-21.55295 10.06921,4.66226 Z" /></g><g
                       id="g112"><path
                         id="path114"
                         style="fill:none;stroke:#707070;stroke-width:0.93703002;stroke-linecap:square;stroke-linejoin:miter;stroke-miterlimit:10;stroke-dasharray:none;stroke-opacity:1"
                         d="m -6.01299,-5.93486 c 6.57799,0 13.04497,1.73276 18.7417,5.02174 m -18.7417,-9.39478 c 6.57799,0 13.04497,1.73275 18.7417,5.02174 m -18.7417,-9.39479 c 6.57799,0 13.04497,1.73275 18.7417,5.02174 m -18.7417,-9.39489 c 6.57799,0 13.04497,1.73277 18.7417,5.02175" /></g><g
                       id="g116"><g
                         id="g118"><g
                           clip-path="url(#clipPath124)"
                           id="g120"><g
                             transform="matrix(0.55843223,0.24324947,-0.55843223,0.24324947,-3.69478,2.97635)"
                             id="g126"><g
                               id="g128"><g
                                 transform="translate(-50,-50)"
                                 id="g130"><g
                                   id="g132"><g
                                   clip-path="url(#clipPath138)"
                                   id="g134"><path
                                   id="path152"
                                   style="fill:url(#linearGradient150);stroke:none"
                                   d="M 0,0 H 100 V 100 H 0 Z" /></g></g></g></g></g></g></g><path
                         id="path154"
                         style="fill:none;stroke:#dea964;stroke-width:0.3985;stroke-linecap:butt;stroke-linejoin:miter;stroke-miterlimit:10;stroke-dasharray:none;stroke-opacity:1"
                         d="M -23.43616,11.57562 C -19.30591,0.22794 -6.75862,-5.62292 4.58907,-1.49269 9.4191,0.26529 13.47664,3.67003 16.04659,8.12141" /></g></g></g><g
                   id="g156"><g
                     clip-path="url(#clipPath162)"
                     id="g158"><g
                       id="g164"><g
                         id="g166"><g
                           clip-path="url(#clipPath172)"
                           id="g168"><g
                             transform="matrix(0.64501662,0.55406235,-0.64501662,0.55406235,-3.82646,-1.96597)"
                             id="g174"><g
                               id="g176"><g
                                 transform="translate(-50,-50)"
                                 id="g178"><g
                                   id="g180"><g
                                   clip-path="url(#clipPath186)"
                                   id="g182"><path
                                   id="path200"
                                   style="fill:url(#linearGradient198);stroke:none"
                                   d="M 0,0 H 100 V 100 H 0 Z" /></g></g></g></g></g></g></g><path
                         id="path202"
                         style="fill:none;stroke:#3758a1;stroke-width:0.3985;stroke-linecap:butt;stroke-linejoin:miter;stroke-miterlimit:10;stroke-dasharray:none;stroke-opacity:1"
                         d="M -14.16853,4.0861 6.48146,-21.55295 9.65121,5.1265 V 17.62097 L 18.97594,0.31236 c -1.87419,-6.24722 -8.12144,-18.7417 -12.49448,-21.86531 -12.49445,6.24724 -21.86531,16.24286 -33.11035,8.7461 v 12.49447 z" /></g><g
                       id="g204"><g
                         clip-path="url(#clipPath210)"
                         id="g206"><g
                           id="g212"><path
                             id="path214"
                             style="fill:none;stroke:#ffffff;stroke-width:0.3985;stroke-linecap:butt;stroke-linejoin:miter;stroke-miterlimit:10;stroke-dasharray:none;stroke-opacity:1"
                             d="m 6.48146,-19.99113 c -12.49445,6.24723 -21.86531,16.24285 -33.11035,8.74609" /></g><g
                           id="g216"><path
                             id="path218"
                             style="fill:none;stroke:#ffffff;stroke-width:0.3985;stroke-linecap:butt;stroke-linejoin:miter;stroke-miterlimit:10;stroke-dasharray:none;stroke-opacity:1"
                             d="m 6.48146,-18.42934 c -12.49445,6.24724 -21.86531,16.24286 -33.11035,8.74611" /></g></g></g><g
                       id="g220"><g
                         clip-path="url(#clipPath226)"
                         id="g222"><g
                           id="g228"><path
                             id="path230"
                             style="fill:none;stroke:#ffffff;stroke-width:0.3985;stroke-linecap:butt;stroke-linejoin:miter;stroke-miterlimit:10;stroke-dasharray:none;stroke-opacity:1"
                             d="M 17.41414,1.87418 C 15.53995,-5.93486 9.29271,-18.42934 4.91966,-21.55295" /></g><g
                           id="g232"><path
                             id="path234"
                             style="fill:none;stroke:#ffffff;stroke-width:0.3985;stroke-linecap:butt;stroke-linejoin:miter;stroke-miterlimit:10;stroke-dasharray:none;stroke-opacity:1"
                             d="M 15.85233,2.18655 C 13.97813,-5.93486 7.7309,-18.42934 3.35785,-21.55295" /></g></g></g></g></g><g
                   id="g236"><g
                     id="g238"><g
                       clip-path="url(#clipPath244)"
                       id="g240"><g
                         transform="matrix(0.5301553,0.5301553,-0.5301553,0.5301553,-2.88937,19.05408)"
                         id="g246"><g
                           id="g248"><g
                             transform="translate(-50,-50)"
                             id="g250"><g
                               id="g252"><g
                                 clip-path="url(#clipPath258)"
                                 id="g254"><path
                                   id="path272"
                                   style="fill:url(#linearGradient270);stroke:none"
                                   d="M 0,0 H 100 V 100 H 0 Z" /></g></g></g></g></g></g></g><path
                     id="path274"
                     style="fill:none;stroke:#dea964;stroke-width:0.3985;stroke-linecap:butt;stroke-linejoin:miter;stroke-miterlimit:10;stroke-dasharray:none;stroke-opacity:1"
                     d="m 15.85233,19.05408 c 0,10.35089 -8.39083,18.74171 -18.7417,18.74171 -10.35089,0 -18.74172,-8.39082 -18.74172,-18.74171 0,-10.35089 8.39083,-18.74172 18.74172,-18.74172 10.35087,0 18.7417,8.39083 18.7417,18.74172 z" /></g><g
                   id="g276"><g
                     id="g278"><g
                       clip-path="url(#clipPath284)"
                       id="g280"><g
                         transform="matrix(0.50904836,0.4346473,-0.50904836,0.4346473,-3.89915,25.0488)"
                         id="g286"><g
                           id="g288"><g
                             transform="translate(-50,-50)"
                             id="g290"><g
                               id="g292"><g
                                 clip-path="url(#clipPath298)"
                                 id="g294"><path
                                   id="path312"
                                   style="fill:url(#linearGradient310);stroke:none"
                                   d="M 0,0 H 100 V 100 H 0 Z" /></g></g></g></g></g></g></g><path
                     id="path314"
                     style="fill:none;stroke:#8f6433;stroke-width:0.3985;stroke-linecap:butt;stroke-linejoin:miter;stroke-miterlimit:10;stroke-dasharray:none;stroke-opacity:1"
                     d="M 14.09642,26.97475 C 9.72194,36.3558 -1.429,40.41437 -10.81004,36.03989 -16.87769,33.21045 -20.9761,27.35698 -21.55959,20.68756 c -0.33515,-3.83082 0.51668,-7.67406 2.43938,-11.00433 l -0.01201,6.24724 5.62256,-3.12363 v 11.24504 c 10.68471,-1.88393 18.21025,-2.50182 27.60608,2.92287 z" /></g><g
                   id="g316"><g
                     id="g318"><g
                       clip-path="url(#clipPath324)"
                       id="g320"><g
                         transform="matrix(0.49480737,0.180261,-0.49480737,0.180261,-3.51408,30.79823)"
                         id="g326"><g
                           id="g328"><g
                             transform="translate(-50,-50)"
                             id="g330"><g
                               id="g332"><g
                                 clip-path="url(#clipPath338)"
                                 id="g334"><path
                                   id="path352"
                                   style="fill:url(#linearGradient350);stroke:none"
                                   d="M 0,0 H 100 V 100 H 0 Z" /></g></g></g></g></g></g></g><path
                     id="path354"
                     style="fill:none;stroke:#ededed;stroke-width:0.3985;stroke-linecap:butt;stroke-linejoin:miter;stroke-miterlimit:10;stroke-dasharray:none;stroke-opacity:1"
                     d="m -21.00632,37.17102 2.49887,-8.74609 c 10.98853,-3.99948 18.9982,-3.99948 29.98673,0 l 2.49885,8.74609" /></g><g
                   id="g356"><g
                     id="g358"><g
                       clip-path="url(#clipPath364)"
                       id="g360"><g
                         transform="matrix(0.49480737,0.14137757,-0.49480737,0.14137757,-3.51404,37.17102)"
                         id="g366"><g
                           id="g368"><g
                             transform="translate(-50,-50)"
                             id="g370"><g
                               id="g372"><g
                                 clip-path="url(#clipPath378)"
                                 id="g374"><path
                                   id="path392"
                                   style="fill:url(#linearGradient390);stroke:none"
                                   d="M 0,0 H 100 V 100 H 0 Z" /></g></g></g></g></g></g></g><path
                     id="path394"
                     style="fill:none;stroke:#ededed;stroke-width:0.3985;stroke-linecap:butt;stroke-linejoin:miter;stroke-miterlimit:10;stroke-dasharray:none;stroke-opacity:1"
                     d="m 13.97823,37.17102 c 0,2.76024 -7.83144,4.9978 -17.49227,4.9978 -9.66084,0 -17.49228,-2.23756 -17.49228,-4.9978 0,-2.76024 7.83144,-4.9978 17.49228,-4.9978 9.66083,0 17.49227,2.23756 17.49227,4.9978 z" /></g><g
                   id="g396"><g
                     clip-path="url(#clipPath402)"
                     id="g398"><g
                       id="g404"><g
                         id="g406"><g
                           clip-path="url(#clipPath412)"
                           id="g408"><g
                             transform="matrix(0.35342979,-0.12370007,0.35342979,0.12370007,-3.51404,34.0474)"
                             id="g414"><g
                               id="g416"><g
                                 transform="translate(-50,-50)"
                                 id="g418"><g
                                   id="g420"><g
                                   clip-path="url(#clipPath426)"
                                   id="g422"><path
                                   id="path440"
                                   style="fill:url(#linearGradient438);stroke:none"
                                   d="M 0,0 H 100 V 100 H 0 Z" /></g></g></g></g></g></g></g><path
                         id="path442"
                         style="fill:none;stroke:#ededed;stroke-width:0.3985;stroke-linecap:butt;stroke-linejoin:miter;stroke-miterlimit:10;stroke-dasharray:none;stroke-opacity:1"
                         d="m 8.98042,34.04741 c 0,2.41518 -5.59388,4.37305 -12.49446,4.37305 -6.90059,0 -12.49447,-1.95787 -12.49447,-4.37305 0,-2.41519 5.59388,-4.37305 12.49447,-4.37305 6.90058,0 12.49446,1.95786 12.49446,4.37305 z" /></g></g></g><g
                   id="g444"><g
                     id="g446"><g
                       clip-path="url(#clipPath452)"
                       id="g448"><g
                         transform="matrix(0.14137757,0.09719089,-0.14137757,0.09719089,-3.51404,39.0452)"
                         id="g454"><g
                           id="g456"><g
                             transform="translate(-50,-50)"
                             id="g458"><g
                               id="g460"><g
                                 clip-path="url(#clipPath466)"
                                 id="g462"><path
                                   id="path480"
                                   style="fill:url(#linearGradient478);stroke:none"
                                   d="M 0,0 H 100 V 100 H 0 Z" /></g></g></g></g></g></g></g><path
                     id="path482"
                     style="fill:none;stroke:#3758a1;stroke-width:0.3985;stroke-linecap:butt;stroke-linejoin:miter;stroke-miterlimit:10;stroke-dasharray:none;stroke-opacity:1"
                     d="m 1.48375,39.04521 c 0,1.89766 -2.23755,3.43599 -4.99779,3.43599 -2.76024,0 -4.9978,-1.53833 -4.9978,-3.43599 0,-1.89766 2.23756,-3.43601 4.9978,-3.43601 2.76024,0 4.99779,1.53835 4.99779,3.43601 z" /></g></g></g><g
               transform="translate(0,-40.919)"
               id="g484"><g
                 id="g486" /><g
                 transform="translate(0,40.919)"
                 id="g488" /></g></g></g></g></g></g></svg>