<?xml version="1.0" encoding="UTF-8" standalone="no"?>
<svg
   xmlns:dc="http://purl.org/dc/elements/1.1/"
   xmlns:cc="http://creativecommons.org/ns#"
   xmlns:rdf="http://www.w3.org/1999/02/22-rdf-syntax-ns#"
   xmlns:svg="http://www.w3.org/2000/svg"
   xmlns="http://www.w3.org/2000/svg"
   viewBox="0 0 91.260002 125.76933"
   height="125.76933"
   width="91.260002"
   xml:space="preserve"
   id="svg2"
   version="1.1"><metadata
     id="metadata8"><rdf:RDF><cc:Work
         rdf:about=""><dc:format>image/svg+xml</dc:format><dc:type
           rdf:resource="http://purl.org/dc/dcmitype/StillImage" /></cc:Work></rdf:RDF></metadata><defs
     id="defs6"><clipPath
       id="clipPath32"
       clipPathUnits="userSpaceOnUse"><path
         id="path30"
         d="m -27.87833,-30.92381 c 12.49448,-12.49448 43.73066,-6.24724 56.22513,6.24724 0,43.73065 -62.47236,43.73065 -56.22513,-6.24724 z" /></clipPath><clipPath
       id="clipPath46"
       clipPathUnits="userSpaceOnUse"><path
         id="path44"
         d="M 0,0 H 100 V 100 H 0 Z" /></clipPath><linearGradient
       id="linearGradient58"
       gradientUnits="userSpaceOnUse"
       y2="100.00128"
       x2="0"
       y1="0"
       x1="0"><stop
         id="stop48"
         offset="0"
         style="stop-opacity:1;stop-color:#fb3535" /><stop
         id="stop50"
         offset="25.00032"
         style="stop-opacity:1;stop-color:#fb3535" /><stop
         id="stop52"
         offset="50.00064"
         style="stop-opacity:1;stop-color:#fc6868" /><stop
         id="stop54"
         offset="75.00096"
         style="stop-opacity:1;stop-color:#fd9a9a" /><stop
         id="stop56"
         offset="100.00128"
         style="stop-opacity:1;stop-color:#fd9a9a" /></linearGradient><clipPath
       id="clipPath72"
       clipPathUnits="userSpaceOnUse"><path
         id="path70"
         d="m 5.85669,-12.1821 c 0.34672,0 0.62476,0.48651 0.62476,1.09325 0,0.60676 -0.31238,1.09328 -0.62476,1.09328 -0.27536,0.07475 -0.2867,0.6371 -0.59947,1.15967 C 4.94444,-8.31334 4.42459,-8.05537 4.15556,-8.21638 3.88663,-8.2996 3.58928,-7.82204 3.05319,-7.5328 2.51707,-7.24355 1.93831,-7.28766 1.7894,-7.56364 1.58966,-7.77933 1.09073,-7.52394 0.48448,-7.55191 -0.1218,-7.57986 -0.5935,-7.91444 -0.57912,-8.22656 -0.63974,-8.50761 -1.19989,-8.54521 -1.70627,-8.8815 c -0.50641,-0.3363 -0.7393,-0.86667 -0.56618,-1.12737 0.09339,-0.26748 -0.36785,-0.58572 -0.63052,-1.1327 -0.26265,-0.54701 -0.19165,-1.12082 0.08995,-1.25604 0.2207,-0.19695 -0.01118,-0.70722 0.04495,-1.31151 0.05616,-0.60431 0.41228,-1.05995 0.72339,-1.03105 0.28476,-0.0472 0.34853,-0.60493 0.70813,-1.09497 0.35962,-0.49007 0.90027,-0.69786 1.15257,-0.51275 0.26273,0.10519 0.60276,-0.34106 1.16216,-0.57791 0.55942,-0.23684 1.12992,-0.13873 1.25183,0.14925 0.18395,0.23013 0.70441,0.02243 1.3053,0.1068 0.60087,0.08436 1.03926,0.46139 0.99583,0.77073 0.03456,0.28659 0.58997,0.37659 1.06376,0.75957 0.47378,0.38301 0.6565,0.93404 0.45934,1.17795 l 0.04697,1.71496 -0.24447,0.06466" /></clipPath><clipPath
       id="clipPath86"
       clipPathUnits="userSpaceOnUse"><path
         id="path84"
         d="M 0,0 H 100 V 100 H 0 Z" /></clipPath><linearGradient
       id="linearGradient98"
       gradientUnits="userSpaceOnUse"
       y2="100.00128"
       x2="0"
       y1="0"
       x1="0"><stop
         id="stop88"
         offset="0"
         style="stop-opacity:1;stop-color:#eaeaea" /><stop
         id="stop90"
         offset="25.00032"
         style="stop-opacity:1;stop-color:#eaeaea" /><stop
         id="stop92"
         offset="50.00064"
         style="stop-opacity:1;stop-color:#f1f1f1" /><stop
         id="stop94"
         offset="75.00096"
         style="stop-opacity:1;stop-color:#f8f8f8" /><stop
         id="stop96"
         offset="100.00128"
         style="stop-opacity:1;stop-color:#f8f8f8" /></linearGradient><clipPath
       id="clipPath112"
       clipPathUnits="userSpaceOnUse"><path
         id="path110"
         d="m 7.41852,-25.926 c 0.34672,0 0.62475,0.48652 0.62475,1.09325 0,0.60677 -0.31239,1.09328 -0.62475,1.09328 -0.27542,0.07484 -0.28676,0.63719 -0.59957,1.15976 -0.3128,0.52257 -0.83265,0.78053 -1.10168,0.61951 -0.26894,-0.08326 -0.56627,0.3943 -1.10237,0.68351 -0.5361,0.28923 -1.11488,0.2451 -1.26376,-0.03088 -0.19971,-0.21567 -0.69863,0.03973 -1.30489,0.01178 -0.60628,-0.02797 -1.078,-0.36252 -1.06361,-0.67464 -0.06072,-0.28113 -0.62088,-0.31877 -1.12724,-0.6551 -0.50642,-0.33635 -0.7393,-0.86675 -0.56614,-1.12745 0.0934,-0.26745 -0.36783,-0.58569 -0.63048,-1.13267 -0.26265,-0.54701 -0.1916,-1.12082 0.09,-1.25603 0.22073,-0.1969 -0.01115,-0.70717 0.04498,-1.31146 0.05614,-0.60431 0.41228,-1.05995 0.72339,-1.03105 0.28475,-0.04718 0.34853,-0.60491 0.70812,-1.09496 0.35963,-0.49006 0.90029,-0.69785 1.15258,-0.51272 0.26281,0.10524 0.60283,-0.34099 1.16223,-0.57781 0.55942,-0.23683 1.1299,-0.13872 1.25182,0.14926 0.18388,0.23011 0.70433,0.0224 1.30522,0.10677 0.60089,0.08438 1.03928,0.46139 0.99584,0.77074 0.03451,0.28654 0.5899,0.37652 1.06369,0.75951 0.47378,0.38299 0.65652,0.93401 0.45935,1.17793 l 0.04702,1.71492 -0.24442,0.06481" /></clipPath><clipPath
       id="clipPath126"
       clipPathUnits="userSpaceOnUse"><path
         id="path124"
         d="M 0,0 H 100 V 100 H 0 Z" /></clipPath><linearGradient
       id="linearGradient138"
       gradientUnits="userSpaceOnUse"
       y2="100.00128"
       x2="0"
       y1="0"
       x1="0"><stop
         id="stop128"
         offset="0"
         style="stop-opacity:1;stop-color:#eaeaea" /><stop
         id="stop130"
         offset="25.00032"
         style="stop-opacity:1;stop-color:#eaeaea" /><stop
         id="stop132"
         offset="50.00064"
         style="stop-opacity:1;stop-color:#f1f1f1" /><stop
         id="stop134"
         offset="75.00096"
         style="stop-opacity:1;stop-color:#f8f8f8" /><stop
         id="stop136"
         offset="100.00128"
         style="stop-opacity:1;stop-color:#f8f8f8" /></linearGradient><clipPath
       id="clipPath152"
       clipPathUnits="userSpaceOnUse"><path
         id="path150"
         d="m 15.85233,19.05408 c 0,10.35089 -8.39083,18.74171 -18.7417,18.74171 -10.35089,0 -18.74172,-8.39082 -18.74172,-18.74171 0,-10.35089 8.39083,-18.74172 18.74172,-18.74172 10.35087,0 18.7417,8.39083 18.7417,18.74172 z" /></clipPath><clipPath
       id="clipPath166"
       clipPathUnits="userSpaceOnUse"><path
         id="path164"
         d="M 0,0 H 100 V 100 H 0 Z" /></clipPath><linearGradient
       id="linearGradient178"
       gradientUnits="userSpaceOnUse"
       y2="100.00128"
       x2="0"
       y1="0"
       x1="0"><stop
         id="stop168"
         offset="0"
         style="stop-opacity:1;stop-color:#dea964" /><stop
         id="stop170"
         offset="25.00032"
         style="stop-opacity:1;stop-color:#dea964" /><stop
         id="stop172"
         offset="50.00064"
         style="stop-opacity:1;stop-color:#e7bf8b" /><stop
         id="stop174"
         offset="75.00096"
         style="stop-opacity:1;stop-color:#efd4b1" /><stop
         id="stop176"
         offset="100.00128"
         style="stop-opacity:1;stop-color:#efd4b1" /></linearGradient><clipPath
       id="clipPath192"
       clipPathUnits="userSpaceOnUse"><path
         id="path190"
         d="m -22.25584,25.30132 c 0.34672,0 0.62475,-0.48652 0.62475,-1.09325 0,-0.60677 -0.31238,-1.09328 -0.62475,-1.09328 0.47447,0.04625 0.80873,-0.40425 0.88096,-1.00734 0.07225,-0.60312 -0.18036,-1.1239 -0.49084,-1.16108 0.46692,0.10562 0.8529,-0.30137 0.99713,-0.89133 0.14424,-0.59001 -0.04386,-1.13734 -0.34758,-1.21158 0.45149,0.16061 0.88414,-0.19742 1.09851,-0.76646 0.21437,-0.56905 0.09329,-1.13573 -0.19968,-1.24608 0.42643,0.21513 0.8976,-0.0882 1.1776,-0.6265 0.28001,-0.53832 0.22739,-1.1141 -0.04974,-1.25825 0.39875,0.25876 0.90228,0.01284 1.24354,-0.48888 0.34128,-0.50174 0.3566,-1.07976 0.09831,-1.25545 0.36528,0.30259 0.89519,0.11612 1.29319,-0.34391 0.39798,-0.46003 0.48028,-1.03379 0.24345,-1.23868 0.32384,0.34582 0.87262,0.22081 1.32137,-0.19156 0.44876,-0.41239 0.59628,-0.97409 0.38398,-1.20511 0.27855,0.38203 0.83789,0.31979 1.3303,-0.03926 0.4924,-0.35906 0.70237,-0.90045 0.51753,-1.15395 0.23355,0.40996 0.79617,0.41082 1.32554,0.10935 0.52942,-0.30147 0.79869,-0.81575 0.6435,-1.08829 0.18632,0.4325 0.74501,0.49612 1.30441,0.25578 0.55942,-0.24035 0.88423,-0.72108 0.7605,-1.00908 0.138,0.44864 0.68474,0.57366 1.26588,0.39745 0.58118,-0.17622 0.95644,-0.61671 0.86573,-0.91591 0.09275,0.45885 0.62242,0.64351 1.21955,0.53256 0.59716,-0.11096 1.01885,-0.50737 0.96174,-0.81479 0.04147,0.46482 0.5474,0.70606 1.15266,0.66102 0.60527,-0.04505 1.06741,-0.3928 1.04423,-0.7044 C -2.22215,6.9174 -1.74513,7.2115 -1.13866,7.2317 -0.53217,7.2519 -0.03548,6.95586 -0.02507,6.64363 -0.08221,7.10532 0.36018,7.44958 0.96107,7.53554 1.56197,7.62149 2.08803,7.38104 2.13226,7.0717 2.02359,7.5264 2.42601,7.91782 3.01463,8.0696 3.60327,8.22139 4.15338,8.04002 4.23152,7.737 4.07004,8.1766 4.42595,8.6095 4.99312,8.82527 5.56032,9.04105 6.12616,8.92204 6.23724,8.63007 6.03093,9.05139 6.33688,9.52206 6.87738,9.8002 c 0.54053,0.27814 1.11714,0.22287 1.26032,-0.05539 -0.256,0.39446 -0.00444,0.89684 0.50193,1.23401 0.50641,0.33718 1.08605,0.34682 1.25962,0.08612 -0.30039,0.36225 -0.10729,0.88904 0.35731,1.28052 0.46459,0.39151 1.03867,0.46622 1.24022,0.22704 -0.33824,0.32871 -0.20615,0.87448 0.21127,1.31655 0.41742,0.44211 0.97974,0.58167 1.20732,0.36678 -0.37617,0.28787 -0.30764,0.84581 0.05654,1.33351 0.36419,0.48775 0.90732,0.69131 1.15842,0.50383 -0.4103,0.24113 -0.40737,0.8035 -0.10248,1.33061 0.30488,0.52715 0.82077,0.79283 1.09213,0.63587 -0.438,0.19105 -0.50172,0.74969 -0.26149,1.30909 0.24026,0.55942 0.7209,0.88426 1.00888,0.76061 -0.45825,0.13797 -0.58815,0.68359 -0.41708,1.26631 0.17103,0.58275 0.60821,0.96193 0.9082,0.87387 -0.47079,0.08742 -0.66544,0.61347 -0.56579,1.21257 0.09962,0.59915 0.48799,1.02826 0.79643,0.97696 -0.47707,0.03008 -0.73307,0.52866 -0.70584,1.1349 0.02721,0.6063 0.36119,1.07839 0.67331,1.0644 0.24916,-2.72307 0.51425,-3.21685 0.4982,-3.82346 -0.01607,-0.60663 -0.34128,-1.08476 -0.65357,-1.07651 0.29883,-0.02214 0.54242,-0.52716 0.50006,-1.13281 -0.04234,-0.60567 -0.38814,-1.0695 -0.69994,-1.0477 0.29655,-0.03459 0.51745,-0.54986 0.44828,-1.15295 -0.06917,-0.60312 -0.43515,-1.05112 -0.74564,-1.01551 0.29318,-0.04802 0.49025,-0.57267 0.39366,-1.17178 -0.0966,-0.59915 -0.48253,-1.0298 -0.79095,-0.98007 0.2887,-0.06233 0.46072,-0.59563 0.3359,-1.18942 -0.12478,-0.59382 -0.53057,-1.00568 -0.83627,-0.94143 0.2833,-0.0762 0.42885,-0.61764 0.27481,-1.20484 -0.15405,-0.58724 -0.57991,-0.97878 -0.88221,-0.89948 0.277,-0.08983 0.39442,-0.63914 0.2097,-1.21869 C 14.42389,9.22415 13.97739,8.85458 13.67903,8.94969 13.94792,8.85004 14.0346,8.2963 13.81859,7.72913 13.60257,7.16191 13.13734,6.81837 12.84537,6.92957 13.10207,6.81137 13.15564,6.25345 12.90627,5.70013 12.65686,5.14684 12.17201,4.83156 11.88716,4.95995 12.13078,4.82767 12.14813,4.26732 11.8634,3.73123 11.57866,3.19511 11.07433,2.91185 10.79834,3.05843 11.02641,2.91208 11.00362,2.35054 10.68047,1.83487 10.35732,1.31918 9.83269,1.07208 9.56721,1.23843 9.77774,1.08351 9.71022,0.52614 9.34727,0.03842 8.98431,-0.4493 8.44218,-0.6535 8.19109,-0.46666 8.37645,-0.63504 8.25853,-1.18454 7.85242,-1.63777 7.44632,-2.091 6.88734,-2.24536 6.654,-2.03629 6.81134,-2.2122 6.63687,-2.7463 6.18588,-3.1547 5.73488,-3.5631 5.163,-3.65836 4.95276,-3.42616 5.075,-3.6077 4.83739,-4.11707 4.34033,-4.46826 3.84325,-4.81947 3.26385,-4.84517 3.08305,-4.58928 3.16705,-4.76906 2.86122,-5.23994 2.32071,-5.51831 1.7802,-5.79669 1.20346,-5.74161 1.06015,-5.46335 1.10219,-5.63698 0.72575,-6.05388 0.14787,-6.24356 -0.43,-6.43326 -0.99101,-6.28784 -1.08867,-5.99033 c 0.00615,-0.16104 -0.43571,-0.50625 -1.0366,-0.59341 -0.6009,-0.08714 -1.12757,0.15236 -1.17243,0.4617 -0.02402,-0.15211 -0.51985,-0.41333 -1.12633,-0.39252 -0.60647,0.02083 -1.08206,0.34976 -1.07135,0.66199 -0.05511,-0.1451 -0.58982,-0.31463 -1.18362,-0.18673 -0.5938,0.12788 -1.00409,0.53614 -0.93825,0.84184 -0.07782,-0.14357 -0.63465,-0.22135 -1.19993,0.0047 -0.5653,0.22607 -0.90215,0.69836 -0.78579,0.98938 -0.09948,-0.14907 -0.66183,-0.14197 -1.18669,0.16682 -0.52485,0.30879 -0.78671,0.82664 -0.62774,1.09683 -0.12702,-0.15321 -0.68212,-0.07232 -1.16053,0.30194 -0.47844,0.37429 -0.66935,0.92069 -0.47667,1.16699 -0.15992,-0.15126 -0.70304,-0.00749 -1.13638,0.41945 -0.43336,0.42698 -0.56102,0.99245 -0.3412,1.21552 -0.18282,-0.14981 -0.70828,0.04651 -1.0968,0.5134 -0.38855,0.46688 -0.4597,1.04129 -0.21935,1.2413 -0.20831,-0.14049 -0.71567,0.10077 -1.063,0.60017 -0.34737,0.49939 -0.36876,1.07866 -0.11167,1.2575 -0.22569,-0.1337 -0.71347,0.14584 -1.02185,0.6707 -0.30839,0.52486 -0.28541,1.10447 -0.01521,1.26322 -0.24109,-0.12405 -0.70857,0.18836 -0.98019,0.7332 -0.27167,0.54487 -0.20897,1.12162 0.07153,1.26145 -0.25375,-0.11161 -0.69965,0.22859 -0.93608,0.78799 -0.23644,0.55942 -0.13799,1.12972 0.15001,1.25142 -0.26721,-0.09448 -0.69315,0.27126 -0.8971,0.84392 -0.20393,0.57269 -0.07261,1.13689 0.22222,1.24186 -0.27523,-0.08321 -0.68071,0.3049 -0.85343,0.88763 -0.17273,0.58273 -0.01117,1.1389 0.28882,1.22781 -0.28215,-0.06932 -0.66684,0.33839 -0.80948,0.92837 -0.14264,0.59 0.04676,1.13649 0.3505,1.20992 -0.28845,-0.05342 -0.65284,0.37237 -0.76666,0.96844 -0.11382,0.5961 0.1018,1.13266 0.40867,1.19124 -0.29285,-0.03999 -0.63708,0.40245 -0.72299,1.00335 -0.08591,0.60089 0.1546,1.12692 0.46394,1.17114 -0.29614,-0.02786 -0.62013,0.42978 -0.67888,1.03407 -0.05874,0.60431 0.20528,1.1191 0.51639,1.14933 -0.29814,-0.01522 -0.60156,0.45594 -0.63367,1.06194 -0.0321,0.60601 0.25414,1.10843 0.56611,1.12496 l 0.04199,0.51845 0.0025,-0.0055" /></clipPath><clipPath
       id="clipPath206"
       clipPathUnits="userSpaceOnUse"><path
         id="path204"
         d="M 0,0 H 100 V 100 H 0 Z" /></clipPath><linearGradient
       id="linearGradient218"
       gradientUnits="userSpaceOnUse"
       y2="100.00128"
       x2="0"
       y1="0"
       x1="0"><stop
         id="stop208"
         offset="0"
         style="stop-opacity:1;stop-color:#eaeaea" /><stop
         id="stop210"
         offset="25.00032"
         style="stop-opacity:1;stop-color:#eaeaea" /><stop
         id="stop212"
         offset="50.00064"
         style="stop-opacity:1;stop-color:#f1f1f1" /><stop
         id="stop214"
         offset="75.00096"
         style="stop-opacity:1;stop-color:#f8f8f8" /><stop
         id="stop216"
         offset="100.00128"
         style="stop-opacity:1;stop-color:#f8f8f8" /></linearGradient><clipPath
       id="clipPath232"
       clipPathUnits="userSpaceOnUse"><path
         id="path230"
         d="m -2.88937,48.10368 c -18.74172,0 -31.23619,-16.55513 -31.23619,-26.55075 0,3.74839 12.49447,9.99562 31.23619,9.99562" /></clipPath><clipPath
       id="clipPath246"
       clipPathUnits="userSpaceOnUse"><path
         id="path244"
         d="M 0,0 H 100 V 100 H 0 Z" /></clipPath><linearGradient
       id="linearGradient258"
       gradientUnits="userSpaceOnUse"
       y2="100.00128"
       x2="0"
       y1="0"
       x1="0"><stop
         id="stop248"
         offset="0"
         style="stop-opacity:1;stop-color:#fb3535" /><stop
         id="stop250"
         offset="25.00032"
         style="stop-opacity:1;stop-color:#fb3535" /><stop
         id="stop252"
         offset="50.00064"
         style="stop-opacity:1;stop-color:#fc6868" /><stop
         id="stop254"
         offset="75.00096"
         style="stop-opacity:1;stop-color:#fd9a9a" /><stop
         id="stop256"
         offset="100.00128"
         style="stop-opacity:1;stop-color:#fd9a9a" /></linearGradient><clipPath
       id="clipPath272"
       clipPathUnits="userSpaceOnUse"><path
         id="path270"
         d="M -22.25584,22.17769 C -20.33867,39.16722 -9.97012,50.51122 0.90303,47.51561 9.17831,45.23582 15.66035,35.10788 17.1194,22.17769" /></clipPath><clipPath
       id="clipPath286"
       clipPathUnits="userSpaceOnUse"><path
         id="path284"
         d="M 0,0 H 100 V 100 H 0 Z" /></clipPath><linearGradient
       id="linearGradient298"
       gradientUnits="userSpaceOnUse"
       y2="100.00128"
       x2="0"
       y1="0"
       x1="0"><stop
         id="stop288"
         offset="0"
         style="stop-opacity:1;stop-color:#fb3535" /><stop
         id="stop290"
         offset="25.00032"
         style="stop-opacity:1;stop-color:#fb3535" /><stop
         id="stop292"
         offset="50.00064"
         style="stop-opacity:1;stop-color:#fc6868" /><stop
         id="stop294"
         offset="75.00096"
         style="stop-opacity:1;stop-color:#fd9a9a" /><stop
         id="stop296"
         offset="100.00128"
         style="stop-opacity:1;stop-color:#fd9a9a" /></linearGradient><clipPath
       id="clipPath312"
       clipPathUnits="userSpaceOnUse"><path
         id="path310"
         d="m -22.25584,21.55293 c 0,-0.34673 -0.48652,-0.62475 -1.09325,-0.62475 -0.60675,0 -1.09326,0.31237 -1.09326,0.62475 0.26463,1.15308 -0.17388,1.50376 -0.39772,2.06903 -0.22385,0.5653 -0.11229,1.13379 0.17871,1.24901 0.15086,0.12615 -0.10813,0.62325 -0.08454,1.22973 0.02358,0.60648 0.35476,1.08062 0.66698,1.06849 0.01065,0.07426 -0.07638,0.62782 0.13921,1.19499 0.21559,0.5672 0.68046,0.91098 0.97244,0.79999 0.34451,-0.02739 0.63475,0.45425 1.1664,0.7511 0.53166,0.29686 1.11077,0.26117 1.26359,-0.01253 0.30985,-0.93944 0.85153,-0.7943 1.43874,-0.94884 0.58724,-0.15455 0.97851,-0.58082 0.89896,-0.88313 0.08099,0.44678 0.60774,0.6384 1.20588,0.53554 0.59819,-0.10285 1.02486,-0.49329 0.97191,-0.80123 0.05019,0.39925 0.5674,0.6155 1.16983,0.54088 0.60243,-0.07458 1.04706,-0.44458 1.00867,-0.75471 0.03454,0.38164 0.54455,0.61403 1.14885,0.55852 0.60431,-0.05552 1.06025,-0.41115 1.03169,-0.72227 0.02505,0.37316 0.52949,0.61779 1.13515,0.57673 0.60566,-0.04106 1.07016,-0.38582 1.04902,-0.69762 0.01644,0.3685 0.51592,0.62294 1.12217,0.59378 0.60629,-0.02914 1.07739,-0.36467 1.06239,-0.67679 0.01028,0.36562 0.50517,0.62847 1.11166,0.6097 0.60648,-0.01879 1.0831,-0.34607 1.07346,-0.6583 0.00535,0.364 0.49608,0.63463 1.1028,0.62537 0.60672,-0.0093 1.08845,-0.32904 1.08369,-0.64139 -5e-4,0.36318 0.48607,0.64112 1.09282,0.64098 0.60675,-1.2e-4 1.0932,-0.31261 1.09314,-0.62499 -0.00542,0.36304 0.47695,0.64824 1.08363,0.65721 0.60674,0.009 1.09786,-0.29622 1.10245,-0.60858 -0.01166,0.36354 0.46616,0.65625 1.07265,0.67473 0.60647,0.01847 1.10229,-0.27898 1.11178,-0.59119 -0.01715,0.36478 0.45575,0.66571 1.062,0.69454 0.60629,0.02881 1.10724,-0.26022 1.12209,-0.57233 -0.02543,0.36681 0.44155,0.67695 1.04721,0.71761 0.60566,0.04066 1.11224,-0.23856 1.13318,-0.55036 -0.03437,0.37021 0.42496,0.69121 1.02925,0.74623 0.60431,0.05503 1.11718,-0.212 1.14551,-0.52311 -0.04604,0.37648 0.40312,0.71179 1.00555,0.7857 0.60243,0.0739 1.12353,-0.177 1.16157,-0.48713 -0.06524,0.38807 0.36776,0.74374 0.96592,0.84547 0.59817,0.10174 1.13018,-0.12465 1.18255,-0.43259 -0.10289,0.41625 0.2992,0.80828 0.88782,0.9608 0.58862,0.15253 1.13914,-0.02822 1.21765,-0.33125 0.12793,0.03882 0.68843,0.08012 1.23755,-0.18219 0.54913,-0.26231 0.85439,-0.75537 0.71934,-1.03805 -0.30586,-0.58315 0.13505,-0.93039 0.36297,-1.49373 0.22792,-0.56336 0.12065,-1.13242 -0.16938,-1.24976 -0.01877,-0.07976 0.28563,-0.55039 0.31896,-1.15637 0.0333,-0.606 -0.25197,-1.10906 -0.56394,-1.12621 -0.05624,-0.09063 0.04149,-0.64395 -0.16392,-1.21663 -0.20543,-0.57268 -0.66497,-0.92611 -0.9598,-0.82037 -0.76068,0.33329 -1.2272,0.02229 -1.83284,-0.01942 -0.60566,-0.04172 -1.11279,0.23665 -1.13424,0.54846 0.09422,-0.75968 -0.3228,-1.13513 -0.9166,-1.26407 -0.59381,-0.12892 -1.1363,0.07339 -1.20266,0.3791 0.04078,-0.26815 -0.39853,-0.61627 -0.99857,-0.7075 -0.60003,-0.09125 -1.12814,0.14453 -1.1751,0.45345 C 10.14978,19.96732 9.69736,19.6364 9.09427,19.56834 8.49115,19.50029 7.97252,19.75623 7.9375,20.06671 7.96443,19.75253 7.50305,19.43417 6.89824,19.38275 6.29341,19.33133 5.78198,19.60149 5.75552,19.91286 5.77663,19.59125 5.30853,19.28302 4.7029,19.24474 4.09723,19.20647 3.59187,19.48758 3.57217,19.79938 3.58708,19.47331 3.11345,19.17368 2.50719,19.14644 1.90091,19.11922 1.40077,19.40953 1.38676,19.72163 1.39664,19.39285 0.91824,19.10089 0.31161,19.08347 -0.295,19.06602 -0.7904,19.36436 -0.79938,19.67665 c 0.00539,-0.33021 -0.47726,-0.61493 -1.08397,-0.62329 -0.60673,-0.0084 -1.09752,0.2973 -1.10182,0.60966 9e-5,-0.33097 -0.4866,-0.60872 -1.09335,-0.60835 -0.60675,3.8e-4 -1.09307,0.31305 -1.09288,0.62543 -0.00466,-0.3309 -0.49532,-0.60162 -1.10202,-0.59247 -0.60672,0.0091 -1.08852,0.32883 -1.08383,0.64119 -0.00955,-0.33025 -0.50422,-0.59352 -1.11071,-0.57524 -0.60647,0.01825 -1.08336,0.34515 -1.07397,0.65738 -0.01473,-0.32895 -0.51375,-0.5842 -1.12,-0.55606 -0.60629,0.02815 -1.07791,0.36285 -1.06343,0.67496 -0.02041,-0.32644 -0.52404,-0.57244 -1.1297,-0.53312 -0.60566,0.03933 -1.07106,0.38269 -1.05082,0.69451 -0.02716,-0.32245 -0.53626,-0.55735 -1.14107,-0.50463 -0.60483,0.05269 -1.06265,0.40633 -1.03554,0.7177 -0.03535,-0.31549 -0.55091,-0.5359 -1.15401,-0.46614 -0.60311,0.06978 -1.0508,0.43623 -1.01489,0.74672 -0.04668,-0.30269 -0.57078,-0.50243 -1.17082,-0.40862 -0.60004,0.09382 -1.03287,0.47797 -0.98457,0.78687 l -1.87197,0.48833 0.02254,0.10156" /></clipPath><clipPath
       id="clipPath326"
       clipPathUnits="userSpaceOnUse"><path
         id="path324"
         d="M 0,0 H 100 V 100 H 0 Z" /></clipPath><linearGradient
       id="linearGradient338"
       gradientUnits="userSpaceOnUse"
       y2="100.00128"
       x2="0"
       y1="0"
       x1="0"><stop
         id="stop328"
         offset="0"
         style="stop-opacity:1;stop-color:#eaeaea" /><stop
         id="stop330"
         offset="25.00032"
         style="stop-opacity:1;stop-color:#eaeaea" /><stop
         id="stop332"
         offset="50.00064"
         style="stop-opacity:1;stop-color:#f1f1f1" /><stop
         id="stop334"
         offset="75.00096"
         style="stop-opacity:1;stop-color:#f8f8f8" /><stop
         id="stop336"
         offset="100.00128"
         style="stop-opacity:1;stop-color:#f8f8f8" /></linearGradient><clipPath
       id="clipPath352"
       clipPathUnits="userSpaceOnUse"><path
         id="path350"
         d="m -29.44014,21.55293 c 0.34673,0 0.62476,0.48651 0.62476,1.09325 0,0.60676 -0.3124,1.09326 -0.62476,1.09326 -0.18985,0.07831 -0.1608,0.63896 -0.43469,1.18164 -0.27391,0.5427 -0.77294,0.83682 -1.05232,0.69582 -0.20278,-0.01987 -0.42806,0.49374 -0.91579,0.85557 -0.48773,0.36182 -1.06511,0.40085 -1.25137,0.14975 -0.17585,-0.10959 -0.60851,0.24666 -1.20667,0.34914 -0.59817,0.10246 -1.13055,-0.12334 -1.1833,-0.43128 -0.12015,-0.17529 -0.66787,-0.05203 -1.24901,-0.23042 -0.58118,-0.17839 -0.95531,-0.62065 -0.86348,-0.91984 -0.01438,-0.2051 -0.56058,-0.34209 -1.00047,-0.76436 -0.4399,-0.42227 -0.57523,-0.98734 -0.35784,-1.21379 0.08278,-0.18351 -0.34169,-0.55008 -0.54379,-1.12274 -0.2021,-0.5727 -0.06933,-1.13595 0.22549,-1.24 0.15706,-0.14677 -0.05661,-0.66545 0.02121,-1.26786 0.07781,-0.60245 0.45038,-1.04543 0.76052,-1.00537 0.20235,-0.04952 0.24605,-0.60816 0.58728,-1.10988 0.34123,-0.50174 0.87315,-0.72838 1.13145,-0.55271 0.19939,0.04097 0.48981,-0.44037 1.02144,-0.73683 0.53166,-0.29649 1.11058,-0.26048 1.26321,0.01322 0.15601,0.13542 0.63089,-0.16205 1.23714,-0.18656 0.60629,-0.02452 1.10501,0.26798 1.11763,0.58008 0.09715,0.18967 0.65663,0.13879 1.20993,0.39156 0.55332,0.25277 0.86685,0.74032 0.73673,1.02517 -0.01345,0.20313 0.50886,0.40859 0.88951,0.88237 0.38066,0.47379 0.44195,1.04964 0.19804,1.24561 l -0.2413,1.20018 -0.09951,0.02521" /></clipPath><clipPath
       id="clipPath366"
       clipPathUnits="userSpaceOnUse"><path
         id="path364"
         d="M 0,0 H 100 V 100 H 0 Z" /></clipPath><linearGradient
       id="linearGradient378"
       gradientUnits="userSpaceOnUse"
       y2="100.00128"
       x2="0"
       y1="0"
       x1="0"><stop
         id="stop368"
         offset="0"
         style="stop-opacity:1;stop-color:#eaeaea" /><stop
         id="stop370"
         offset="25.00032"
         style="stop-opacity:1;stop-color:#eaeaea" /><stop
         id="stop372"
         offset="50.00064"
         style="stop-opacity:1;stop-color:#f1f1f1" /><stop
         id="stop374"
         offset="75.00096"
         style="stop-opacity:1;stop-color:#f8f8f8" /><stop
         id="stop376"
         offset="100.00128"
         style="stop-opacity:1;stop-color:#f8f8f8" /></linearGradient></defs><g
     transform="matrix(1.3333333,0,0,-1.3333333,0,125.76933)"
     id="g10"><g
       transform="translate(39.9,43.617)"
       id="g12"><g
         id="g14"><g
           id="g16"><g
             id="g18"><g
               id="g20"><g
                 id="g22"><g
                   id="g24"><g
                     id="g26"><g
                       clip-path="url(#clipPath32)"
                       id="g28"><g
                         transform="matrix(0.88358509,0.88358509,-0.88358509,0.88358509,-2.88937,-12.1821)"
                         id="g34"><g
                           id="g36"><g
                             transform="translate(-50,-50)"
                             id="g38"><g
                               id="g40"><g
                                 clip-path="url(#clipPath46)"
                                 id="g42"><path
                                   id="path60"
                                   style="fill:url(#linearGradient58);stroke:none"
                                   d="M 0,0 H 100 V 100 H 0 Z" /></g></g></g></g></g></g></g><path
                     id="path62"
                     style="fill:none;stroke:#fb3535;stroke-width:0.3985;stroke-linecap:butt;stroke-linejoin:miter;stroke-miterlimit:10;stroke-dasharray:none;stroke-opacity:1"
                     d="m -27.87833,-30.92381 c 12.49448,-12.49448 43.73066,-6.24724 56.22513,6.24724 0,43.73065 -62.47236,43.73065 -56.22513,-6.24724 z" /></g><g
                   id="g64"><g
                     id="g66"><g
                       clip-path="url(#clipPath72)"
                       id="g68"><g
                         transform="matrix(0.13644202,0.14028864,-0.13644202,0.14028864,1.6579,-12.2031)"
                         id="g74"><g
                           id="g76"><g
                             transform="translate(-50,-50)"
                             id="g78"><g
                               id="g80"><g
                                 clip-path="url(#clipPath86)"
                                 id="g82"><path
                                   id="path100"
                                   style="fill:url(#linearGradient98);stroke:none"
                                   d="M 0,0 H 100 V 100 H 0 Z" /></g></g></g></g></g></g></g><path
                     id="path102"
                     style="fill:none;stroke:#ededed;stroke-width:0.3985;stroke-linecap:butt;stroke-linejoin:miter;stroke-miterlimit:10;stroke-dasharray:none;stroke-opacity:1"
                     d="m 5.85669,-12.1821 c 0.34672,0 0.62476,0.48651 0.62476,1.09325 0,0.60676 -0.31238,1.09328 -0.62476,1.09328 -0.27536,0.07475 -0.2867,0.6371 -0.59947,1.15967 C 4.94444,-8.31334 4.42459,-8.05537 4.15556,-8.21638 3.88663,-8.2996 3.58928,-7.82204 3.05319,-7.5328 2.51707,-7.24355 1.93831,-7.28766 1.7894,-7.56364 1.58966,-7.77933 1.09073,-7.52394 0.48448,-7.55191 -0.1218,-7.57986 -0.5935,-7.91444 -0.57912,-8.22656 -0.63974,-8.50761 -1.19989,-8.54521 -1.70627,-8.8815 c -0.50641,-0.3363 -0.7393,-0.86667 -0.56618,-1.12737 0.09339,-0.26748 -0.36785,-0.58572 -0.63052,-1.1327 -0.26265,-0.54701 -0.19165,-1.12082 0.08995,-1.25604 0.2207,-0.19695 -0.01118,-0.70722 0.04495,-1.31151 0.05616,-0.60431 0.41228,-1.05995 0.72339,-1.03105 0.28476,-0.0472 0.34853,-0.60493 0.70813,-1.09497 0.35962,-0.49007 0.90027,-0.69786 1.15257,-0.51275 0.26273,0.10519 0.60276,-0.34106 1.16216,-0.57791 0.55942,-0.23684 1.12992,-0.13873 1.25183,0.14925 0.18395,0.23013 0.70441,0.02243 1.3053,0.1068 0.60087,0.08436 1.03926,0.46139 0.99583,0.77073 0.03456,0.28659 0.58997,0.37659 1.06376,0.75957 0.47378,0.38301 0.6565,0.93404 0.45934,1.17795 l 0.04697,1.71496 -0.24447,0.06466" /></g><g
                   id="g104"><g
                     id="g106"><g
                       clip-path="url(#clipPath112)"
                       id="g108"><g
                         transform="matrix(0.13644202,0.14028864,-0.13644202,0.14028864,3.2197,-25.94698)"
                         id="g114"><g
                           id="g116"><g
                             transform="translate(-50,-50)"
                             id="g118"><g
                               id="g120"><g
                                 clip-path="url(#clipPath126)"
                                 id="g122"><path
                                   id="path140"
                                   style="fill:url(#linearGradient138);stroke:none"
                                   d="M 0,0 H 100 V 100 H 0 Z" /></g></g></g></g></g></g></g><path
                     id="path142"
                     style="fill:none;stroke:#ededed;stroke-width:0.3985;stroke-linecap:butt;stroke-linejoin:miter;stroke-miterlimit:10;stroke-dasharray:none;stroke-opacity:1"
                     d="m 7.41852,-25.926 c 0.34672,0 0.62475,0.48652 0.62475,1.09325 0,0.60677 -0.31239,1.09328 -0.62475,1.09328 -0.27542,0.07484 -0.28676,0.63719 -0.59957,1.15976 -0.3128,0.52257 -0.83265,0.78053 -1.10168,0.61951 -0.26894,-0.08326 -0.56627,0.3943 -1.10237,0.68351 -0.5361,0.28923 -1.11488,0.2451 -1.26376,-0.03088 -0.19971,-0.21567 -0.69863,0.03973 -1.30489,0.01178 -0.60628,-0.02797 -1.078,-0.36252 -1.06361,-0.67464 -0.06072,-0.28113 -0.62088,-0.31877 -1.12724,-0.6551 -0.50642,-0.33635 -0.7393,-0.86675 -0.56614,-1.12745 0.0934,-0.26745 -0.36783,-0.58569 -0.63048,-1.13267 -0.26265,-0.54701 -0.1916,-1.12082 0.09,-1.25603 0.22073,-0.1969 -0.01115,-0.70717 0.04498,-1.31146 0.05614,-0.60431 0.41228,-1.05995 0.72339,-1.03105 0.28475,-0.04718 0.34853,-0.60491 0.70812,-1.09496 0.35963,-0.49006 0.90029,-0.69785 1.15258,-0.51272 0.26281,0.10524 0.60283,-0.34099 1.16223,-0.57781 0.55942,-0.23683 1.1299,-0.13872 1.25182,0.14926 0.18388,0.23011 0.70433,0.0224 1.30522,0.10677 0.60089,0.08438 1.03928,0.46139 0.99584,0.77074 0.03451,0.28654 0.5899,0.37652 1.06369,0.75951 0.47378,0.38299 0.65652,0.93401 0.45935,1.17793 l 0.04702,1.71492 -0.24442,0.06481" /></g><g
                   id="g144"><g
                     id="g146"><g
                       clip-path="url(#clipPath152)"
                       id="g148"><g
                         transform="matrix(0.5301553,0.5301553,-0.5301553,0.5301553,-2.88937,19.05408)"
                         id="g154"><g
                           id="g156"><g
                             transform="translate(-50,-50)"
                             id="g158"><g
                               id="g160"><g
                                 clip-path="url(#clipPath166)"
                                 id="g162"><path
                                   id="path180"
                                   style="fill:url(#linearGradient178);stroke:none"
                                   d="M 0,0 H 100 V 100 H 0 Z" /></g></g></g></g></g></g></g><path
                     id="path182"
                     style="fill:none;stroke:#dea964;stroke-width:0.3985;stroke-linecap:butt;stroke-linejoin:miter;stroke-miterlimit:10;stroke-dasharray:none;stroke-opacity:1"
                     d="m 15.85233,19.05408 c 0,10.35089 -8.39083,18.74171 -18.7417,18.74171 -10.35089,0 -18.74172,-8.39082 -18.74172,-18.74171 0,-10.35089 8.39083,-18.74172 18.74172,-18.74172 10.35087,0 18.7417,8.39083 18.7417,18.74172 z" /></g><g
                   id="g184"><g
                     id="g186"><g
                       clip-path="url(#clipPath192)"
                       id="g188"><g
                         transform="matrix(0.56531231,0.47160035,-0.56531231,0.47160035,-2.91385,10.00073)"
                         id="g194"><g
                           id="g196"><g
                             transform="translate(-50,-50)"
                             id="g198"><g
                               id="g200"><g
                                 clip-path="url(#clipPath206)"
                                 id="g202"><path
                                   id="path220"
                                   style="fill:url(#linearGradient218);stroke:none"
                                   d="M 0,0 H 100 V 100 H 0 Z" /></g></g></g></g></g></g></g><path
                     id="path222"
                     style="fill:none;stroke:#ededed;stroke-width:0.3985;stroke-linecap:butt;stroke-linejoin:miter;stroke-miterlimit:10;stroke-dasharray:none;stroke-opacity:1"
                     d="m -22.25584,25.30132 c 0.34672,0 0.62475,-0.48652 0.62475,-1.09325 0,-0.60677 -0.31238,-1.09328 -0.62475,-1.09328 0.47447,0.04625 0.80873,-0.40425 0.88096,-1.00734 0.07225,-0.60312 -0.18036,-1.1239 -0.49084,-1.16108 0.46692,0.10562 0.8529,-0.30137 0.99713,-0.89133 0.14424,-0.59001 -0.04386,-1.13734 -0.34758,-1.21158 0.45149,0.16061 0.88414,-0.19742 1.09851,-0.76646 0.21437,-0.56905 0.09329,-1.13573 -0.19968,-1.24608 0.42643,0.21513 0.8976,-0.0882 1.1776,-0.6265 0.28001,-0.53832 0.22739,-1.1141 -0.04974,-1.25825 0.39875,0.25876 0.90228,0.01284 1.24354,-0.48888 0.34128,-0.50174 0.3566,-1.07976 0.09831,-1.25545 0.36528,0.30259 0.89519,0.11612 1.29319,-0.34391 0.39798,-0.46003 0.48028,-1.03379 0.24345,-1.23868 0.32384,0.34582 0.87262,0.22081 1.32137,-0.19156 0.44876,-0.41239 0.59628,-0.97409 0.38398,-1.20511 0.27855,0.38203 0.83789,0.31979 1.3303,-0.03926 0.4924,-0.35906 0.70237,-0.90045 0.51753,-1.15395 0.23355,0.40996 0.79617,0.41082 1.32554,0.10935 0.52942,-0.30147 0.79869,-0.81575 0.6435,-1.08829 0.18632,0.4325 0.74501,0.49612 1.30441,0.25578 0.55942,-0.24035 0.88423,-0.72108 0.7605,-1.00908 0.138,0.44864 0.68474,0.57366 1.26588,0.39745 0.58118,-0.17622 0.95644,-0.61671 0.86573,-0.91591 0.09275,0.45885 0.62242,0.64351 1.21955,0.53256 0.59716,-0.11096 1.01885,-0.50737 0.96174,-0.81479 0.04147,0.46482 0.5474,0.70606 1.15266,0.66102 0.60527,-0.04505 1.06741,-0.3928 1.04423,-0.7044 C -2.22215,6.9174 -1.74513,7.2115 -1.13866,7.2317 -0.53217,7.2519 -0.03548,6.95586 -0.02507,6.64363 -0.08221,7.10532 0.36018,7.44958 0.96107,7.53554 1.56197,7.62149 2.08803,7.38104 2.13226,7.0717 2.02359,7.5264 2.42601,7.91782 3.01463,8.0696 3.60327,8.22139 4.15338,8.04002 4.23152,7.737 4.07004,8.1766 4.42595,8.6095 4.99312,8.82527 5.56032,9.04105 6.12616,8.92204 6.23724,8.63007 6.03093,9.05139 6.33688,9.52206 6.87738,9.8002 c 0.54053,0.27814 1.11714,0.22287 1.26032,-0.05539 -0.256,0.39446 -0.00444,0.89684 0.50193,1.23401 0.50641,0.33718 1.08605,0.34682 1.25962,0.08612 -0.30039,0.36225 -0.10729,0.88904 0.35731,1.28052 0.46459,0.39151 1.03867,0.46622 1.24022,0.22704 -0.33824,0.32871 -0.20615,0.87448 0.21127,1.31655 0.41742,0.44211 0.97974,0.58167 1.20732,0.36678 -0.37617,0.28787 -0.30764,0.84581 0.05654,1.33351 0.36419,0.48775 0.90732,0.69131 1.15842,0.50383 -0.4103,0.24113 -0.40737,0.8035 -0.10248,1.33061 0.30488,0.52715 0.82077,0.79283 1.09213,0.63587 -0.438,0.19105 -0.50172,0.74969 -0.26149,1.30909 0.24026,0.55942 0.7209,0.88426 1.00888,0.76061 -0.45825,0.13797 -0.58815,0.68359 -0.41708,1.26631 0.17103,0.58275 0.60821,0.96193 0.9082,0.87387 -0.47079,0.08742 -0.66544,0.61347 -0.56579,1.21257 0.09962,0.59915 0.48799,1.02826 0.79643,0.97696 -0.47707,0.03008 -0.73307,0.52866 -0.70584,1.1349 0.02721,0.6063 0.36119,1.07839 0.67331,1.0644 0.24916,-2.72307 0.51425,-3.21685 0.4982,-3.82346 -0.01607,-0.60663 -0.34128,-1.08476 -0.65357,-1.07651 0.29883,-0.02214 0.54242,-0.52716 0.50006,-1.13281 -0.04234,-0.60567 -0.38814,-1.0695 -0.69994,-1.0477 0.29655,-0.03459 0.51745,-0.54986 0.44828,-1.15295 -0.06917,-0.60312 -0.43515,-1.05112 -0.74564,-1.01551 0.29318,-0.04802 0.49025,-0.57267 0.39366,-1.17178 -0.0966,-0.59915 -0.48253,-1.0298 -0.79095,-0.98007 0.2887,-0.06233 0.46072,-0.59563 0.3359,-1.18942 -0.12478,-0.59382 -0.53057,-1.00568 -0.83627,-0.94143 0.2833,-0.0762 0.42885,-0.61764 0.27481,-1.20484 -0.15405,-0.58724 -0.57991,-0.97878 -0.88221,-0.89948 0.277,-0.08983 0.39442,-0.63914 0.2097,-1.21869 C 14.42389,9.22415 13.97739,8.85458 13.67903,8.94969 13.94792,8.85004 14.0346,8.2963 13.81859,7.72913 13.60257,7.16191 13.13734,6.81837 12.84537,6.92957 13.10207,6.81137 13.15564,6.25345 12.90627,5.70013 12.65686,5.14684 12.17201,4.83156 11.88716,4.95995 12.13078,4.82767 12.14813,4.26732 11.8634,3.73123 11.57866,3.19511 11.07433,2.91185 10.79834,3.05843 11.02641,2.91208 11.00362,2.35054 10.68047,1.83487 10.35732,1.31918 9.83269,1.07208 9.56721,1.23843 9.77774,1.08351 9.71022,0.52614 9.34727,0.03842 8.98431,-0.4493 8.44218,-0.6535 8.19109,-0.46666 8.37645,-0.63504 8.25853,-1.18454 7.85242,-1.63777 7.44632,-2.091 6.88734,-2.24536 6.654,-2.03629 6.81134,-2.2122 6.63687,-2.7463 6.18588,-3.1547 5.73488,-3.5631 5.163,-3.65836 4.95276,-3.42616 5.075,-3.6077 4.83739,-4.11707 4.34033,-4.46826 3.84325,-4.81947 3.26385,-4.84517 3.08305,-4.58928 3.16705,-4.76906 2.86122,-5.23994 2.32071,-5.51831 1.7802,-5.79669 1.20346,-5.74161 1.06015,-5.46335 1.10219,-5.63698 0.72575,-6.05388 0.14787,-6.24356 -0.43,-6.43326 -0.99101,-6.28784 -1.08867,-5.99033 c 0.00615,-0.16104 -0.43571,-0.50625 -1.0366,-0.59341 -0.6009,-0.08714 -1.12757,0.15236 -1.17243,0.4617 -0.02402,-0.15211 -0.51985,-0.41333 -1.12633,-0.39252 -0.60647,0.02083 -1.08206,0.34976 -1.07135,0.66199 -0.05511,-0.1451 -0.58982,-0.31463 -1.18362,-0.18673 -0.5938,0.12788 -1.00409,0.53614 -0.93825,0.84184 -0.07782,-0.14357 -0.63465,-0.22135 -1.19993,0.0047 -0.5653,0.22607 -0.90215,0.69836 -0.78579,0.98938 -0.09948,-0.14907 -0.66183,-0.14197 -1.18669,0.16682 -0.52485,0.30879 -0.78671,0.82664 -0.62774,1.09683 -0.12702,-0.15321 -0.68212,-0.07232 -1.16053,0.30194 -0.47844,0.37429 -0.66935,0.92069 -0.47667,1.16699 -0.15992,-0.15126 -0.70304,-0.00749 -1.13638,0.41945 -0.43336,0.42698 -0.56102,0.99245 -0.3412,1.21552 -0.18282,-0.14981 -0.70828,0.04651 -1.0968,0.5134 -0.38855,0.46688 -0.4597,1.04129 -0.21935,1.2413 -0.20831,-0.14049 -0.71567,0.10077 -1.063,0.60017 -0.34737,0.49939 -0.36876,1.07866 -0.11167,1.2575 -0.22569,-0.1337 -0.71347,0.14584 -1.02185,0.6707 -0.30839,0.52486 -0.28541,1.10447 -0.01521,1.26322 -0.24109,-0.12405 -0.70857,0.18836 -0.98019,0.7332 -0.27167,0.54487 -0.20897,1.12162 0.07153,1.26145 -0.25375,-0.11161 -0.69965,0.22859 -0.93608,0.78799 -0.23644,0.55942 -0.13799,1.12972 0.15001,1.25142 -0.26721,-0.09448 -0.69315,0.27126 -0.8971,0.84392 -0.20393,0.57269 -0.07261,1.13689 0.22222,1.24186 -0.27523,-0.08321 -0.68071,0.3049 -0.85343,0.88763 -0.17273,0.58273 -0.01117,1.1389 0.28882,1.22781 -0.28215,-0.06932 -0.66684,0.33839 -0.80948,0.92837 -0.14264,0.59 0.04676,1.13649 0.3505,1.20992 -0.28845,-0.05342 -0.65284,0.37237 -0.76666,0.96844 -0.11382,0.5961 0.1018,1.13266 0.40867,1.19124 -0.29285,-0.03999 -0.63708,0.40245 -0.72299,1.00335 -0.08591,0.60089 0.1546,1.12692 0.46394,1.17114 -0.29614,-0.02786 -0.62013,0.42978 -0.67888,1.03407 -0.05874,0.60431 0.20528,1.1191 0.51639,1.14933 -0.29814,-0.01522 -0.60156,0.45594 -0.63367,1.06194 -0.0321,0.60601 0.25414,1.10843 0.56611,1.12496 l 0.04199,0.51845 0.0025,-0.0055" /></g><g
                   id="g224"><g
                     id="g226"><g
                       clip-path="url(#clipPath232)"
                       id="g228"><g
                         transform="matrix(0.44178901,0.3755196,-0.44178901,0.3755196,-18.50746,34.82831)"
                         id="g234"><g
                           id="g236"><g
                             transform="translate(-50,-50)"
                             id="g238"><g
                               id="g240"><g
                                 clip-path="url(#clipPath246)"
                                 id="g242"><path
                                   id="path260"
                                   style="fill:url(#linearGradient258);stroke:none"
                                   d="M 0,0 H 100 V 100 H 0 Z" /></g></g></g></g></g></g></g><path
                     id="path262"
                     style="fill:none;stroke:#fb3535;stroke-width:0.3985;stroke-linecap:butt;stroke-linejoin:miter;stroke-miterlimit:10;stroke-dasharray:none;stroke-opacity:1"
                     d="m -2.88937,48.10368 c -18.74172,0 -31.23619,-16.55513 -31.23619,-26.55075 0,3.74839 12.49447,9.99562 31.23619,9.99562" /></g><g
                   id="g264"><g
                     id="g266"><g
                       clip-path="url(#clipPath272)"
                       id="g268"><g
                         transform="matrix(0.55691196,0.40073478,-0.55691196,0.40073478,-2.56822,36.34444)"
                         id="g274"><g
                           id="g276"><g
                             transform="translate(-50,-50)"
                             id="g278"><g
                               id="g280"><g
                                 clip-path="url(#clipPath286)"
                                 id="g282"><path
                                   id="path300"
                                   style="fill:url(#linearGradient298);stroke:none"
                                   d="M 0,0 H 100 V 100 H 0 Z" /></g></g></g></g></g></g></g><path
                     id="path302"
                     style="fill:none;stroke:#fb3535;stroke-width:0.3985;stroke-linecap:butt;stroke-linejoin:miter;stroke-miterlimit:10;stroke-dasharray:none;stroke-opacity:1"
                     d="M -22.25584,22.17769 C -20.33867,39.16722 -9.97012,50.51122 0.90303,47.51561 9.17831,45.23582 15.66035,35.10788 17.1194,22.17769" /></g><g
                   id="g304"><g
                     id="g306"><g
                       clip-path="url(#clipPath312)"
                       id="g308"><g
                         transform="matrix(0.63083927,0.15793786,-0.63083927,0.15793786,-2.88937,24.62857)"
                         id="g314"><g
                           id="g316"><g
                             transform="translate(-50,-50)"
                             id="g318"><g
                               id="g320"><g
                                 clip-path="url(#clipPath326)"
                                 id="g322"><path
                                   id="path340"
                                   style="fill:url(#linearGradient338);stroke:none"
                                   d="M 0,0 H 100 V 100 H 0 Z" /></g></g></g></g></g></g></g><path
                     id="path342"
                     style="fill:none;stroke:#ededed;stroke-width:0.3985;stroke-linecap:butt;stroke-linejoin:miter;stroke-miterlimit:10;stroke-dasharray:none;stroke-opacity:1"
                     d="m -22.25584,21.55293 c 0,-0.34673 -0.48652,-0.62475 -1.09325,-0.62475 -0.60675,0 -1.09326,0.31237 -1.09326,0.62475 0.26463,1.15308 -0.17388,1.50376 -0.39772,2.06903 -0.22385,0.5653 -0.11229,1.13379 0.17871,1.24901 0.15086,0.12615 -0.10813,0.62325 -0.08454,1.22973 0.02358,0.60648 0.35476,1.08062 0.66698,1.06849 0.01065,0.07426 -0.07638,0.62782 0.13921,1.19499 0.21559,0.5672 0.68046,0.91098 0.97244,0.79999 0.34451,-0.02739 0.63475,0.45425 1.1664,0.7511 0.53166,0.29686 1.11077,0.26117 1.26359,-0.01253 0.30985,-0.93944 0.85153,-0.7943 1.43874,-0.94884 0.58724,-0.15455 0.97851,-0.58082 0.89896,-0.88313 0.08099,0.44678 0.60774,0.6384 1.20588,0.53554 0.59819,-0.10285 1.02486,-0.49329 0.97191,-0.80123 0.05019,0.39925 0.5674,0.6155 1.16983,0.54088 0.60243,-0.07458 1.04706,-0.44458 1.00867,-0.75471 0.03454,0.38164 0.54455,0.61403 1.14885,0.55852 0.60431,-0.05552 1.06025,-0.41115 1.03169,-0.72227 0.02505,0.37316 0.52949,0.61779 1.13515,0.57673 0.60566,-0.04106 1.07016,-0.38582 1.04902,-0.69762 0.01644,0.3685 0.51592,0.62294 1.12217,0.59378 0.60629,-0.02914 1.07739,-0.36467 1.06239,-0.67679 0.01028,0.36562 0.50517,0.62847 1.11166,0.6097 0.60648,-0.01879 1.0831,-0.34607 1.07346,-0.6583 0.00535,0.364 0.49608,0.63463 1.1028,0.62537 0.60672,-0.0093 1.08845,-0.32904 1.08369,-0.64139 -5e-4,0.36318 0.48607,0.64112 1.09282,0.64098 0.60675,-1.2e-4 1.0932,-0.31261 1.09314,-0.62499 -0.00542,0.36304 0.47695,0.64824 1.08363,0.65721 0.60674,0.009 1.09786,-0.29622 1.10245,-0.60858 -0.01166,0.36354 0.46616,0.65625 1.07265,0.67473 0.60647,0.01847 1.10229,-0.27898 1.11178,-0.59119 -0.01715,0.36478 0.45575,0.66571 1.062,0.69454 0.60629,0.02881 1.10724,-0.26022 1.12209,-0.57233 -0.02543,0.36681 0.44155,0.67695 1.04721,0.71761 0.60566,0.04066 1.11224,-0.23856 1.13318,-0.55036 -0.03437,0.37021 0.42496,0.69121 1.02925,0.74623 0.60431,0.05503 1.11718,-0.212 1.14551,-0.52311 -0.04604,0.37648 0.40312,0.71179 1.00555,0.7857 0.60243,0.0739 1.12353,-0.177 1.16157,-0.48713 -0.06524,0.38807 0.36776,0.74374 0.96592,0.84547 0.59817,0.10174 1.13018,-0.12465 1.18255,-0.43259 -0.10289,0.41625 0.2992,0.80828 0.88782,0.9608 0.58862,0.15253 1.13914,-0.02822 1.21765,-0.33125 0.12793,0.03882 0.68843,0.08012 1.23755,-0.18219 0.54913,-0.26231 0.85439,-0.75537 0.71934,-1.03805 -0.30586,-0.58315 0.13505,-0.93039 0.36297,-1.49373 0.22792,-0.56336 0.12065,-1.13242 -0.16938,-1.24976 -0.01877,-0.07976 0.28563,-0.55039 0.31896,-1.15637 0.0333,-0.606 -0.25197,-1.10906 -0.56394,-1.12621 -0.05624,-0.09063 0.04149,-0.64395 -0.16392,-1.21663 -0.20543,-0.57268 -0.66497,-0.92611 -0.9598,-0.82037 -0.76068,0.33329 -1.2272,0.02229 -1.83284,-0.01942 -0.60566,-0.04172 -1.11279,0.23665 -1.13424,0.54846 0.09422,-0.75968 -0.3228,-1.13513 -0.9166,-1.26407 -0.59381,-0.12892 -1.1363,0.07339 -1.20266,0.3791 0.04078,-0.26815 -0.39853,-0.61627 -0.99857,-0.7075 -0.60003,-0.09125 -1.12814,0.14453 -1.1751,0.45345 C 10.14978,19.96732 9.69736,19.6364 9.09427,19.56834 8.49115,19.50029 7.97252,19.75623 7.9375,20.06671 7.96443,19.75253 7.50305,19.43417 6.89824,19.38275 6.29341,19.33133 5.78198,19.60149 5.75552,19.91286 5.77663,19.59125 5.30853,19.28302 4.7029,19.24474 4.09723,19.20647 3.59187,19.48758 3.57217,19.79938 3.58708,19.47331 3.11345,19.17368 2.50719,19.14644 1.90091,19.11922 1.40077,19.40953 1.38676,19.72163 1.39664,19.39285 0.91824,19.10089 0.31161,19.08347 -0.295,19.06602 -0.7904,19.36436 -0.79938,19.67665 c 0.00539,-0.33021 -0.47726,-0.61493 -1.08397,-0.62329 -0.60673,-0.0084 -1.09752,0.2973 -1.10182,0.60966 9e-5,-0.33097 -0.4866,-0.60872 -1.09335,-0.60835 -0.60675,3.8e-4 -1.09307,0.31305 -1.09288,0.62543 -0.00466,-0.3309 -0.49532,-0.60162 -1.10202,-0.59247 -0.60672,0.0091 -1.08852,0.32883 -1.08383,0.64119 -0.00955,-0.33025 -0.50422,-0.59352 -1.11071,-0.57524 -0.60647,0.01825 -1.08336,0.34515 -1.07397,0.65738 -0.01473,-0.32895 -0.51375,-0.5842 -1.12,-0.55606 -0.60629,0.02815 -1.07791,0.36285 -1.06343,0.67496 -0.02041,-0.32644 -0.52404,-0.57244 -1.1297,-0.53312 -0.60566,0.03933 -1.07106,0.38269 -1.05082,0.69451 -0.02716,-0.32245 -0.53626,-0.55735 -1.14107,-0.50463 -0.60483,0.05269 -1.06265,0.40633 -1.03554,0.7177 -0.03535,-0.31549 -0.55091,-0.5359 -1.15401,-0.46614 -0.60311,0.06978 -1.0508,0.43623 -1.01489,0.74672 -0.04668,-0.30269 -0.57078,-0.50243 -1.17082,-0.40862 -0.60004,0.09382 -1.03287,0.47797 -0.98457,0.78687 l -1.87197,0.48833 0.02254,0.10156" /></g><g
                   id="g344"><g
                     id="g346"><g
                       clip-path="url(#clipPath352)"
                       id="g348"><g
                         transform="matrix(0.15395688,0.15549129,-0.15395688,0.15549129,-34.25816,21.5768)"
                         id="g354"><g
                           id="g356"><g
                             transform="translate(-50,-50)"
                             id="g358"><g
                               id="g360"><g
                                 clip-path="url(#clipPath366)"
                                 id="g362"><path
                                   id="path380"
                                   style="fill:url(#linearGradient378);stroke:none"
                                   d="M 0,0 H 100 V 100 H 0 Z" /></g></g></g></g></g></g></g><path
                     id="path382"
                     style="fill:none;stroke:#ededed;stroke-width:0.3985;stroke-linecap:butt;stroke-linejoin:miter;stroke-miterlimit:10;stroke-dasharray:none;stroke-opacity:1"
                     d="m -29.44014,21.55293 c 0.34673,0 0.62476,0.48651 0.62476,1.09325 0,0.60676 -0.3124,1.09326 -0.62476,1.09326 -0.18985,0.07831 -0.1608,0.63896 -0.43469,1.18164 -0.27391,0.5427 -0.77294,0.83682 -1.05232,0.69582 -0.20278,-0.01987 -0.42806,0.49374 -0.91579,0.85557 -0.48773,0.36182 -1.06511,0.40085 -1.25137,0.14975 -0.17585,-0.10959 -0.60851,0.24666 -1.20667,0.34914 -0.59817,0.10246 -1.13055,-0.12334 -1.1833,-0.43128 -0.12015,-0.17529 -0.66787,-0.05203 -1.24901,-0.23042 -0.58118,-0.17839 -0.95531,-0.62065 -0.86348,-0.91984 -0.01438,-0.2051 -0.56058,-0.34209 -1.00047,-0.76436 -0.4399,-0.42227 -0.57523,-0.98734 -0.35784,-1.21379 0.08278,-0.18351 -0.34169,-0.55008 -0.54379,-1.12274 -0.2021,-0.5727 -0.06933,-1.13595 0.22549,-1.24 0.15706,-0.14677 -0.05661,-0.66545 0.02121,-1.26786 0.07781,-0.60245 0.45038,-1.04543 0.76052,-1.00537 0.20235,-0.04952 0.24605,-0.60816 0.58728,-1.10988 0.34123,-0.50174 0.87315,-0.72838 1.13145,-0.55271 0.19939,0.04097 0.48981,-0.44037 1.02144,-0.73683 0.53166,-0.29649 1.11058,-0.26048 1.26321,0.01322 0.15601,0.13542 0.63089,-0.16205 1.23714,-0.18656 0.60629,-0.02452 1.10501,0.26798 1.11763,0.58008 0.09715,0.18967 0.65663,0.13879 1.20993,0.39156 0.55332,0.25277 0.86685,0.74032 0.73673,1.02517 -0.01345,0.20313 0.50886,0.40859 0.88951,0.88237 0.38066,0.47379 0.44195,1.04964 0.19804,1.24561 l -0.2413,1.20018 -0.09951,0.02521" /></g></g></g><g
               transform="translate(0,-40.919)"
               id="g384"><g
                 id="g386" /><g
                 transform="translate(0,40.919)"
                 id="g388" /></g></g></g></g></g></g></svg>